<svg height="512" viewBox="0 0 64 64" width="512" xmlns="http://www.w3.org/2000/svg"><g id="Shopping_Bag-Hands-Bag-Purchase-Buy" data-name="Shopping Bag-Hands-Bag-Purchase-Buy"><path d="m43 33v2a2.006 2.006 0 0 1 -2 2h-18a2.006 2.006 0 0 1 -2-2v-2z" fill="#d1d3d4"/><path d="m21 13h22v20h-22z" fill="#3d9ae2"/><path d="m47.33 47.13 10.17-3.7a3.118 3.118 0 0 1 3.92 1.53 3 3 0 0 1 -1.71 4.05l-18.28 6.65a12.009 12.009 0 0 1 -4.93.7l-4.75-.33a12 12 0 0 0 -4.93.69l-3.25 1.18-4.44-12.21.44-.35a16.152 16.152 0 0 1 4.47-2.51l1.56-.56a13.965 13.965 0 0 1 7.22-.63l12.06 2.12a3.015 3.015 0 0 1 2.48 2.95 2.966 2.966 0 0 1 -.03.42z" fill="#ffc477"/><path d="m43 33v2a2.006 2.006 0 0 1 -2 2h-2a2.006 2.006 0 0 1 -2-2v-2z" fill="#c6c5ca"/><path d="m57 33v2a2.006 2.006 0 0 1 -2 2h-14a2.006 2.006 0 0 1 -2-2v-2z" fill="#e6e7e8"/><path d="m39 20h18v13h-18z" fill="#ff5023"/><path d="m37 20h2v13h-2z" fill="#1e81ce"/><path d="m39 17h-2v-8a5 5 0 0 0 -10 0v8h-2v-8a7 7 0 0 1 14 0z" fill="#1e81ce"/><path d="m48 30a5.006 5.006 0 0 1 -5-5v-2h2v2a3 3 0 0 0 6 0v-2h2v2a5.006 5.006 0 0 1 -5 5z" fill="#d80027"/><path d="m44.358 50.719a4.034 4.034 0 0 1 -.7-.061l-10.833-1.91.348-1.97 10.833 1.91a2 2 0 1 0 .694-3.939l-12.058-2.127a13.01 13.01 0 0 0 -6.7.587l-1.553.565a14.955 14.955 0 0 0 -4.194 2.346l-.444.352-1.246-1.572.443-.351a16.935 16.935 0 0 1 4.752-2.649l1.553-.566a15.018 15.018 0 0 1 7.735-.677l12.063 2.127a4 4 0 0 1 -.694 7.94z" fill="#ffb655"/><path d="m24.26 59.78-3.35 1.22h-8.98l-4.42-12.15-.34-.94 11.27-4.1.69 1.88 4.44 12.21z" fill="#3d9ae2"/><path d="m11.93 61h-6.39l-3.67-10.1 5.64-2.05z" fill="#5aaae7"/></g></svg>