<svg width="57" height="53" viewBox="0 0 57 53" fill="none" xmlns="http://www.w3.org/2000/svg">
<path d="M49.2171 50.0105C41.6831 49.8295 34.0412 50.845 26.666 49.3347L26.5084 49.5322C30.3367 51.6571 34.6651 52.7905 39.0764 52.8231C41.5606 52.8372 44.0316 52.4999 46.4904 52.1637C48.6582 51.8675 50.8466 51.5666 52.892 50.8133C51.8287 50.1269 50.4865 50.0411 49.2171 50.0105Z" fill="#F5F5F5"/>
<path d="M32.0177 10.434H25.3857V23.1779H32.0177V10.434Z" fill="#EBEBEB"/>
<path d="M39.439 10.434H32.2736V23.1779H39.439V10.434Z" fill="#EBEBEB"/>
<path d="M39.439 24.0688H32.2736V36.3827H39.439V24.0688Z" fill="#EBEBEB"/>
<path d="M54.3007 24.0688H48.1598V36.3827H54.3007V24.0688Z" fill="#EBEBEB"/>
<path d="M32.0177 24.0688H25.3857V36.3827H32.0177V24.0688Z" fill="#EBEBEB"/>
<path d="M47.904 24.0688H40.3579V36.3827H47.904V24.0688Z" fill="#EBEBEB"/>
<path d="M32.0177 36.6025H25.3857V47.6987H32.0177V36.6025Z" fill="#EBEBEB"/>
<path d="M54.3007 36.6025H48.1598V47.6987H54.3007V36.6025Z" fill="#EBEBEB"/>
<path d="M47.904 36.6025H40.3579V47.6987H47.904V36.6025Z" fill="#EBEBEB"/>
<path d="M39.439 36.6025H32.2736V47.6987H39.439V36.6025Z" fill="#EBEBEB"/>
<path d="M20.6464 0.871582H3.44702V15.7887H20.6464V0.871582Z" fill="#FAFAFA"/>
<path d="M20.6463 15.7887C20.6463 15.7887 20.6463 15.6923 20.6463 15.5113C20.6463 15.3303 20.6463 15.0612 20.6463 14.7121C20.6463 14.0069 20.6403 12.9879 20.6354 11.6845C20.6354 9.07764 20.6245 5.35306 20.616 0.871567L20.6548 0.909177L3.44813 0.916229L3.49299 0.871567C3.49299 6.29801 3.49299 11.4048 3.49299 15.7887L3.45298 15.7488L15.8924 15.7687L19.4012 15.7793H20.3299H20.5724C20.6257 15.7793 20.6548 15.7793 20.6548 15.7793H20.5772H20.342H19.4206L15.9215 15.7899L3.45541 15.8099H3.41418V15.7711C3.41418 11.3871 3.41418 6.28039 3.41418 0.853937V0.826904H3.46147H20.6597H20.6985V0.873917C20.69 5.36599 20.6827 9.10115 20.6779 11.7104C20.6779 13.0103 20.6706 14.0316 20.6682 14.7298C20.6682 15.0753 20.6682 15.3409 20.6682 15.5219C20.6682 15.7029 20.6463 15.7887 20.6463 15.7887Z" fill="#E0E0E0"/>
<path d="M10.0412 3.52196C10.0412 3.54664 9.13555 3.56662 8.01891 3.56662C6.90227 3.56662 5.9978 3.54664 5.9978 3.52196C5.9978 3.49728 6.90227 3.47729 8.01891 3.47729C9.13555 3.47729 10.0412 3.49728 10.0412 3.52196Z" fill="#E0E0E0"/>
<path d="M17.3304 4.64201C17.3304 4.66669 14.8437 4.68668 11.7763 4.68668C8.70884 4.68668 6.22095 4.66669 6.22095 4.64201C6.22095 4.61733 8.70763 4.59735 11.7763 4.59735C14.8449 4.59735 17.3304 4.61733 17.3304 4.64201Z" fill="#E0E0E0"/>
<path d="M6.75207 6.53894H6.02704V7.24178H6.75207V6.53894Z" fill="#E0E0E0"/>
<path d="M8.53551 6.53894H7.81049V7.24178H8.53551V6.53894Z" fill="#E0E0E0"/>
<path d="M10.3528 6.50726H9.62781V7.2101H10.3528V6.50726Z" fill="#E0E0E0"/>
<path d="M12.1036 6.53894H11.3785V7.24178H12.1036V6.53894Z" fill="#E0E0E0"/>
<path d="M13.8871 6.53894H13.162V7.24178H13.8871V6.53894Z" fill="#E0E0E0"/>
<path d="M15.6705 6.53894H14.9454V7.24178H15.6705V6.53894Z" fill="#E0E0E0"/>
<path d="M17.4542 6.53894H16.7291V7.24178H17.4542V6.53894Z" fill="#EBEBEB"/>
<path d="M6.75207 8.03278H6.02704V8.73562H6.75207V8.03278Z" fill="#EBEBEB"/>
<path d="M8.53551 8.03278H7.81049V8.73562H8.53551V8.03278Z" fill="#E0E0E0"/>
<path d="M10.319 8.03278H9.59399V8.73562H10.319V8.03278Z" fill="#EBEBEB"/>
<path d="M12.1036 8.03278H11.3785V8.73562H12.1036V8.03278Z" fill="#E0E0E0"/>
<path d="M13.8871 8.03278H13.162V8.73562H13.8871V8.03278Z" fill="#E0E0E0"/>
<path d="M15.7033 7.99988H14.9783V8.70272H15.7033V7.99988Z" fill="#E0E0E0"/>
<path d="M17.4542 8.03278H16.7291V8.73562H17.4542V8.03278Z" fill="#E0E0E0"/>
<path d="M6.75207 9.52551H6.02704V10.2284H6.75207V9.52551Z" fill="#E0E0E0"/>
<path d="M8.56817 9.49371H7.84314V10.1966H8.56817V9.49371Z" fill="#E0E0E0"/>
<path d="M10.319 9.52551H9.59399V10.2284H10.319V9.52551Z" fill="#E0E0E0"/>
<path d="M12.1036 9.52551H11.3785V10.2284H12.1036V9.52551Z" fill="#EBEBEB"/>
<path d="M13.8871 9.52551H13.162V10.2284H13.8871V9.52551Z" fill="#E0E0E0"/>
<path d="M15.6705 9.52551H14.9454V10.2284H15.6705V9.52551Z" fill="#E0E0E0"/>
<path d="M17.4542 9.52551H16.7291V10.2284H17.4542V9.52551Z" fill="#E0E0E0"/>
<path d="M6.75207 11.0193H6.02704V11.7221H6.75207V11.0193Z" fill="#E0E0E0"/>
<path d="M8.53551 11.0193H7.81049V11.7221H8.53551V11.0193Z" fill="#E0E0E0"/>
<path d="M10.319 11.0193H9.59399V11.7221H10.319V11.0193Z" fill="#E0E0E0"/>
<path d="M12.1363 10.9875H11.4113V11.6904H12.1363V10.9875Z" fill="#E0E0E0"/>
<path d="M13.8871 11.0193H13.162V11.7221H13.8871V11.0193Z" fill="#E0E0E0"/>
<path d="M15.6705 11.0193H14.9454V11.7221H15.6705V11.0193Z" fill="#EBEBEB"/>
<path d="M17.4542 11.0193H16.7291V11.7221H17.4542V11.0193Z" fill="#E0E0E0"/>
<path d="M6.75207 12.512H6.02704V13.2148H6.75207V12.512Z" fill="#E0E0E0"/>
<path d="M8.53551 12.512H7.81049V13.2148H8.53551V12.512Z" fill="#EBEBEB"/>
<path d="M10.319 12.512H9.59399V13.2148H10.319V12.512Z" fill="#E0E0E0"/>
<path d="M12.1036 12.512H11.3785V13.2148H12.1036V12.512Z" fill="#E0E0E0"/>
<path d="M13.8871 12.512H13.162V13.2148H13.8871V12.512Z" fill="#E0E0E0"/>
<path d="M15.7033 12.4802H14.9783V13.1831H15.7033V12.4802Z" fill="#E0E0E0"/>
<path d="M17.4542 12.512H16.7291V13.2148H17.4542V12.512Z" fill="#E0E0E0"/>
<path d="M6.77016 33.7829C6.42954 33.6398 6.15748 33.3769 6.00876 33.0471C5.94814 32.912 5.94693 32.7016 6.09606 32.671C6.1882 32.6522 6.27065 32.7216 6.33854 32.7886L7.00295 33.4279C6.93825 33.2592 6.90899 33.0797 6.9169 32.8998C6.92481 32.72 6.96973 32.5435 7.04902 32.3807C7.10601 32.2632 7.22361 32.1457 7.34849 32.1856C7.44548 32.2209 7.47701 32.3372 7.49398 32.4372L7.65402 33.361C7.74159 33.0011 7.92131 32.6684 8.17657 32.3937C8.26872 32.2938 8.41906 32.1962 8.53303 32.2667C8.64699 32.3373 8.63123 32.4748 8.60941 32.5911C8.55659 32.88 8.47539 33.1634 8.36692 33.4373C8.65314 33.1925 9.01841 33.0521 9.39991 33.0401C9.45495 33.0322 9.51112 33.0368 9.56409 33.0533C9.61706 33.0698 9.66542 33.0978 9.70544 33.1353C9.8085 33.2622 9.71756 33.4479 9.60845 33.569C9.2823 33.9216 8.51727 34.018 8.0323 33.9862" fill="#E0E0E0"/>
<path d="M9.71029 34.5421C8.52091 33.6336 6.42948 33.5055 5.05217 34.1166C3.49663 34.8065 2.4794 36.4109 2.32664 37.9493C2.18236 39.4103 2.9086 40.8876 3.52694 42.2334L9.53692 42.2604C10.2644 41.1051 11.0076 39.8134 11.0573 38.4641C11.107 37.1149 10.8051 35.3766 9.71029 34.5421Z" fill="#EBEBEB"/>
<path d="M7.01506 33.7405L6.98839 33.7476L6.90958 33.7664L6.78834 33.7934C6.72968 33.8027 6.67204 33.8173 6.61617 33.8369C6.25195 33.9373 5.90769 34.0962 5.59774 34.307C5.14091 34.624 4.74803 35.0196 4.43866 35.4741C4.25652 35.7423 4.09445 36.0227 3.95369 36.3133C3.80585 36.6272 3.68107 36.9508 3.58027 37.2818C3.39372 37.9242 3.35891 38.5991 3.47842 39.2563C3.57486 39.7951 3.72427 40.3236 3.92459 40.8348C4.0907 41.2708 4.23982 41.6199 4.33803 41.8632C4.38532 41.9807 4.4229 42.0747 4.44957 42.1429C4.4617 42.1723 4.47019 42.197 4.47746 42.2169L4.48595 42.2416C4.48595 42.2416 4.47988 42.2346 4.47261 42.2181L4.43987 42.1476C4.40956 42.0806 4.36955 41.9878 4.31863 41.8714C4.21436 41.6363 4.06039 41.2837 3.88822 40.8477C3.67967 40.3384 3.52332 39.8105 3.42144 39.2716C3.29707 38.607 3.33066 37.9237 3.51965 37.2735C3.62146 36.9402 3.74746 36.6142 3.89671 36.298C4.04002 36.0052 4.20493 35.7228 4.39016 35.453C4.70435 34.9933 5.10446 34.5947 5.56985 34.2777C5.88503 34.0671 6.2353 33.9109 6.60526 33.8158C6.66331 33.8004 6.72249 33.7894 6.78227 33.7828L6.912 33.7605L6.99081 33.7488L7.01506 33.7405Z" fill="#E0E0E0"/>
<path d="M8.76582 42.2135C8.77209 42.1836 8.78143 42.1545 8.79371 42.1265L8.88343 41.8809C8.96224 41.6681 9.07742 41.359 9.21199 40.9759C9.34657 40.5927 9.49813 40.1343 9.62907 39.6148C9.77629 39.052 9.86604 38.4764 9.89701 37.8965C9.92229 37.3177 9.8602 36.7384 9.71272 36.177C9.59373 35.7186 9.40364 35.2803 9.14895 34.8771C8.97715 34.6058 8.77061 34.3566 8.53425 34.1355C8.45423 34.0532 8.38027 34.0015 8.33663 33.9604C8.31169 33.9413 8.28856 33.92 8.26752 33.8969C8.29428 33.9131 8.3198 33.9312 8.3439 33.951C8.38997 33.9898 8.46514 34.0391 8.55001 34.119C8.79319 34.3378 9.00594 34.5863 9.1829 34.8583C9.44492 35.2627 9.64082 35.704 9.76365 36.1665C9.91517 36.7324 9.97892 37.3171 9.95278 37.9012C9.9221 38.4834 9.8307 39.0611 9.67999 39.6254C9.54541 40.1461 9.38901 40.6056 9.24958 40.9876C9.11015 41.3696 8.98891 41.6775 8.90404 41.8926C8.8616 41.9949 8.82887 42.076 8.80462 42.1359C8.79348 42.1626 8.78052 42.1885 8.76582 42.2135Z" fill="#E0E0E0"/>
<path d="M7.60426 33.7746C7.59931 33.8034 7.5916 33.8318 7.58122 33.8592L7.50242 34.1013C7.46726 34.2048 7.42604 34.3364 7.38118 34.4833C7.33632 34.6302 7.27933 34.8018 7.2272 34.9911C7.11444 35.3683 6.99684 35.8208 6.87802 36.3262C6.7592 36.8316 6.6513 37.3922 6.55915 37.9846C6.46701 38.577 6.41124 39.1446 6.37486 39.6618C6.36153 39.9203 6.34334 40.166 6.34092 40.3975C6.34092 40.5151 6.34092 40.6232 6.33364 40.7301C6.32637 40.8371 6.33364 40.9405 6.33364 41.0381C6.33364 41.2344 6.34213 41.4118 6.34698 41.567C6.35183 41.7221 6.3591 41.8573 6.36759 41.9666C6.37608 42.0759 6.37971 42.157 6.38335 42.2193C6.38602 42.2486 6.38602 42.2781 6.38335 42.3074C6.37725 42.2787 6.3732 42.2497 6.37123 42.2204C6.36395 42.1582 6.35547 42.0735 6.34455 41.9689C6.33364 41.8643 6.32152 41.7245 6.31424 41.5693C6.30697 41.4142 6.29363 41.2355 6.29242 41.0392C6.29242 40.9405 6.29242 40.8383 6.29242 40.7301C6.29242 40.622 6.29242 40.5115 6.29242 40.3963C6.29242 40.1613 6.30939 39.918 6.32152 39.6582C6.35547 39.1399 6.41245 38.5699 6.50217 37.9764C6.59189 37.3828 6.70828 36.8222 6.82589 36.3156C6.94349 35.8091 7.06837 35.3566 7.18961 34.9805C7.24538 34.7912 7.30237 34.622 7.35208 34.4739C7.40179 34.3258 7.44422 34.1977 7.48302 34.0943C7.52182 33.9909 7.5497 33.9156 7.57153 33.8592C7.58012 33.8302 7.59107 33.8019 7.60426 33.7746Z" fill="#E0E0E0"/>
<path d="M2.51815 38.4136C2.39078 38.5004 2.25271 38.5715 2.10714 38.6251C1.96964 38.6958 1.82393 38.7502 1.6731 38.7873C1.80066 38.7008 1.9387 38.6297 2.08411 38.5758C2.2217 38.5053 2.36739 38.4509 2.51815 38.4136Z" fill="#E0E0E0"/>
<path d="M2.70858 36.74C2.55033 36.6826 2.39908 36.6085 2.25756 36.519C2.10685 36.4455 1.9653 36.3556 1.83563 36.251C1.99388 36.3084 2.14513 36.3825 2.28665 36.472C2.43736 36.5455 2.57891 36.6354 2.70858 36.74Z" fill="#E0E0E0"/>
<path d="M3.80574 35.3578C3.72341 35.2529 3.65649 35.1374 3.6069 35.0146C3.54004 34.9002 3.49024 34.7771 3.45898 34.6491C3.54115 34.7537 3.60806 34.8688 3.65782 34.9911C3.72397 35.1063 3.77373 35.2297 3.80574 35.3578Z" fill="#E0E0E0"/>
<path d="M5.3116 34.0521C5.22634 33.9855 5.15266 33.9062 5.09337 33.817C5.02101 33.7371 4.96283 33.6462 4.9212 33.5479C5.00712 33.6137 5.08091 33.6932 5.13944 33.7829C5.21258 33.8622 5.27085 33.9533 5.3116 34.0521Z" fill="#E0E0E0"/>
<path d="M3.19959 40.4587C3.07028 40.5574 2.92998 40.6418 2.78131 40.7102C2.64082 40.7946 2.49068 40.8628 2.33392 40.9135C2.46376 40.8143 2.60492 40.73 2.75463 40.662C2.89422 40.5776 3.04357 40.5093 3.19959 40.4587Z" fill="#E0E0E0"/>
<path d="M4.99396 39.4409C4.85863 39.3977 4.72949 39.3381 4.60963 39.2634C4.48121 39.2035 4.36138 39.1276 4.25317 39.0377C4.38876 39.0803 4.51798 39.14 4.63751 39.2152C4.76622 39.2746 4.88611 39.3505 4.99396 39.4409Z" fill="#E0E0E0"/>
<path d="M5.49349 37.1137C5.384 37.2007 5.25854 37.2669 5.1237 37.3088C4.99635 37.3667 4.85907 37.4014 4.71875 37.4111C4.84191 37.3491 4.97053 37.298 5.10309 37.2583C5.22893 37.1998 5.3595 37.1515 5.49349 37.1137Z" fill="#E0E0E0"/>
<path d="M6.06454 35.3601C5.98989 35.2787 5.93629 35.1812 5.90813 35.0757C5.86239 34.9765 5.84241 34.8679 5.84994 34.7595C5.8979 34.8551 5.93568 34.9551 5.96269 35.0581C6.00716 35.1551 6.04129 35.2563 6.06454 35.3601Z" fill="#E0E0E0"/>
<path d="M4.79028 41.7234C4.8267 41.5868 4.88088 41.4553 4.95154 41.332C5.00629 41.2013 5.07756 41.0778 5.16371 40.9641C5.12862 41.1011 5.07436 41.2328 5.00246 41.3555C4.94897 41.4867 4.87762 41.6105 4.79028 41.7234Z" fill="#E0E0E0"/>
<path d="M7.82013 41.0992C7.68382 41.0202 7.56446 40.9164 7.46853 40.7937C7.35932 40.683 7.27254 40.5534 7.21271 40.4117C7.3189 40.524 7.41887 40.6417 7.51218 40.7643C7.62061 40.8708 7.72339 40.9826 7.82013 41.0992Z" fill="#E0E0E0"/>
<path d="M8.87018 38.5382C8.74076 38.641 8.60008 38.7297 8.45068 38.8027C8.31055 38.891 8.16044 38.9636 8.0033 39.0189C8.13246 38.9158 8.27318 38.8271 8.42279 38.7545C8.56259 38.6655 8.71277 38.5929 8.87018 38.5382Z" fill="#E0E0E0"/>
<path d="M8.16321 36.9621C8.25747 36.8384 8.36654 36.726 8.48814 36.6272C8.59706 36.5154 8.71914 36.4164 8.85186 36.3322C8.75754 36.4558 8.64848 36.5683 8.52693 36.6671C8.41801 36.7789 8.29593 36.8779 8.16321 36.9621Z" fill="#E0E0E0"/>
<path d="M8.19469 35.2908C8.07423 35.2306 7.96286 35.1547 7.8637 35.0652C7.75281 34.9895 7.65325 34.8993 7.56787 34.7972C7.68851 34.8571 7.79991 34.933 7.89886 35.0228C8.00976 35.0985 8.10931 35.1887 8.19469 35.2908Z" fill="#E0E0E0"/>
<path d="M10.1977 34.1848C10.0997 34.2773 9.98917 34.3564 9.8691 34.4199C9.75789 34.5011 9.63545 34.5668 9.50537 34.615C9.60315 34.5206 9.71368 34.4396 9.83394 34.374C9.94563 34.2951 10.068 34.2314 10.1977 34.1848Z" fill="#E0E0E0"/>
<path d="M10.97 35.7163C10.8588 35.7516 10.7425 35.7691 10.6256 35.768C10.5108 35.7861 10.3937 35.7861 10.2789 35.768C10.3897 35.7333 10.5055 35.7158 10.622 35.7163C10.7373 35.699 10.8547 35.699 10.97 35.7163Z" fill="#E0E0E0"/>
<path d="M11.4731 37.5286C11.3272 37.5412 11.1802 37.5364 11.0354 37.5145C10.8887 37.51 10.7432 37.4871 10.6026 37.4463C10.7485 37.4337 10.8955 37.4385 11.0403 37.4604C11.187 37.4648 11.3325 37.4877 11.4731 37.5286Z" fill="#E0E0E0"/>
<path d="M11.2233 39.864C11.0769 39.7602 10.942 39.6421 10.8208 39.5114C10.6862 39.3919 10.5643 39.2596 10.457 39.1165C10.6032 39.2205 10.738 39.3386 10.8596 39.4691C10.9943 39.5883 11.1162 39.7207 11.2233 39.864Z" fill="#E0E0E0"/>
<path d="M10.5662 41.6634C10.2673 41.4375 10.0217 41.1522 9.84607 40.8266C9.85941 40.8171 10.0049 41.017 10.2098 41.2473C10.4147 41.4777 10.5772 41.6575 10.5662 41.6634Z" fill="#E0E0E0"/>
<path d="M11.4149 42.1429H1.81372V43.7931H11.4149V42.1429Z" fill="#EBEBEB"/>
<path d="M2.60181 43.3688L3.76937 48.2992H9.492L10.7687 43.3688H2.60181Z" fill="#EBEBEB"/>
<path d="M11.4101 43.7954C11.4101 43.8131 9.24474 43.8283 6.57377 43.8283C3.9028 43.8283 1.73621 43.8131 1.73621 43.7954C1.73621 43.7778 3.90159 43.7625 6.57377 43.7625C9.24595 43.7625 11.4101 43.7731 11.4101 43.7954Z" fill="#E0E0E0"/>
<path d="M37.544 22.2107C37.4712 21.1047 36.9911 20.0493 36.3182 19.1549C35.9799 18.7035 35.581 18.2651 35.4598 17.7198C35.2998 16.9934 35.655 16.1601 35.2452 15.5314C34.9579 15.0883 34.3735 14.9049 34.0461 14.4888C33.6933 14.0422 33.7018 13.4252 33.4933 12.901C33.2847 12.3768 32.5815 11.9255 32.1511 12.3039C32.0687 11.3155 32.2335 10.7607 31.3642 10.2401C30.4949 9.7194 28.7806 9.97092 28.4472 10.9076C27.7076 10.3082 26.3557 9.73233 25.5058 10.1719C24.982 10.4446 24.5807 10.8912 24.0933 11.2226C23.338 11.7351 22.4153 11.9478 21.5703 12.3086C20.7252 12.6694 19.8899 13.2677 19.6935 14.1421C19.5492 14.7874 19.782 15.4655 19.6595 16.1143C19.5552 16.6608 19.2109 17.1298 18.9466 17.6222C18.7247 18.0349 18.5553 18.4722 18.4422 18.9245C18.2216 19.806 18.344 20.9425 19.1927 21.3245C18.8866 21.4092 18.621 21.5956 18.4425 21.8511C18.264 22.1065 18.1839 22.4148 18.2163 22.7218C18.2487 23.0287 18.3915 23.3149 18.6197 23.53C18.8479 23.7452 19.1469 23.8756 19.4643 23.8984L18.0349 26.4101C17.9027 26.6452 17.7657 26.899 17.8106 27.1611C17.8736 27.5267 18.2822 27.757 18.6593 27.7605C19.0363 27.7641 19.4001 27.5984 19.742 27.4362C19.8625 27.6542 20.0432 27.8355 20.2638 27.9597C20.4845 28.0839 20.7365 28.1462 20.9915 28.1397C21.2466 28.1331 21.4948 28.0579 21.7084 27.9224C21.9219 27.787 22.0924 27.5966 22.2007 27.3727C22.345 27.6306 22.558 27.8461 22.8176 27.9969C23.0772 28.1476 23.3739 28.2279 23.6765 28.2295C23.9791 28.2311 24.2765 28.1538 24.5378 28.0057C24.799 27.8577 25.0144 27.6443 25.1615 27.388L30.9666 26.0951L35.3434 25.7037C35.9787 25.6461 36.6868 25.5509 37.076 25.062C37.3281 24.7435 37.3863 24.3227 37.4397 23.9243C37.5281 23.3574 37.563 22.7838 37.544 22.2107Z" fill="#263238"/>
<path d="M27.4081 37.779L24.605 30.5696L26.0599 29.1592L26.0029 28.7055C25.8441 27.5713 25.7859 27.1059 25.7859 27.1165C25.7859 27.1271 23.2641 27.0142 22.3547 23.9502C21.9025 22.4223 21.6588 19.8671 21.5291 17.768C21.4078 15.8781 22.402 13.4193 24.354 13.3923L30.5604 14.148C30.8465 14.143 31.1241 14.2423 31.3383 14.4262C31.5525 14.6101 31.6876 14.8652 31.7171 15.1411L32.7925 27.7888L33.6157 28.4716L34.6075 37.2313L27.4081 37.779Z" fill="#B47266"/>
<path d="M22.9562 20.2056C22.9693 20.3095 23.0235 20.4043 23.1075 20.4701C23.1914 20.5359 23.2984 20.5675 23.406 20.5582C23.4591 20.5561 23.5112 20.5437 23.5593 20.5218C23.6074 20.4998 23.6504 20.4688 23.6859 20.4304C23.7214 20.3921 23.7486 20.3472 23.7659 20.2985C23.7832 20.2498 23.7903 20.1982 23.7867 20.1468C23.7733 20.0431 23.7189 19.9484 23.6351 19.8826C23.5512 19.8169 23.4443 19.7852 23.3369 19.7942C23.2838 19.7965 23.2318 19.809 23.1838 19.8309C23.1357 19.8529 23.0928 19.884 23.0573 19.9223C23.0218 19.9606 22.9946 20.0054 22.9773 20.0541C22.9599 20.1027 22.9527 20.1542 22.9562 20.2056Z" fill="#263238"/>
<path d="M27.0905 19.8647C27.1036 19.9686 27.1578 20.0635 27.2418 20.1293C27.3257 20.1951 27.4328 20.2266 27.5403 20.2173C27.5934 20.2151 27.6455 20.2026 27.6935 20.1805C27.7416 20.1584 27.7845 20.1272 27.8199 20.0888C27.8553 20.0503 27.8824 20.0053 27.8995 19.9566C27.9167 19.9078 27.9236 19.8562 27.9198 19.8048C27.9073 19.7009 27.8533 19.6059 27.7695 19.54C27.6857 19.4741 27.5786 19.4426 27.4712 19.4522C27.418 19.4543 27.3657 19.4667 27.3176 19.4887C27.2694 19.5107 27.2263 19.5419 27.1908 19.5804C27.1553 19.6188 27.1281 19.6638 27.1109 19.7127C27.0936 19.7615 27.0867 19.8132 27.0905 19.8647Z" fill="#263238"/>
<path d="M22.2722 19.2324C22.3304 19.2783 22.6141 19.0162 23.0603 18.9645C23.5064 18.9128 23.858 19.0891 23.9005 19.0303C23.9211 19.0044 23.8568 18.9128 23.7016 18.8328C23.4925 18.7264 23.2545 18.6853 23.0203 18.7153C22.7887 18.7417 22.5721 18.8394 22.4019 18.9939C22.2783 19.1126 22.2443 19.2089 22.2722 19.2324Z" fill="#263238"/>
<path d="M26.6939 18.8798C26.7521 18.9257 27.0371 18.6636 27.482 18.6119C27.927 18.5602 28.2798 18.7365 28.3222 18.6777C28.3428 18.6518 28.2786 18.5602 28.1234 18.4802C27.9142 18.3738 27.6762 18.3327 27.442 18.3627C27.2107 18.3898 26.9942 18.4873 26.8237 18.6413C26.7 18.76 26.6661 18.8563 26.6939 18.8798Z" fill="#263238"/>
<path d="M25.4537 21.9721C25.4537 21.9474 25.1712 21.9333 24.7153 21.9321C24.5941 21.9321 24.4898 21.9251 24.4607 21.8522C24.4373 21.7393 24.4495 21.6221 24.4959 21.5161L24.725 20.6381C25.0402 19.3876 25.2524 18.3662 25.2003 18.3533C25.1481 18.3403 24.8511 19.3452 24.5359 20.5958C24.4619 20.9037 24.3904 21.1964 24.3213 21.4773C24.2946 21.6077 24.2388 21.7582 24.3213 21.9168C24.3428 21.9536 24.3726 21.9853 24.4085 22.0093C24.4444 22.0333 24.4855 22.0491 24.5286 22.0555C24.5938 22.0637 24.6598 22.0637 24.725 22.0555C25.17 22.0297 25.4537 21.9968 25.4537 21.9721Z" fill="#263238"/>
<path d="M25.7896 27.1129C27.3108 26.9539 28.7567 26.3888 29.9663 25.4804C29.9663 25.4804 29.1577 27.7887 25.8926 27.8816L25.7896 27.1129Z" fill="#89544C"/>
<path d="M25.604 23.0804C25.8465 22.8136 26.5169 22.3893 26.7376 22.3364C26.9583 22.2836 26.9449 22.5456 27.1013 22.7313C27.1806 22.8328 27.2297 22.9534 27.2431 23.0801C27.2566 23.2067 27.234 23.3344 27.1777 23.4495C27.0407 23.7116 26.7522 23.9384 26.4891 23.9102C26.226 23.882 25.9786 23.6269 25.7616 23.48C25.6963 23.4436 25.6407 23.3929 25.5991 23.3319C25.5779 23.298 25.5659 23.2594 25.5642 23.2197C25.5625 23.1801 25.5712 23.1406 25.5894 23.1051" fill="#89544C"/>
<path d="M26.2187 17.2908C26.2769 17.4025 26.7145 17.2908 27.2444 17.2908C27.7742 17.2908 28.2143 17.3778 28.2689 17.2638C28.2943 17.2097 28.207 17.1086 28.0264 17.0158C27.7827 16.9007 27.5141 16.8439 27.2432 16.8501C26.9719 16.851 26.7047 16.9142 26.4636 17.0346C26.2769 17.1333 26.192 17.2367 26.2187 17.2908Z" fill="#263238"/>
<path d="M22.2106 17.7209C22.3015 17.8091 22.595 17.6716 22.9635 17.6222C23.3321 17.5728 23.6522 17.6069 23.7104 17.4964C23.7358 17.4424 23.674 17.3495 23.5261 17.2731C23.3282 17.1833 23.1072 17.1526 22.8912 17.1851C22.6753 17.2175 22.4742 17.3116 22.3137 17.4553C22.1997 17.5717 22.1706 17.681 22.2106 17.7209Z" fill="#263238"/>
<path d="M31.3643 19.0479C31.4055 19.022 33.0823 18.2628 33.3041 20.0081C33.526 21.7535 31.6662 21.6054 31.6565 21.5595C31.6468 21.5137 31.3643 19.0479 31.3643 19.0479Z" fill="#B47266"/>
<path d="M32.122 20.8309C32.1293 20.8238 32.156 20.8485 32.2117 20.865C32.2901 20.8875 32.3745 20.8795 32.4469 20.8426C32.6288 20.7521 32.7525 20.4407 32.721 20.1257C32.7074 19.9753 32.6589 19.8298 32.5791 19.7002C32.5556 19.6477 32.5192 19.6015 32.4732 19.5657C32.4271 19.5299 32.3728 19.5054 32.3148 19.4945C32.2774 19.4898 32.2395 19.4978 32.2075 19.5171C32.1754 19.5364 32.1513 19.5658 32.139 19.6003C32.122 19.652 32.139 19.6849 32.1281 19.6896C32.1172 19.6943 32.0856 19.665 32.0917 19.5909C32.0955 19.5464 32.1157 19.5046 32.1487 19.4734C32.1707 19.4523 32.1969 19.4357 32.2256 19.4246C32.2543 19.4135 32.2851 19.4081 32.316 19.4087C32.3925 19.4138 32.4663 19.4382 32.5301 19.4794C32.5939 19.5206 32.6455 19.5773 32.6797 19.6438C32.7753 19.7846 32.8336 19.9461 32.8495 20.1139C32.8822 20.4665 32.7379 20.8191 32.4857 20.9214C32.439 20.9407 32.3883 20.9496 32.3375 20.9474C32.2867 20.9452 32.2371 20.9318 32.1923 20.9084C32.1329 20.872 32.122 20.8344 32.122 20.8309Z" fill="#89544C"/>
<path d="M32.961 21.3316C32.961 21.3386 33.0107 21.3469 33.0883 21.3892C33.1962 21.451 33.2811 21.5444 33.3308 21.656C33.3696 21.7354 33.386 21.8233 33.3783 21.9108C33.3706 21.9984 33.3392 22.0824 33.2871 22.1543C33.2236 22.2422 33.1365 22.3116 33.0352 22.3549C32.9339 22.3982 32.8222 22.4138 32.7124 22.3999C32.6128 22.3811 32.5191 22.34 32.4387 22.2799C32.3583 22.2197 32.2935 22.1422 32.2495 22.0536C32.2055 21.9649 32.1834 21.8675 32.1851 21.769C32.1867 21.6706 32.212 21.574 32.259 21.4867C32.3165 21.3772 32.3995 21.2823 32.5015 21.2093C32.5438 21.1865 32.5844 21.1605 32.6227 21.1318C32.5745 21.1392 32.5285 21.1569 32.4881 21.1835C32.3734 21.2512 32.2789 21.3468 32.2141 21.4609C32.1634 21.5459 32.1325 21.6407 32.1235 21.7385C32.1145 21.8364 32.1276 21.935 32.162 22.0274C32.2041 22.1419 32.2764 22.2439 32.3717 22.323C32.467 22.4022 32.5819 22.4559 32.7052 22.4787C32.8301 22.495 32.9573 22.4771 33.0724 22.4271C33.1874 22.377 33.2857 22.2968 33.3562 22.1954C33.4187 22.1071 33.4529 22.0028 33.4544 21.8957C33.4543 21.8038 33.4318 21.7133 33.389 21.6313C33.3302 21.5123 33.2302 21.4171 33.1065 21.3621C33.0621 21.3384 33.0115 21.3278 32.961 21.3316Z" fill="#455A64"/>
<path d="M26.3023 23.8585C26.3023 23.8526 26.3217 23.8585 26.346 23.8667C26.3777 23.884 26.411 23.8986 26.4454 23.9102C26.5092 23.9207 26.5745 23.9181 26.6372 23.9025C26.6999 23.8869 26.7584 23.8587 26.8091 23.8197C26.8891 23.779 26.9616 23.7257 27.0237 23.6622C27.0948 23.5908 27.1534 23.5086 27.1971 23.4189C27.2413 23.3255 27.2536 23.221 27.2322 23.1204C27.2023 23.0086 27.1459 22.9051 27.0673 22.8183C26.9073 22.6244 26.7036 22.4598 26.5145 22.4739C26.4166 22.4877 26.3232 22.5231 26.2417 22.5774C26.1556 22.6302 26.0732 22.6831 25.9992 22.7313C25.707 22.9229 25.5918 23.1039 25.5676 23.0921C25.5433 23.0804 25.5676 23.031 25.6246 22.9441C25.7041 22.8247 25.8028 22.7184 25.9168 22.6291C25.9871 22.5715 26.0647 22.5115 26.1592 22.4516C26.2585 22.3748 26.3768 22.3246 26.5024 22.3059C26.6486 22.2973 26.7932 22.3389 26.9109 22.4234C27.0275 22.5029 27.1313 22.5988 27.2189 22.7078C27.3159 22.8169 27.3841 22.9472 27.4177 23.0874C27.4443 23.2251 27.4238 23.3675 27.3595 23.4929C27.3314 23.5486 27.2968 23.6011 27.2565 23.6492C27.219 23.6933 27.1785 23.7349 27.1352 23.7738C27.0578 23.8439 26.9678 23.8996 26.8697 23.9384C26.7934 23.9755 26.7116 24.0009 26.6272 24.0136C26.5715 24.0225 26.5144 24.0163 26.4621 23.9955C26.4099 23.9748 26.3646 23.9403 26.3314 23.8961C26.3108 23.8761 26.3023 23.8632 26.3023 23.8585Z" fill="#263238"/>
<path d="M32.9222 24.4861C32.9306 24.4846 32.9393 24.4846 32.9477 24.4861L33.018 24.4931C33.1106 24.499 33.2034 24.497 33.2956 24.4873C33.6449 24.4471 33.9742 24.3081 34.2425 24.0877C34.6475 23.7381 34.9312 23.276 35.0549 22.7642C35.1421 22.4558 35.1829 22.1367 35.1761 21.8169C35.1709 21.4645 35.0746 21.1191 34.896 20.812L34.8888 20.8003L34.8948 20.7874C35.0214 20.5217 35.0917 20.234 35.1013 19.9415C35.111 19.649 35.0599 19.3576 34.9511 19.0846C34.8423 18.8116 34.678 18.5626 34.468 18.3524C34.2579 18.1421 34.0065 17.975 33.7285 17.8608L33.6812 17.8408L33.7212 17.8079C33.8026 17.744 33.8687 17.6638 33.9152 17.5729C34.025 17.3436 34.0393 17.0822 33.9552 16.843C33.8707 16.6088 33.7393 16.3931 33.5684 16.2083C33.4116 16.0215 33.2205 15.8645 33.0047 15.7452C32.8005 15.6252 32.5576 15.5833 32.3233 15.6277L32.253 15.6442L32.2905 15.5842C32.4064 15.4027 32.4636 15.1917 32.4549 14.9785C32.4462 14.7652 32.3719 14.5593 32.2416 14.3872C32.1113 14.2152 31.9309 14.0848 31.7236 14.0128C31.5162 13.9409 31.2915 13.9306 31.0781 13.9834L31.0369 13.994L31.049 13.9541C31.1128 13.7369 31.1219 13.508 31.0755 13.2867C31.0291 13.0654 30.9285 12.8581 30.7823 12.6824C30.7179 12.6093 30.6442 12.5445 30.5628 12.4896C30.4879 12.44 30.4063 12.4005 30.3204 12.3721C30.1674 12.3209 30.005 12.3021 29.8439 12.3168C29.7143 12.3282 29.5876 12.3608 29.4692 12.4132C29.3836 12.4529 29.304 12.5039 29.2328 12.5648C29.1762 12.6184 29.1239 12.6762 29.0764 12.7376C29.0856 12.7204 29.0961 12.7039 29.1079 12.6882C29.1405 12.6395 29.1792 12.5949 29.2231 12.5554C29.2952 12.4903 29.3769 12.436 29.4656 12.3944C29.5851 12.3392 29.7134 12.3042 29.8451 12.291C30.0106 12.2728 30.1782 12.29 30.3361 12.3415C30.4262 12.3692 30.5118 12.4087 30.5907 12.459C30.6753 12.5154 30.7522 12.5817 30.8199 12.6565C30.9719 12.8367 31.0771 13.0497 31.1265 13.2776C31.1758 13.5055 31.168 13.7415 31.1036 13.9658L31.0733 13.9364C31.2967 13.882 31.5317 13.8933 31.7484 13.9689C31.9652 14.0445 32.1537 14.1811 32.2901 14.361C32.4264 14.541 32.5044 14.7563 32.5139 14.9794C32.5235 15.2025 32.4643 15.4233 32.3439 15.6136L32.3112 15.5701C32.5603 15.5211 32.8193 15.5629 33.0386 15.6876C33.2614 15.8104 33.4587 15.9722 33.6206 16.1648C33.797 16.3553 33.9325 16.5778 34.0195 16.8195C34.1096 17.0737 34.0939 17.352 33.9758 17.5952C33.9264 17.6949 33.8547 17.7828 33.7661 17.8526L33.7588 17.8009C34.0446 17.9176 34.3032 18.0891 34.519 18.305C34.7348 18.5209 34.9034 18.7769 35.0147 19.0575C35.126 19.3382 35.1777 19.6377 35.1667 19.9382C35.1557 20.2387 35.0822 20.5339 34.9506 20.8062V20.7815C35.1339 21.0961 35.2316 21.4509 35.2343 21.8122C35.2398 22.1367 35.1961 22.4603 35.1046 22.7725C34.9767 23.2921 34.6841 23.7598 34.268 24.11C33.9926 24.332 33.6546 24.4683 33.2981 24.5014C33.2049 24.5101 33.1111 24.5101 33.018 24.5014L32.9465 24.4896L32.9222 24.4861Z" fill="#455A64"/>
<path d="M32.3221 18.204C32.2748 17.0205 32.2226 15.8122 31.785 14.7063C31.7011 14.45 31.5513 14.2186 31.3497 14.034C31.1695 13.9034 30.9629 13.8109 30.7435 13.7625C30.4052 13.6696 30.3131 13.4475 29.9627 13.4228C28.629 12.3239 26.7146 11.9478 25.0245 12.3897C23.3344 12.8316 21.8952 14.0598 21.1653 15.603C20.447 17.1737 20.3947 18.9552 21.0199 20.5629C20.9071 19.3053 21.7291 18.1264 22.7366 17.3261C23.7442 16.5257 24.9493 15.9944 26.0102 15.2692C26.0007 15.4443 25.9525 15.6152 25.8688 15.7706C25.7852 15.9259 25.668 16.062 25.5252 16.1695C26.3666 15.9509 27.2226 15.7276 27.9804 15.321C28.1512 15.2307 28.316 15.1302 28.4738 15.0201C28.4908 15.2121 28.5455 15.3992 28.6351 15.5713C28.92 16.1131 29.5311 16.4023 29.9966 16.8101C30.0572 16.8561 30.1058 16.9153 30.1385 16.9829C30.1677 17.0945 30.1596 17.2121 30.1155 17.319C29.9964 17.6707 29.9551 18.0427 29.9942 18.4109C30.0512 18.7752 30.2622 19.1337 30.6004 19.2924C30.4743 19.4847 30.4133 19.7104 30.4259 19.938C30.4385 20.1655 30.5241 20.3836 30.6707 20.5617C30.7102 20.6161 30.7681 20.6552 30.8344 20.6722C30.9447 20.6875 31.0369 20.5946 31.0999 20.5053C31.286 20.2452 31.4137 19.9501 31.4746 19.6391C31.4838 19.5066 31.5253 19.3781 31.5958 19.2642C31.7171 19.1149 31.9426 19.0843 32.0917 18.9586C32.3269 18.7811 32.333 18.4732 32.3221 18.204Z" fill="#263238"/>
<path d="M22.8396 15.4691C22.8451 15.4391 22.8532 15.4096 22.8638 15.3809C22.8951 15.2984 22.9358 15.2196 22.9851 15.1458C23.1621 14.8701 23.4409 14.67 23.7647 14.5864L23.7465 14.6075C23.7653 14.4376 23.8015 14.2699 23.8544 14.1069C23.9161 13.9244 23.9974 13.7487 24.0969 13.5827C24.3278 13.2095 24.6506 12.8977 25.0365 12.6753C25.2092 12.5734 25.3951 12.4944 25.5894 12.4403C25.6855 12.4163 25.7853 12.4091 25.884 12.4191C25.9838 12.4292 26.076 12.4753 26.1422 12.5484H26.095C26.3133 12.2751 26.5938 12.0543 26.9146 11.9031C27.2007 11.7656 27.4989 11.708 27.7305 11.775C27.821 11.799 27.9044 11.8435 27.9738 11.9048C28.0431 11.9661 28.0964 12.0424 28.1294 12.1276C28.1457 12.1729 28.1535 12.2207 28.1524 12.2687C28.1531 12.285 28.1506 12.3014 28.1452 12.3168C28.1449 12.2546 28.133 12.1928 28.11 12.1347C28.0748 12.0559 28.0214 11.986 27.9539 11.9303C27.8865 11.8747 27.8067 11.8348 27.7208 11.8138C27.5002 11.755 27.2152 11.8138 26.9376 11.9513C26.6263 12.1023 26.3544 12.3197 26.1422 12.5872L26.1192 12.6154L26.0962 12.5883C25.987 12.4614 25.7821 12.4579 25.6039 12.5014C25.4159 12.5535 25.2357 12.6294 25.068 12.727C24.6916 12.9451 24.3757 13.2489 24.1478 13.6121C24.0487 13.7738 23.9674 13.9451 23.9053 14.1233C23.8516 14.2824 23.8138 14.4461 23.7926 14.6122V14.6252H23.7768C23.4617 14.7028 23.1875 14.8908 23.0069 15.1529C22.9418 15.2534 22.8858 15.3592 22.8396 15.4691Z" fill="#455A64"/>
<path d="M20.6513 25.9823L20.621 26.0269L20.524 26.1598L20.5168 26.1692V26.1574C20.3876 25.7782 20.3225 25.3814 20.324 24.9821C20.3239 24.2733 20.5225 23.5778 20.8987 22.9699L20.9096 23.0028C20.6722 22.8941 20.4711 22.7228 20.3294 22.5085C20.1877 22.2942 20.111 22.0456 20.1082 21.7911C20.1046 21.6526 20.126 21.5146 20.1712 21.3833C20.1966 21.3208 20.216 21.2563 20.2294 21.1905C20.2336 21.1594 20.2308 21.1278 20.2214 21.0978C20.212 21.0678 20.1962 21.0401 20.1749 21.0166C20.1265 20.9654 20.0742 20.9178 20.0184 20.8743C19.9621 20.826 19.9087 20.7746 19.8584 20.7204C19.7566 20.6096 19.6672 20.4886 19.5917 20.3595C19.3911 20.0129 19.3018 19.6162 19.335 19.2201C19.3683 18.824 19.5227 18.4465 19.7784 18.1358C19.8312 18.0708 19.8883 18.0091 19.9493 17.9513C20.01 17.8949 20.0706 17.8397 20.0706 17.7703C20.0579 17.6924 20.0355 17.6162 20.0039 17.5435C19.9754 17.464 19.9523 17.3827 19.9348 17.3002C19.8976 17.1338 19.8797 16.9639 19.8814 16.7936C19.8806 16.4344 19.9605 16.0793 20.1154 15.7529C20.2703 15.4266 20.4966 15.1368 20.7786 14.9037C20.9144 14.7921 21.0672 14.7039 21.1339 14.5511C21.1664 14.4753 21.1912 14.3966 21.2078 14.3161C21.2297 14.235 21.2575 14.155 21.2818 14.0751C21.3945 13.7673 21.567 13.4833 21.7898 13.2383C22.201 12.78 22.7538 12.4626 23.3659 12.3333C23.6417 12.2801 23.924 12.2666 24.2037 12.2933C24.2659 12.2985 24.3284 12.2871 24.3844 12.2604C24.4354 12.2261 24.4825 12.1867 24.525 12.1429L24.6657 12.0148L24.8124 11.8973C25.0003 11.7602 25.2037 11.6443 25.4186 11.5517C25.6111 11.471 25.8113 11.4088 26.0163 11.366C26.3441 11.2953 26.6816 11.2775 27.0153 11.3131C27.2269 11.3372 27.435 11.3837 27.6361 11.4518L27.7889 11.5106L27.841 11.5329L27.7864 11.5164L27.6325 11.4636C27.4313 11.4047 27.2246 11.3653 27.0153 11.346C26.6843 11.3152 26.3502 11.3362 26.026 11.4083C25.8243 11.4528 25.6274 11.5158 25.438 11.5964C25.2265 11.6893 25.0265 11.8048 24.8415 11.9407L24.6984 12.0583L24.5602 12.1852C24.5155 12.2335 24.465 12.2765 24.4098 12.3133C24.3467 12.3449 24.2758 12.3587 24.2049 12.3533C24.1358 12.3533 24.0692 12.3439 24.0013 12.3439C23.9334 12.3398 23.8654 12.3398 23.7976 12.3439C23.657 12.3508 23.5172 12.3681 23.3793 12.3956C22.7805 12.5257 22.2404 12.8383 21.8383 13.2877C21.6205 13.5286 21.4526 13.8079 21.3436 14.1104C21.3206 14.1879 21.2927 14.2655 21.2721 14.3454C21.2542 14.4291 21.2282 14.511 21.1945 14.5899C21.1181 14.7592 20.952 14.8532 20.8223 14.9613C20.548 15.189 20.3279 15.4717 20.1772 15.7899C20.0265 16.1081 19.9487 16.4541 19.9493 16.8042C19.9477 16.9701 19.9652 17.1357 20.0015 17.2978C20.0188 17.3775 20.0415 17.4561 20.0694 17.5329C20.1041 17.6121 20.1274 17.6955 20.1385 17.7809C20.1307 17.8253 20.114 17.8678 20.0892 17.9059C20.0644 17.944 20.0322 17.977 19.9942 18.003C19.9354 18.0595 19.8799 18.1191 19.8281 18.1817C19.5331 18.5413 19.3788 18.9904 19.3926 19.4497C19.4063 19.9089 19.5872 20.3486 19.9033 20.691C19.9515 20.744 20.0029 20.7943 20.0572 20.8414C20.1158 20.8865 20.1701 20.9365 20.2197 20.9907C20.2458 21.02 20.2652 21.0543 20.2767 21.0913C20.2882 21.1284 20.2915 21.1674 20.2864 21.2058C20.2729 21.2754 20.2521 21.3435 20.2246 21.4091C20.1815 21.5345 20.1606 21.666 20.1627 21.7981C20.164 22.044 20.2365 22.2845 20.372 22.4923C20.5075 22.7001 20.7005 22.8668 20.929 22.9735L20.9532 22.984L20.9399 23.0064C20.7318 23.3342 20.5764 23.6909 20.4792 24.0642C20.2961 24.7584 20.3124 25.488 20.5265 26.1739H20.5155L20.6162 26.0446C20.6264 26.0231 20.6382 26.0022 20.6513 25.9823Z" fill="#455A64"/>
<path d="M31.4601 10.4563C31.2699 10.4328 31.0784 10.4198 30.8866 10.4175C30.6809 10.4208 30.4784 10.4682 30.2938 10.5562C30.0679 10.6626 29.8939 10.8502 29.8088 11.0792C29.7954 11.1207 29.7857 11.1631 29.7797 11.2062V11.2344H29.7518C29.5159 11.2255 29.281 11.268 29.0644 11.359C28.8902 11.434 28.7399 11.5529 28.6291 11.7033C28.5545 11.8041 28.5017 11.9184 28.4739 12.0395C28.4557 12.1253 28.4545 12.1746 28.4497 12.1746C28.4448 12.1746 28.4497 12.1629 28.4497 12.1394C28.4486 12.1048 28.4506 12.0702 28.4557 12.0359C28.4757 11.9095 28.5246 11.7891 28.5988 11.6833C28.7098 11.5227 28.8641 11.3947 29.045 11.3131C29.2688 11.2143 29.5133 11.1676 29.7591 11.1768L29.7263 11.2038C29.7323 11.1571 29.7429 11.1111 29.7579 11.0663C29.8459 10.8237 30.0288 10.6245 30.2671 10.5115C30.4606 10.4226 30.6725 10.3776 30.8866 10.3799C31.0288 10.3803 31.1705 10.3945 31.3098 10.4222C31.3611 10.4276 31.4116 10.439 31.4601 10.4563Z" fill="#455A64"/>
<path d="M26.4503 36.5402L35.4707 36.2405L36.3073 48.1817L28.4144 48.2887L26.4503 36.5402Z" fill="#E0E0E0"/>
<path d="M33.4702 27.6712C33.5914 27.522 40.3191 31.9459 40.6235 32.4748C40.9278 33.0037 42.5488 48.2899 42.5488 48.2899H33.7599C33.7599 48.2899 32.9525 35.6998 32.9949 34.5386C33.0373 33.3774 33.4702 27.6712 33.4702 27.6712Z" fill="#FF725E"/>
<path d="M13.1839 48.3568C13.1839 48.3568 12.1921 46.3787 12.3025 45.4185C12.4128 44.4583 13.1839 42.5319 13.1839 42.5319L15.1686 39.1117C15.1686 39.1117 15.5663 36.2616 15.7857 35.7268C16.0052 35.1921 17.1679 31.5768 18.5428 30.727C19.9177 29.8773 24.0981 29.2943 24.0981 29.2943L25.9495 27.9615C25.9495 27.9615 27.7912 33.2328 28.0664 34.6761C28.3416 36.1194 29.885 48.3568 29.885 48.3568H13.1839Z" fill="#FF725E"/>
<path d="M28.6606 39.1623C28.6525 39.1547 28.6456 39.146 28.64 39.1365L28.583 39.0601L28.372 38.7592L27.6058 37.6497C27.2833 37.1796 26.9013 36.6189 26.4758 36.0042L25.8114 35.0287C25.5834 34.6914 25.3361 34.3235 25.2525 33.891C25.2082 33.6312 25.2235 33.3652 25.2973 33.1118C25.3653 32.8713 25.4504 32.6357 25.5519 32.4066L25.5895 32.4454L24.3771 32.8544L24.3431 32.865V32.8297C24.2619 31.806 24.194 30.9433 24.1455 30.331C24.1237 30.0301 24.1067 29.7915 24.0946 29.6258C24.0946 29.547 24.0861 29.4859 24.0837 29.4389C24.0818 29.4174 24.0818 29.3958 24.0837 29.3743C24.0887 29.3951 24.092 29.4164 24.0934 29.4377C24.0934 29.4847 24.1055 29.5459 24.114 29.6246C24.1298 29.7927 24.1516 30.0313 24.1807 30.3298C24.234 30.941 24.3104 31.8037 24.4001 32.8274L24.3625 32.8039L25.575 32.3901L25.638 32.369L25.6138 32.4301C25.5135 32.6565 25.4296 32.8894 25.3628 33.1271C25.2913 33.372 25.2764 33.6293 25.3191 33.8804C25.3992 34.2989 25.6416 34.6585 25.8672 34.9958C26.0927 35.3331 26.3182 35.6611 26.5291 35.9737L27.6482 37.6309L28.3975 38.7521L28.5987 39.0589L28.6497 39.1388C28.6557 39.1517 28.6618 39.1611 28.6606 39.1623Z" fill="#263238"/>
<path d="M22.3197 48.0994C22.3136 48.088 22.3095 48.0757 22.3075 48.063L22.2784 47.9549C22.2542 47.855 22.2202 47.7198 22.1754 47.5364C22.0893 47.1697 21.9656 46.6444 21.8117 45.9968C21.5158 44.691 21.1085 42.8939 20.6574 40.9088L19.5129 35.8173C19.365 35.1686 19.2462 34.642 19.1625 34.2753C19.1229 34.0959 19.0914 33.956 19.0679 33.8557C19.0582 33.8099 19.051 33.7735 19.0449 33.7464C19.043 33.7336 19.043 33.7205 19.0449 33.7076C19.0449 33.7076 19.0449 33.7206 19.0558 33.7441C19.0667 33.7676 19.074 33.8075 19.0849 33.8522C19.1104 33.9521 19.1468 34.0873 19.1916 34.2694C19.2813 34.6326 19.4086 35.158 19.5553 35.8079C19.8609 37.1078 20.2707 38.9073 20.7168 40.8959C21.163 42.8845 21.5655 44.6816 21.8529 45.9874C21.9959 46.6373 22.1136 47.1627 22.1948 47.5317C22.2336 47.7116 22.2651 47.8514 22.2869 47.9513C22.2954 47.9972 22.3027 48.0336 22.3088 48.0618C22.3148 48.09 22.3197 48.0994 22.3197 48.0994Z" fill="#263238"/>
<g opacity="0.3">
<path d="M21.5219 48.1818C22.4134 47.6694 23.4151 47.3637 24.4486 47.2885C25.2428 47.2321 26.0624 47.3108 26.8201 47.0723C27.6688 46.8055 28.3369 46.1755 28.971 45.5643C29.1577 45.4104 29.3044 45.2159 29.399 44.9966C29.4753 44.7722 29.4111 44.4842 29.1941 44.3761C29.0267 44.2926 28.8243 44.3361 28.6424 44.3855C25.9676 45.1024 23.4879 46.3803 21.3788 48.1289" fill="black"/>
</g>
<path d="M19.1721 43.7731C19.1721 43.7731 19.1236 43.7073 19.0399 43.5862C18.9207 43.4173 18.7898 43.2563 18.6483 43.1044C18.1845 42.5972 17.6025 42.2046 16.9507 41.9593C16.2989 41.714 15.5961 41.6231 14.9007 41.694C14.6905 41.7139 14.4819 41.7477 14.2763 41.7951C14.2013 41.8162 14.1253 41.8334 14.0484 41.8468C14.0661 41.8364 14.0853 41.8289 14.1054 41.8244C14.143 41.8115 14.1975 41.7915 14.2703 41.7727C14.4751 41.7167 14.6843 41.6774 14.8959 41.6552C15.5989 41.5717 16.3123 41.6576 16.9728 41.9055C17.6334 42.1534 18.2205 42.5555 18.6823 43.0762C18.8221 43.2321 18.9486 43.3987 19.0606 43.5745C19.1018 43.6368 19.1272 43.692 19.1466 43.7202C19.166 43.7484 19.1745 43.7731 19.1721 43.7731Z" fill="#263238"/>
<path d="M20.1372 43.3089C20.1372 43.3089 20.1251 43.2912 20.1081 43.2548L20.039 43.095C20.0099 43.0256 19.9747 42.941 19.925 42.8458C19.8753 42.7506 19.828 42.6389 19.7577 42.5226L19.6534 42.3381C19.6171 42.2746 19.5734 42.2111 19.5322 42.1441C19.4498 42.0078 19.3455 41.8726 19.2412 41.7281C18.7682 41.1103 18.1851 40.5793 17.5196 40.1602C17.3644 40.0662 17.2189 39.9745 17.0746 39.904C17.0031 39.8664 16.9352 39.8276 16.8673 39.7958L16.6709 39.7065C16.5496 39.6466 16.4284 39.6054 16.3278 39.5655C16.2415 39.5292 16.1533 39.4974 16.0635 39.4703L15.8949 39.4127C15.8748 39.4073 15.8556 39.3989 15.838 39.388C15.8586 39.3901 15.8789 39.3945 15.8986 39.4009L16.0707 39.4468C16.1619 39.4708 16.2518 39.4995 16.3399 39.5326C16.443 39.5714 16.563 39.609 16.6891 39.6677L16.8879 39.7535C16.957 39.7841 17.0261 39.8229 17.0989 39.8581C17.2468 39.9286 17.3935 40.0203 17.5511 40.112C17.8866 40.3229 18.2026 40.5616 18.4956 40.8254C18.7851 41.0924 19.05 41.3834 19.2873 41.6952C19.3928 41.8421 19.4946 41.9796 19.5771 42.1171C19.6183 42.1853 19.6619 42.2499 19.6983 42.3145L19.8001 42.5026C19.868 42.6201 19.9141 42.7377 19.959 42.8317C19.9989 42.9148 20.0342 42.9999 20.0645 43.0867L20.1227 43.2501C20.1296 43.2692 20.1344 43.2888 20.1372 43.3089Z" fill="#263238"/>
<path d="M38.4691 37.6379C38.4707 37.6465 38.4707 37.6552 38.4691 37.6638L38.4521 37.7425C38.4352 37.8154 38.4121 37.9141 38.3818 38.0399C38.32 38.2973 38.229 38.671 38.126 39.1341C37.8465 40.3377 37.687 41.5645 37.6495 42.7976C37.6312 43.4757 37.6811 44.1539 37.7986 44.8227C37.8927 45.3692 38.0434 45.9051 38.2484 46.4223C38.3869 46.7706 38.5527 47.1081 38.7443 47.4319C38.811 47.5494 38.8716 47.6329 38.9068 47.6928L38.9492 47.761C38.9542 47.7688 38.9582 47.777 38.9613 47.7856C38.9613 47.7856 38.9541 47.7798 38.9432 47.7645L38.8959 47.6998C38.8571 47.6411 38.7928 47.5588 38.7237 47.4436C38.5226 47.123 38.3498 46.7864 38.2072 46.4376C37.9936 45.9193 37.8364 45.3808 37.738 44.8309C37.6151 44.1596 37.5615 43.478 37.578 42.7964C37.6148 41.5594 37.7809 40.3292 38.0739 39.1247C38.1818 38.6616 38.28 38.2902 38.3491 38.034C38.3842 37.9094 38.4121 37.8119 38.4315 37.739C38.4412 37.7085 38.4485 37.6838 38.4546 37.6626L38.4691 37.6379Z" fill="#263238"/>
<path d="M37.6192 42.619C37.6162 42.5892 37.6162 42.5593 37.6192 42.5296C37.6256 42.4662 37.6329 42.3815 37.641 42.2758C37.6531 42.1665 37.6628 42.0313 37.6749 41.875C37.6871 41.7187 37.7004 41.54 37.7125 41.3426C37.7635 40.5539 37.7986 39.462 37.7901 38.2562C37.7816 37.0503 37.7319 35.9584 37.6798 35.1698C37.6555 34.7749 37.6301 34.4564 37.6119 34.2354C37.6046 34.1296 37.5986 34.0462 37.5937 33.9815C37.59 33.9519 37.59 33.9219 37.5937 33.8922C37.6008 33.9212 37.6056 33.9507 37.6083 33.9804C37.6155 34.0438 37.6264 34.1285 37.6398 34.2331C37.664 34.4528 37.6968 34.7725 37.7271 35.1663C37.7901 35.9549 37.8483 37.0468 37.8556 38.2562C37.8629 39.4656 37.8216 40.5563 37.7586 41.3449C37.7453 41.5424 37.7295 41.721 37.7125 41.8773C37.6956 42.0336 37.6834 42.1688 37.6689 42.2781C37.6543 42.3874 37.6434 42.4673 37.6349 42.5308C37.6316 42.5605 37.6263 42.5899 37.6192 42.619Z" fill="#263238"/>
<path d="M35.1009 31.5827C35.0974 31.6166 35.0888 31.6499 35.0754 31.6814C35.0376 31.7723 34.9777 31.8529 34.9008 31.9165C34.7796 32.019 34.6322 32.088 34.4741 32.1163C34.2663 32.151 34.0549 32.1601 33.8448 32.1433L33.8509 32.101L34.6644 32.2961H34.6874V32.3173C34.6086 33.0906 34.4922 34.0168 34.3237 35.0052C34.097 36.3627 33.8169 37.5792 33.5963 38.4536C33.4823 38.8897 33.3841 39.2423 33.3126 39.4844C33.2774 39.6019 33.2495 39.6936 33.2277 39.7617C33.2188 39.7945 33.2078 39.8267 33.1949 39.8581C33.1986 39.8247 33.2055 39.7916 33.2156 39.7594C33.2337 39.6889 33.258 39.596 33.2895 39.4773C33.3526 39.234 33.4447 38.8803 33.5538 38.443C33.7672 37.5674 34.0388 36.351 34.2667 34.9958C34.4256 34.018 34.5468 33.0895 34.6317 32.3185L34.6523 32.3455L33.84 32.1422L33.8472 32.0998C34.0537 32.1187 34.2617 32.1131 34.4668 32.0834C34.6204 32.0582 34.7646 31.9946 34.8851 31.8989C34.9614 31.8392 35.0224 31.7631 35.0633 31.6767C35.0912 31.6168 35.0972 31.5827 35.1009 31.5827Z" fill="#263238"/>
<g opacity="0.3">
<path d="M19.3697 35.1722C19.247 35.0011 19.0953 34.8513 18.9211 34.7291C18.8615 34.6787 18.7867 34.6485 18.7078 34.6431C18.629 34.6377 18.5504 34.6573 18.4841 34.699C18.4178 34.7407 18.3673 34.8022 18.3403 34.8742C18.3133 34.9462 18.3112 35.0248 18.3343 35.0981C18.3657 35.2288 18.4194 35.3536 18.4931 35.4672C19.2681 36.8488 19.7814 38.3539 20.0087 39.911C20.1057 40.5763 20.1493 41.2509 20.2972 41.9091C20.4451 42.5673 20.5979 43.0644 21.0695 43.5545L21.2635 43.4746C21.2418 43.298 21.2102 43.1226 21.169 42.9492C20.5373 40.3953 19.9844 37.8472 19.3697 35.1722Z" fill="black"/>
</g>
<g opacity="0.3">
<path d="M19.2534 43.799C19.1697 43.1878 18.7684 42.6483 18.2604 42.271C17.7524 41.8938 17.1462 41.6834 16.5375 41.5C16.2125 41.3903 15.8705 41.3355 15.5264 41.3378C15.1833 41.3566 14.5407 41.4989 14.3394 41.7692C16.6103 41.2497 18.2604 42.271 19.1673 43.8448" fill="black"/>
</g>
<g opacity="0.3">
<path d="M37.6991 35.9055C37.527 37.7155 37.025 39.482 36.8019 41.2861C36.5789 43.0902 36.6649 45.0095 37.5779 46.5939C37.8858 47.1263 38.3211 47.6364 38.9249 47.8139C38.2059 46.977 37.8519 45.8934 37.7222 44.8109C37.5924 43.7284 37.6676 42.6366 37.7222 41.5482C37.807 39.6677 37.8103 37.7872 37.7319 35.9067" fill="black"/>
</g>
<path d="M19.651 36.4391C19.6034 36.4643 19.5535 36.4851 19.5019 36.5014C19.3633 36.5518 19.2221 36.5949 19.0787 36.6307C18.8664 36.6825 18.651 36.7218 18.4337 36.7482C18.1668 36.7812 17.8978 36.7961 17.6287 36.7929C17.3597 36.7858 17.0916 36.7611 16.8261 36.7188C16.6096 36.6836 16.3957 36.6346 16.1859 36.5719C16.0442 36.5314 15.9049 36.4831 15.7688 36.4273C15.718 36.4092 15.6689 36.3868 15.6221 36.3604C15.6755 36.3692 15.7276 36.3842 15.7773 36.405C15.8755 36.4391 16.0198 36.4838 16.198 36.5308C16.4081 36.5858 16.6209 36.6302 16.8358 36.6636C17.3622 36.7431 17.8973 36.753 18.4265 36.693C18.6422 36.6681 18.8563 36.6316 19.0678 36.5837C19.2485 36.5425 19.394 36.5037 19.4934 36.4732C19.5443 36.4557 19.5973 36.4443 19.651 36.4391Z" fill="white"/>
<path d="M25.838 35.1757C25.6885 35.2976 25.5259 35.4036 25.353 35.4918C24.5495 35.914 23.6138 36.0345 22.7245 35.8303C22.3112 35.7323 21.9194 35.5631 21.5678 35.3308C21.1782 35.0749 20.8407 34.7513 20.5724 34.3764C20.4319 34.1776 20.3121 33.9658 20.2148 33.7441C20.1107 33.5166 20.0401 33.2761 20.005 33.0295C19.9664 32.7806 19.9875 32.5264 20.0668 32.2867C20.106 32.1688 20.169 32.0598 20.2523 31.9659C20.3356 31.872 20.4374 31.7953 20.5518 31.7402C20.7779 31.6426 21.0325 31.6268 21.2696 31.6955C21.4973 31.7563 21.6988 31.8865 21.8443 32.0669C21.9757 32.2394 22.0592 32.4418 22.0867 32.6546C22.1137 32.8557 22.0984 33.06 22.0419 33.2552C21.9314 33.6021 21.7165 33.9091 21.4248 34.1367C21.1883 34.3247 20.9216 34.4739 20.6355 34.5786C20.4206 34.6567 20.2002 34.7196 19.9759 34.7666C19.7916 34.8054 19.6461 34.8289 19.5491 34.843L19.4364 34.8595C19.4239 34.8608 19.4113 34.8608 19.3988 34.8595L19.4364 34.8501L19.5467 34.8289C19.6437 34.8101 19.7892 34.7831 19.9699 34.7408C20.1919 34.6902 20.4099 34.6242 20.6221 34.5433C20.9032 34.4381 21.1645 34.2888 21.3957 34.1014C21.678 33.8775 21.8852 33.5772 21.991 33.2387C22.0446 33.0506 22.0582 32.8539 22.031 32.6605C22.0047 32.4555 21.9231 32.261 21.7946 32.0963C21.657 31.9245 21.4655 31.8007 21.249 31.7437C21.0263 31.6791 20.7871 31.6941 20.5749 31.786C20.468 31.8378 20.3729 31.9099 20.2953 31.9979C20.2176 32.0859 20.1589 32.1881 20.1226 32.2985C20.0463 32.529 20.0259 32.7736 20.0632 33.0131C20.0976 33.2563 20.1669 33.4937 20.2693 33.7183C20.548 34.3537 21.0114 34.8968 21.603 35.2814C21.9485 35.5115 22.3336 35.6799 22.7402 35.7786C23.0951 35.8623 23.4608 35.8944 23.8254 35.8738C24.3556 35.844 24.8733 35.7058 25.3445 35.4683C25.4191 35.4331 25.4915 35.3938 25.5615 35.3508C25.6234 35.3155 25.6755 35.2838 25.7155 35.2556L25.8089 35.1945L25.838 35.1757Z" fill="white"/>
<path d="M26.7364 30.5331C26.7364 30.5437 26.5824 30.5554 26.3363 30.6001C26.0163 30.6581 25.7043 30.7515 25.4064 30.8786C25.1087 31.0067 24.8269 31.1668 24.5662 31.3558C24.3661 31.5016 24.2534 31.605 24.2449 31.5909C24.2656 31.5614 24.29 31.5346 24.3176 31.511C24.3871 31.4413 24.4612 31.3762 24.5395 31.3159C24.7956 31.1135 25.0786 30.9455 25.3809 30.8164C25.6835 30.6877 26.0023 30.5984 26.329 30.5507C26.4279 30.5365 26.5274 30.5274 26.6273 30.5237C26.6639 30.5215 26.7007 30.5246 26.7364 30.5331Z" fill="white"/>
<path d="M28.7273 39.6901L28.6848 39.6736L28.5636 39.6219C28.4063 39.5584 28.2442 39.5069 28.0786 39.4679C27.4731 39.3292 26.8402 39.3516 26.2466 39.5326C25.8372 39.6531 25.4538 39.8451 25.1155 40.0991C24.7261 40.3891 24.3914 40.7422 24.1261 41.1428C23.8311 41.5839 23.6155 42.0703 23.4884 42.5813C23.4148 42.8473 23.4177 43.1278 23.4969 43.3923C23.5471 43.5232 23.6294 43.6403 23.7367 43.7335C23.844 43.8266 23.9731 43.8931 24.1128 43.9271C24.3946 44.0027 24.6932 43.9961 24.9712 43.9083C25.2421 43.8242 25.4871 43.6759 25.6841 43.4769C25.8751 43.2868 25.9976 43.0419 26.0333 42.7788C26.0475 42.6521 26.0385 42.524 26.0066 42.4003C25.9724 42.2798 25.9205 42.1646 25.8526 42.0583C25.7149 41.8557 25.5363 41.6822 25.3276 41.5482C25.1307 41.42 24.916 41.3195 24.6899 41.2497C24.4786 41.1838 24.2615 41.1369 24.0413 41.1098C23.8376 41.0874 23.6324 41.0811 23.4278 41.091C22.8067 41.1196 22.2032 41.2999 21.6734 41.6152C21.5294 41.7011 21.392 41.7969 21.2624 41.902L21.1617 41.9843L21.1266 42.0101C21.136 41.9993 21.1461 41.9891 21.1569 41.9796L21.2539 41.8926C21.3807 41.7829 21.5166 41.6835 21.6601 41.5952C22.1907 41.2689 22.799 41.0803 23.4266 41.0475C23.6335 41.0358 23.8412 41.0409 24.0473 41.0628C24.2708 41.0888 24.4912 41.1352 24.7057 41.2015C24.9369 41.2714 25.1565 41.3732 25.3579 41.5036C25.5744 41.6405 25.7596 41.8189 25.9023 42.0278C25.9739 42.139 26.0282 42.2597 26.0636 42.3862C26.098 42.5167 26.1082 42.652 26.0939 42.7858C26.057 43.0615 25.9294 43.3182 25.7302 43.5181C25.5263 43.7249 25.2726 43.8792 24.9918 43.967C24.7015 44.0585 24.3899 44.0651 24.0958 43.9858C23.9467 43.9487 23.809 43.8772 23.6946 43.7773C23.5801 43.6774 23.4923 43.5522 23.4387 43.4123C23.3556 43.1372 23.3522 42.8452 23.429 42.5684C23.5584 42.0507 23.7782 41.5582 24.0788 41.1122C24.3485 40.7057 24.689 40.3478 25.0851 40.0544C25.429 39.7982 25.8186 39.6058 26.2345 39.4867C26.8355 39.3065 27.4762 39.2906 28.0859 39.4409C28.2524 39.4817 28.4147 39.5372 28.5709 39.6066L28.6921 39.6642L28.7273 39.6901Z" fill="white"/>
<path d="M17.6675 40.1543C17.6675 40.166 17.5305 40.1825 17.322 40.253C17.2003 40.2947 17.0827 40.3466 16.9704 40.4081C16.6946 40.5586 16.4552 40.7646 16.2684 41.0123C16.1931 41.1137 16.1266 41.221 16.0695 41.3331C15.9725 41.5259 15.9398 41.6563 15.9277 41.6528C15.9276 41.6208 15.933 41.5891 15.9434 41.5588C15.964 41.4749 15.9924 41.3931 16.0283 41.3143C16.0812 41.1969 16.1458 41.0847 16.2211 40.9793C16.3156 40.8509 16.4241 40.7327 16.5448 40.6268C16.6671 40.5256 16.8005 40.4378 16.9425 40.3647C17.058 40.3033 17.1799 40.2541 17.3062 40.2177C17.3911 40.192 17.4784 40.1743 17.5669 40.1648C17.5996 40.1562 17.6336 40.1526 17.6675 40.1543Z" fill="white"/>
<path d="M21.7546 46.1801C21.7546 46.1801 21.7437 46.1719 21.7243 46.1531C21.7049 46.1343 21.6758 46.1025 21.6406 46.0673C21.5679 45.992 21.46 45.8804 21.3169 45.7429C20.9201 45.3453 20.4718 44.9992 19.9833 44.7133C19.6457 44.5189 19.2799 44.3747 18.8981 44.2855C18.4605 44.1862 18.0063 44.1762 17.5645 44.2561C17.0745 44.3436 16.6269 44.5828 16.289 44.9378C16.1141 45.1245 16.0013 45.358 15.9653 45.6077C15.9466 45.7347 15.9558 45.8641 15.9921 45.9874C16.0285 46.1107 16.0912 46.2252 16.1762 46.3235C16.2641 46.4182 16.3761 46.4887 16.5011 46.5279C16.6261 46.5671 16.7595 46.5736 16.8879 46.5468C17.0119 46.5169 17.1225 46.4489 17.2032 46.3529C17.283 46.2572 17.3378 46.1443 17.3632 46.0238C17.412 45.7853 17.3689 45.5377 17.242 45.328C17.1221 45.1251 16.9522 44.9542 16.7473 44.8308C16.3588 44.609 15.9065 44.5158 15.4585 44.5652C15.0672 44.6007 14.6817 44.6816 14.3103 44.8062C13.7685 44.9802 13.2541 45.2258 12.7815 45.536C12.6142 45.6465 12.4905 45.7394 12.4056 45.8028L12.311 45.8757C12.2892 45.8922 12.2783 45.9004 12.2771 45.8992C12.4283 45.7599 12.5905 45.6322 12.7621 45.5172C13.2346 45.1963 13.7524 44.9429 14.2994 44.765C14.6736 44.6368 15.0624 44.5527 15.4573 44.5147C15.9169 44.4623 16.3816 44.5564 16.7812 44.7826C16.9947 44.9107 17.1722 45.0879 17.2977 45.2986C17.4328 45.5209 17.4786 45.7837 17.4263 46.0367C17.3998 46.166 17.3411 46.2871 17.2553 46.3893C17.1658 46.4953 17.0433 46.5703 16.9061 46.6032C16.7667 46.633 16.6217 46.6264 16.4858 46.5841C16.3499 46.5418 16.228 46.4652 16.1326 46.3623C16.042 46.2573 15.975 46.1351 15.9362 46.0035C15.8973 45.8719 15.8874 45.7339 15.9071 45.5983C15.9441 45.3354 16.0625 45.0895 16.2466 44.8931C16.5932 44.5288 17.0529 44.2841 17.556 44.1962C18.007 44.1159 18.4704 44.1279 18.9163 44.2314C19.3007 44.3243 19.6685 44.4725 20.0075 44.671C20.4982 44.9618 20.9467 45.3148 21.3412 45.7206C21.4818 45.8628 21.5837 45.9768 21.6564 46.0543L21.7352 46.1437L21.7546 46.1801Z" fill="white"/>
<path d="M37.6481 42.861C37.6235 42.8818 37.5967 42.8999 37.5681 42.9151C37.5414 42.9315 37.5087 42.9527 37.4687 42.975L37.3256 43.0444C37.2711 43.0702 37.2044 43.0914 37.1389 43.1184C37.0734 43.1455 36.9922 43.1619 36.9098 43.1842C36.7196 43.2263 36.5253 43.2484 36.3302 43.2501C35.8177 43.2508 35.3173 43.0985 34.8971 42.814C34.6411 42.6529 34.4396 42.4224 34.3176 42.1511C34.2615 41.9991 34.2615 41.833 34.3176 41.681C34.3479 41.6034 34.3966 41.5339 34.4598 41.4779C34.523 41.422 34.5989 41.3812 34.6813 41.359C34.8424 41.3228 35.01 41.3242 35.1704 41.363C35.3308 41.4018 35.4794 41.477 35.604 41.5823C35.7255 41.6772 35.823 41.7978 35.8889 41.9349C35.9516 42.0696 35.971 42.2195 35.9447 42.365C35.9169 42.5014 35.8563 42.6295 35.7677 42.7388C35.6855 42.8404 35.5902 42.9313 35.4839 43.0091C35.2955 43.1454 35.0922 43.2613 34.8777 43.3547C34.5669 43.4911 34.2373 43.5833 33.8993 43.6285C33.7781 43.6438 33.6859 43.6508 33.6229 43.6532C33.5906 43.6563 33.5581 43.6563 33.5259 43.6532C33.5574 43.6466 33.5894 43.6426 33.6217 43.6414C33.6847 43.6344 33.7769 43.6238 33.8945 43.605C34.2298 43.5518 34.5561 43.4545 34.8644 43.3159C35.0757 43.2217 35.2757 43.1054 35.4609 42.9692C35.6784 42.8228 35.8335 42.6047 35.8974 42.3556C35.9155 42.217 35.8952 42.0762 35.8385 41.9477C35.7818 41.8192 35.6908 41.7077 35.5749 41.6246C35.4578 41.526 35.3184 41.4555 35.168 41.419C35.0176 41.3824 34.8604 41.3808 34.7092 41.4142C34.6355 41.4336 34.5675 41.4695 34.5108 41.5191C34.4542 41.5688 34.4104 41.6307 34.3831 41.6998C34.3316 41.8376 34.3316 41.9886 34.3831 42.1265C34.4837 42.4027 34.7177 42.6025 34.9384 42.7635C35.3476 43.0439 35.8352 43.1968 36.3363 43.2019C36.5281 43.2027 36.7195 43.1842 36.9073 43.1466C36.9898 43.1255 37.0662 43.1078 37.1353 43.0855C37.2044 43.0632 37.2674 43.042 37.322 43.0185L37.4663 42.9539C37.5075 42.9339 37.5402 42.9139 37.5681 42.8998C37.5939 42.8853 37.6207 42.8724 37.6481 42.861Z" fill="white"/>
<path d="M34.1479 34.7713C33.9344 34.8265 33.725 34.8956 33.5211 34.9781C33.3264 35.0782 33.1393 35.1913 32.9609 35.3166C33.1008 35.1431 33.2846 35.0075 33.4944 34.9229C33.6956 34.8199 33.9204 34.7678 34.1479 34.7713Z" fill="white"/>
<path d="M28.047 34.7983C28.0303 34.8932 27.998 34.9849 27.9513 35.0698C27.8491 35.2802 27.7119 35.4728 27.5451 35.6399C27.3784 35.807 27.1847 35.9468 26.9716 36.0536C26.8851 36.1012 26.7914 36.1353 26.694 36.1547C26.9898 36.0088 27.2615 35.8211 27.5002 35.5976C27.7229 35.3593 27.9073 35.0899 28.047 34.7983Z" fill="white"/>
<path d="M35.9592 29.2532C35.9592 29.2532 35.8732 29.2685 35.7168 29.3061C35.5005 29.3597 35.2905 29.4345 35.0899 29.5294C34.9513 29.5933 34.8176 29.6667 34.6898 29.7492C34.5435 29.8416 34.4157 29.9591 34.3128 30.0959C34.202 30.2469 34.1457 30.4291 34.1527 30.6142C34.1582 30.7102 34.1868 30.8037 34.2364 30.8869C34.2908 30.9699 34.3686 31.036 34.4607 31.0773C34.5516 31.1205 34.654 31.1357 34.7541 31.1208C34.8512 31.1064 34.9384 31.0552 34.9966 30.9786C35.0469 30.9027 35.0751 30.815 35.0783 30.7248C35.0815 30.6346 35.0595 30.5453 35.0148 30.4662C34.9722 30.3947 34.9145 30.3328 34.8456 30.2844C34.7766 30.236 34.698 30.2022 34.6147 30.1853C34.4673 30.1517 34.3137 30.1537 34.1673 30.1911C33.9544 30.2534 33.7563 30.3557 33.5841 30.492C33.4629 30.5849 33.3926 30.6413 33.3889 30.6378C33.3853 30.6342 33.4022 30.6201 33.4326 30.5919C33.4629 30.5637 33.5077 30.5226 33.5684 30.4744C33.7381 30.3276 33.9382 30.2174 34.1552 30.1512C34.3087 30.1085 34.4708 30.1036 34.6268 30.1371C34.7183 30.1546 34.8048 30.1908 34.8807 30.2433C34.9566 30.2958 35.0201 30.3633 35.0669 30.4415C35.1172 30.53 35.1419 30.63 35.1382 30.731C35.1346 30.832 35.1028 30.9301 35.0463 31.015C34.9802 31.1041 34.8803 31.1641 34.7686 31.1819C34.6558 31.199 34.5403 31.1822 34.4377 31.1337C34.3343 31.0877 34.247 31.0133 34.1867 30.9198C34.1317 30.8281 34.1001 30.7249 34.0945 30.6189C34.0876 30.4204 34.1491 30.2252 34.2691 30.0642C34.3773 29.924 34.5113 29.8045 34.6644 29.7116C34.7957 29.6294 34.9331 29.5568 35.0754 29.4942C35.28 29.4019 35.4948 29.3325 35.7156 29.2873C35.7931 29.272 35.855 29.265 35.8962 29.2603C35.9168 29.2552 35.938 29.2528 35.9592 29.2532Z" fill="white"/>
<path d="M37.5415 36.4579C37.5221 36.4857 37.501 36.5124 37.4785 36.5378C37.4566 36.5625 37.4251 36.5884 37.39 36.6225C37.3456 36.6568 37.2985 36.6878 37.2493 36.7153C37.089 36.8 36.9121 36.8508 36.7301 36.8646C36.5481 36.8784 36.3652 36.8547 36.1933 36.7952C35.9533 36.716 35.74 36.575 35.5762 36.3874C35.3893 36.1732 35.2528 35.9221 35.1761 35.6516C35.0884 35.3544 35.056 35.0443 35.0803 34.7361C35.0955 34.4008 35.216 34.078 35.4258 33.8111C35.5363 33.6797 35.6785 33.5767 35.8399 33.5113C36.0013 33.4459 36.1768 33.4201 36.3509 33.4362C36.5183 33.4554 36.6742 33.5286 36.7934 33.6442C36.9101 33.755 36.9775 33.9055 36.9814 34.0638C36.9776 34.2144 36.9142 34.3579 36.8043 34.4646C36.7053 34.5643 36.5837 34.6403 36.4491 34.6867C36.2095 34.7673 35.9518 34.7835 35.7035 34.7337C35.5005 34.6944 35.3047 34.6259 35.1227 34.5304C34.986 34.4602 34.8539 34.3817 34.7275 34.2953C34.6232 34.2236 34.5444 34.166 34.4923 34.1261C34.4643 34.107 34.438 34.0858 34.4135 34.0626C34.4439 34.0779 34.4727 34.096 34.4995 34.1167L34.742 34.2753C34.87 34.3579 35.0028 34.4332 35.1397 34.501C35.3198 34.5915 35.5126 34.6561 35.712 34.6926C35.9525 34.7379 36.2011 34.7201 36.4321 34.6409C36.5584 34.5964 36.6721 34.524 36.7643 34.4293C36.8636 34.3321 36.9208 34.2017 36.9244 34.065C36.9196 33.9216 36.858 33.7856 36.7522 33.6853C36.6415 33.5799 36.4978 33.5134 36.3436 33.4961C36.1804 33.482 36.0162 33.5068 35.8651 33.5682C35.714 33.6297 35.5807 33.726 35.4767 33.8487C35.2746 34.1058 35.1583 34.4166 35.1433 34.7396C35.1184 35.0409 35.1488 35.3441 35.2331 35.6352C35.3072 35.8983 35.4382 36.143 35.6174 36.3533C35.7735 36.5361 35.9781 36.6743 36.209 36.7529C36.3756 36.8123 36.5529 36.8378 36.73 36.8277C36.9072 36.8176 37.0802 36.7721 37.2384 36.6941C37.3522 36.6321 37.4546 36.5523 37.5415 36.4579Z" fill="white"/>
<path d="M40.9447 35.6117C40.9447 35.6246 40.7374 35.5529 40.3943 35.5282C39.9462 35.495 39.4971 35.5773 39.0925 35.7668C38.6879 35.9563 38.3423 36.2463 38.0907 36.6072C37.9899 36.7586 37.8984 36.9155 37.8167 37.0773C37.825 37.0288 37.8406 36.9817 37.8627 36.9374C37.9147 36.8144 37.9784 36.6964 38.0531 36.5848C38.2996 36.2088 38.6494 35.9067 39.0631 35.7126C39.4769 35.5185 39.9383 35.44 40.3955 35.4859C40.5327 35.4987 40.6683 35.5243 40.8004 35.5623C40.8503 35.5734 40.8987 35.5899 40.9447 35.6117Z" fill="white"/>
<g opacity="0.3">
<path d="M33.3563 28.9747C34.7239 29.6211 36.3873 29.6587 37.6058 30.5355C38.3143 31.0453 38.8028 31.7916 38.9768 32.6302C39.1508 33.4687 38.998 34.34 38.5479 35.0758C38.4594 34.3282 38.3054 33.4797 37.6531 33.0777C37.367 32.9026 37.0251 32.8426 36.7074 32.7251C36.3498 32.5982 36.02 32.4031 35.6575 32.2914C35.1725 32.141 34.6366 32.1469 34.1492 31.9905C33.6618 31.8342 33.1878 31.4311 33.2241 30.9328L33.3563 28.9747Z" fill="black"/>
</g>
<path d="M38.5334 34.8712L38.3394 32.5077C38.3394 32.5077 37.0166 32.2597 36.5474 31.9705C36.0782 31.6814 35.2198 31.0797 35.2198 31.0797C35.2198 31.0797 35.0125 31.8013 34.5857 31.8424L34.2014 31.8847L34.1832 30.4297C34.1832 30.4297 34.1104 31.0832 33.5564 31.1843C33.4351 31.2078 33.4291 31.1843 33.4291 31.1843L33.0544 29.2791C33.0544 29.2791 32.6107 29.8362 31.7996 29.4648C31.7996 29.4648 33.1138 27.2434 33.3696 27.1611C33.6255 27.0789 35.0076 27.0436 35.0076 27.0436C35.0076 27.0436 36.9269 26.9261 37.1403 27.006C37.3537 27.0859 37.6519 27.415 37.6519 27.415C37.6519 27.415 39.9131 29.5247 40.6381 30.2275C41.2099 30.8124 41.5952 31.5451 41.7475 32.3372C41.7911 32.7086 42.1112 34.2589 42.1112 34.2589" fill="#B47266"/>
<path d="M42.1184 34.2648L42.1075 34.226L42.0821 34.1084C42.0602 34.005 42.0275 33.8557 41.9863 33.6606C41.9451 33.4655 41.8978 33.2234 41.8408 32.9402C41.8141 32.7991 41.785 32.6463 41.7571 32.483C41.7426 32.4019 41.7353 32.3161 41.7183 32.2314C41.7014 32.1468 41.6771 32.0599 41.6504 31.9717C41.5294 31.5831 41.3553 31.2119 41.1327 30.8681C41.0072 30.674 40.8631 30.4918 40.7023 30.3239C40.5338 30.1523 40.3447 29.9842 40.1579 29.8056L37.6373 27.4361C37.5614 27.3531 37.4805 27.2746 37.3948 27.2011C37.3139 27.125 37.2172 27.0665 37.1111 27.0295C36.9959 27.0138 36.8795 27.0071 36.7632 27.0095C36.6419 27.0095 36.5207 27.0095 36.3994 27.0095C35.9145 27.0201 35.421 27.0495 34.913 27.073C34.6596 27.08 34.4038 27.0894 34.1468 27.1035C34.0182 27.1106 33.8885 27.1188 33.7588 27.1294C33.6312 27.1366 33.5046 27.1551 33.3805 27.1846C33.3307 27.2168 33.2864 27.2564 33.2496 27.3022C33.2083 27.3515 33.1671 27.4009 33.1283 27.4526C33.0507 27.556 32.9756 27.6618 32.9016 27.7699C32.7549 27.9838 32.6118 28.2048 32.47 28.4281C32.2505 28.7807 32.0371 29.1239 31.8322 29.4683L31.8177 29.426C32.0192 29.5243 32.2454 29.565 32.47 29.5435C32.6882 29.515 32.8887 29.4116 33.035 29.252L33.0786 29.2038L33.0895 29.2649C33.218 29.9172 33.3429 30.5578 33.4629 31.1701C33.4629 31.1525 33.4569 31.1572 33.4545 31.1537H33.469C33.4807 31.1548 33.4925 31.1548 33.5042 31.1537C33.5283 31.1511 33.5522 31.1468 33.5757 31.1408L33.646 31.1219L33.7127 31.0949C33.7997 31.0546 33.8767 30.9965 33.9382 30.9245C34.0578 30.7773 34.1341 30.6014 34.1589 30.4156H34.2171C34.2171 30.9186 34.2211 31.4044 34.2292 31.873L34.1989 31.8471L34.5723 31.8072C34.688 31.7926 34.7941 31.7374 34.8706 31.652C35.0217 31.4814 35.1326 31.2808 35.1955 31.0644L35.2052 31.0326L35.2343 31.0514L36.0515 31.5991L36.4358 31.8577C36.5549 31.9433 36.6849 32.0136 36.8226 32.0669C37.0807 32.1661 37.3451 32.2489 37.6143 32.3149C37.8701 32.3795 38.1138 32.4324 38.3417 32.4794H38.3551V32.4924C38.4121 33.2399 38.4581 33.8311 38.4896 34.2365C38.5042 34.4375 38.5151 34.5891 38.5236 34.6984C38.5236 34.749 38.5236 34.7889 38.5309 34.816C38.5317 34.8293 38.5317 34.8426 38.5309 34.8559C38.5309 34.8559 38.5309 34.843 38.5309 34.816C38.5309 34.7889 38.5236 34.749 38.5187 34.6984C38.509 34.5915 38.4945 34.4375 38.4763 34.2365C38.4412 33.8311 38.3902 33.241 38.3248 32.4947L38.3393 32.5088C38.1077 32.4653 37.864 32.4124 37.6119 32.3478C37.3403 32.2829 37.0734 32.2008 36.8129 32.1022C36.6726 32.0486 36.5401 31.9775 36.4188 31.8906L36.0321 31.6332C35.769 31.4581 35.495 31.2806 35.2125 31.0879L35.2513 31.0749C35.1869 31.2998 35.0727 31.5084 34.9166 31.6861C34.8315 31.7811 34.7132 31.8422 34.5844 31.8577L34.2122 31.8988H34.1819V31.8695C34.1771 31.3993 34.1718 30.9131 34.1661 30.4109H34.2243C34.1982 30.6077 34.1178 30.7941 33.9916 30.9504C33.9253 31.0286 33.8426 31.0923 33.7491 31.1372L33.6763 31.1666L33.5999 31.1866C33.5741 31.1931 33.5477 31.1978 33.5211 31.2007H33.4787H33.4545H33.4399C33.4358 31.1997 33.432 31.1977 33.429 31.1948C33.429 31.1948 33.4205 31.1948 33.4144 31.1713L33.0398 29.2661L33.0956 29.279C32.9395 29.4517 32.7241 29.5636 32.4894 29.594C32.2538 29.6189 32.0157 29.5781 31.8031 29.4765L31.7728 29.4624L31.7898 29.4342C31.9959 29.0879 32.2089 28.7404 32.4287 28.3917C32.5706 28.1684 32.7137 27.9474 32.8616 27.7312C32.9355 27.623 33.0107 27.5161 33.0907 27.4115C33.1295 27.3598 33.1707 27.3092 33.212 27.2587C33.2545 27.2032 33.3076 27.1562 33.3684 27.12C33.4983 27.0886 33.6311 27.0693 33.7648 27.0624C33.8946 27.0506 34.0255 27.0436 34.154 27.0354C34.4123 27.0224 34.6693 27.013 34.9227 27.006C35.4271 26.9836 35.9242 26.9543 36.4091 26.9449C36.5304 26.9449 36.6516 26.9449 36.7729 26.9449C36.8945 26.943 37.0161 26.9505 37.1366 26.9672C37.2515 27.0063 37.3562 27.0693 37.4433 27.1517C37.5314 27.2247 37.6144 27.3033 37.6919 27.3868L40.2052 29.7609C40.3932 29.9408 40.5799 30.1135 40.7496 30.2816C40.9114 30.4526 41.0563 30.6379 41.1824 30.8352C41.4056 31.1827 41.5794 31.5579 41.6989 31.9505C41.7244 32.0399 41.7486 32.1268 41.7644 32.2138C41.7802 32.3008 41.7887 32.3854 41.8032 32.4665C41.8287 32.6299 41.8553 32.7815 41.882 32.9237C41.9354 33.207 41.9814 33.4491 42.019 33.6465C42.0566 33.844 42.0857 33.9909 42.1063 34.0955C42.1148 34.1449 42.1221 34.1825 42.1269 34.213C42.1318 34.2436 42.1184 34.2648 42.1184 34.2648Z" fill="#89544C"/>
<path d="M35.3373 27.1611C35.3373 27.1717 35.136 27.207 34.8232 27.3116C34.4177 27.4529 34.0247 27.6263 33.6484 27.8299C33.5408 27.8826 33.4429 27.952 33.3586 28.0356C33.2832 28.1152 33.2228 28.2071 33.1804 28.3071C33.1024 28.4766 33.0643 28.6609 33.0689 28.8465C33.0689 29.0064 33.081 29.1368 33.0822 29.2262C33.0866 29.2732 33.0846 29.3207 33.0761 29.3672C33.0648 29.3217 33.0583 29.2753 33.0567 29.2285C33.0482 29.138 33.0301 29.0099 33.024 28.8477C33.0128 28.6548 33.0481 28.4621 33.1271 28.2847C33.1703 28.1776 33.2336 28.0792 33.3138 27.9944C33.4021 27.9058 33.5049 27.832 33.6181 27.7758C33.9971 27.5694 34.3963 27.4001 34.8099 27.2704C34.9357 27.2326 35.0636 27.2016 35.193 27.1776C35.2401 27.1659 35.2887 27.1604 35.3373 27.1611Z" fill="#89544C"/>
<path d="M36.7778 27.5772C36.7171 27.6004 36.6547 27.6188 36.591 27.6324C36.4698 27.6677 36.2964 27.7147 36.0879 27.7923C35.8436 27.8834 35.6083 27.9955 35.3847 28.1273C35.2562 28.199 35.1204 28.2753 34.9761 28.3482C34.8318 28.4211 34.6754 28.4846 34.536 28.5704C34.4668 28.6113 34.4059 28.6643 34.3566 28.7267C34.3118 28.7892 34.2785 28.8588 34.2583 28.9324C34.2203 29.0765 34.1952 29.2236 34.1832 29.3719C34.1657 29.6251 34.1657 29.8792 34.1832 30.1324C34.1941 30.3498 34.205 30.5261 34.2074 30.6483C34.2132 30.7113 34.2132 30.7746 34.2074 30.8375C34.195 30.7755 34.1877 30.7126 34.1856 30.6495C34.1747 30.5167 34.1589 30.3439 34.1407 30.1347C34.1182 29.8794 34.1149 29.6229 34.131 29.3672C34.1424 29.215 34.1671 29.064 34.205 28.9159C34.2269 28.8357 34.263 28.7597 34.3117 28.6914C34.3649 28.6223 34.4311 28.5637 34.5069 28.5186C34.6572 28.4281 34.8124 28.3694 34.9543 28.2953C35.0961 28.2213 35.2319 28.1484 35.3617 28.0779C35.5897 27.9479 35.8295 27.8385 36.0782 27.7512C36.2463 27.6949 36.4175 27.6478 36.591 27.6101C36.6521 27.5934 36.7146 27.5824 36.7778 27.5772Z" fill="#89544C"/>
<path d="M37.4809 28.1966C37.4314 28.2213 37.3794 28.241 37.3258 28.2554C37.2251 28.2906 37.0833 28.3412 36.9026 28.4129C36.4392 28.5909 36.0181 28.8584 35.6647 29.1991C35.4781 29.3902 35.3351 29.6173 35.2452 29.8655C35.1723 30.0693 35.135 30.2834 35.1349 30.499C35.1404 30.6974 35.1689 30.8945 35.2198 31.0867C35.2198 31.0867 35.2113 31.0749 35.2004 31.0491C35.1846 31.0107 35.1712 30.9715 35.1604 30.9316C35.1167 30.7892 35.093 30.6417 35.09 30.4932C35.0764 29.9954 35.2669 29.5127 35.6199 29.151C35.9789 28.8069 36.4108 28.5427 36.8856 28.3764C37.0663 28.3094 37.2142 28.2589 37.3185 28.2366C37.371 28.2178 37.4255 28.2044 37.4809 28.1966Z" fill="#89544C"/>
<path d="M38.2121 29.6693C38.2121 29.6693 38.2048 29.6799 38.183 29.6928C38.1512 29.711 38.1163 29.7234 38.0799 29.7292C37.9455 29.744 37.8095 29.7237 37.6859 29.6705C37.6032 29.6384 37.5175 29.614 37.43 29.5976C37.3309 29.5838 37.2299 29.5952 37.1366 29.6305C36.922 29.7264 36.7187 29.8446 36.5304 29.9831C36.3353 30.1085 36.1659 30.2679 36.0309 30.4532C35.9441 30.6241 35.8371 30.7847 35.712 30.9316C35.6587 30.9855 35.5974 31.0315 35.5302 31.0679C35.4777 31.0951 35.4187 31.1081 35.3592 31.1055C35.3225 31.1043 35.2862 31.098 35.2513 31.0867C35.2283 31.0785 35.2162 31.0738 35.2174 31.0714C35.2186 31.0691 35.2683 31.0832 35.3592 31.082C35.4136 31.0796 35.4664 31.0643 35.5132 31.0374C35.5754 31.0003 35.6317 30.9548 35.6805 30.9022C35.7973 30.7524 35.8984 30.5918 35.9824 30.4227C36.1173 30.2264 36.2913 30.0582 36.494 29.9279C36.5983 29.855 36.7014 29.7892 36.802 29.7257C36.8993 29.6615 37.0044 29.609 37.1148 29.5694C37.2173 29.5323 37.3281 29.5218 37.4361 29.5388C37.5263 29.5581 37.6144 29.5856 37.6992 29.6211C37.8156 29.6763 37.9444 29.7025 38.0738 29.6975C38.1208 29.6931 38.1672 29.6836 38.2121 29.6693Z" fill="#89544C"/>
<path d="M39.0485 32.4407C39.0156 32.4267 38.9849 32.4081 38.9576 32.3854C38.8785 32.3303 38.8035 32.2698 38.7333 32.2044C38.2608 31.7725 37.9413 31.2069 37.8203 30.5884C37.8009 30.4957 37.7883 30.4019 37.7827 30.3075C37.7767 30.2732 37.7767 30.2383 37.7827 30.204C37.7937 30.204 37.807 30.3498 37.8628 30.5801C38.0073 31.1817 38.3198 31.7331 38.766 32.1739C38.9345 32.3419 39.0558 32.4324 39.0485 32.4407Z" fill="#89544C"/>
<path d="M40.9509 32.0763C40.9088 32.1557 40.8502 32.2257 40.7787 32.282C40.6133 32.427 40.4166 32.5342 40.2028 32.5958C39.9889 32.6572 39.7634 32.6709 39.5433 32.6358C39.4518 32.6261 39.3632 32.599 39.2826 32.5558C39.2826 32.5453 39.3857 32.5758 39.5493 32.5934C39.7627 32.6154 39.9785 32.5962 40.1843 32.5371C40.39 32.478 40.5818 32.3801 40.7484 32.2491C40.8769 32.148 40.9424 32.0693 40.9509 32.0763Z" fill="#89544C"/>
<path d="M43.3976 47.4836C42.8148 47.9381 42.0727 48.1554 41.3278 48.0896C40.5829 48.0238 39.8935 47.6801 39.4051 47.131C38.8474 46.4987 38.4048 45.7206 38.4727 44.8897C38.6449 42.8035 38.5406 34.5386 38.5406 34.5386L41.9621 33.6865C41.9621 33.6865 44.5991 43.6767 44.7288 45.4197C44.7882 46.1825 44.1432 46.9089 43.3976 47.4836Z" fill="#B47266"/>
<path d="M15.8525 43.9811H19.7783L21.9509 43.2407L22.5826 41.6093C22.5826 41.6093 23.8581 40.6691 25.1833 41.8561C26.5084 43.0432 27.3256 45.4185 27.3256 45.4185L23.8096 46.6056C23.8096 46.6056 21.6163 48.1946 21.3605 48.1993L14.3418 48.291C14.3418 48.291 14.2715 45.2669 15.8525 43.9811Z" fill="#B47266"/>
<path d="M24.8341 43.2148L24.3746 36.0254C24.3711 35.9616 24.3811 35.8978 24.4039 35.8379C24.4267 35.778 24.4619 35.7232 24.5073 35.6769C24.5527 35.6306 24.6073 35.5937 24.6679 35.5686C24.7284 35.5434 24.7937 35.5305 24.8595 35.5306H28.903C29.0277 35.5304 29.1477 35.5769 29.238 35.6603C29.3283 35.7437 29.382 35.8576 29.3879 35.9784L29.6789 43.1666C29.681 43.2296 29.67 43.2924 29.6466 43.3512C29.6232 43.41 29.5878 43.4637 29.5426 43.509C29.4973 43.5543 29.4431 43.5903 29.3833 43.6148C29.3234 43.6394 29.259 43.6521 29.1939 43.652H25.3142C25.1921 43.6511 25.0748 43.6056 24.9858 43.5246C24.8968 43.4435 24.8426 43.3329 24.8341 43.2148Z" fill="#263238"/>
<path d="M29.2122 39.9803C29.2075 39.9516 29.2051 39.9225 29.2049 39.8933C29.2049 39.8299 29.1977 39.7464 29.1928 39.643C29.1855 39.4185 29.1758 39.1059 29.1637 38.7227C29.1516 38.3396 29.1419 37.8706 29.1286 37.3582C29.1221 37.1004 29.116 36.8316 29.1104 36.5519C29.1165 36.4132 29.1001 36.2744 29.0619 36.1406C29.0391 36.0763 28.9968 36.0202 28.9406 35.9795C28.8819 35.9406 28.8139 35.9168 28.743 35.9102C28.594 35.902 28.4446 35.902 28.2956 35.9102L27.8555 35.9196L27.0238 35.9349L25.6162 35.9584L25.0754 35.9654C24.9407 35.9584 24.8056 35.9666 24.6729 35.9901C24.6323 35.9988 24.5943 36.0161 24.5615 36.041C24.5288 36.0658 24.5022 36.0974 24.4838 36.1335C24.4741 36.1603 24.4692 36.1885 24.4692 36.2169C24.4592 36.1888 24.4592 36.1581 24.4692 36.13C24.485 36.0895 24.5103 36.0531 24.5431 36.0237C24.576 35.9943 24.6154 35.9727 24.6584 35.9607C24.7928 35.9319 24.9305 35.9197 25.0682 35.9243L25.6089 35.9078L27.0165 35.8714L27.8482 35.8526L28.2884 35.842C28.4406 35.8338 28.5932 35.8338 28.7454 35.842C28.8267 35.8507 28.9045 35.8785 28.9722 35.9231C29.0372 35.9711 29.0858 36.0371 29.1116 36.1123C29.152 36.2526 29.1692 36.3982 29.1625 36.5437C29.1674 36.8234 29.1722 37.0922 29.1771 37.35C29.1855 37.8624 29.1928 38.3243 29.1989 38.7145C29.2049 39.1047 29.2062 39.4115 29.2086 39.6348C29.2086 39.7394 29.2086 39.8228 29.2086 39.8851C29.2131 39.9167 29.2143 39.9486 29.2122 39.9803Z" fill="#455A64"/>
<path d="M26.951 37.1913C26.9286 37.1425 26.8905 37.102 26.8425 37.0757C26.7945 37.0495 26.739 37.0389 26.6843 37.0456C26.6526 37.0376 26.6195 37.0364 26.5873 37.0419C26.5551 37.0474 26.5244 37.0595 26.4975 37.0774C26.4705 37.0953 26.4477 37.1186 26.4308 37.1458C26.4139 37.1729 26.4032 37.2033 26.3994 37.2348C26.3969 37.2994 26.4171 37.3628 26.4568 37.4147C26.4965 37.4666 26.5532 37.5039 26.6176 37.5204C26.6659 37.5333 26.7167 37.5342 26.7654 37.5231C26.8141 37.512 26.8592 37.4893 26.8965 37.4569C26.9327 37.4235 26.9574 37.3801 26.9672 37.3325C26.9769 37.285 26.9713 37.2356 26.951 37.1913Z" fill="#E0E0E0"/>
<path d="M22.505 41.8092V41.0769C22.505 41.0769 23.247 39.3845 23.2252 39.4468C23.2034 39.5091 24.5407 38.6182 24.5407 38.6182C24.5862 38.9907 24.5715 39.3678 24.497 39.7359C24.4099 40.0127 24.259 40.2667 24.0557 40.4787L23.9514 41.2685L25.6318 39.9416L27.636 38.9202C27.7549 38.911 27.8743 38.9317 27.9825 38.9806C28.0906 39.0294 28.1839 39.1046 28.2531 39.1988C28.5089 39.529 28.1464 39.8593 27.9767 39.9627C27.8069 40.0662 26.2793 41.138 26.2793 41.138L25.4306 42.0865L25.6112 42.2863L27.1098 41.3649C27.1098 41.3649 29.0048 40.0238 29.4304 39.9404H29.4534C29.5318 39.9279 29.6123 39.9387 29.6844 39.9712C29.7564 40.0037 29.8167 40.0566 29.8572 40.1228C29.8978 40.1891 29.9169 40.2657 29.9119 40.3426C29.9069 40.4195 29.8781 40.4931 29.8293 40.5539C29.3079 41.2109 28.4107 42.3286 28.3659 42.2899C28.3016 42.2358 26.3557 43.5357 26.3557 43.5357C26.3557 43.5357 28.3016 42.9163 28.4725 42.7717C28.6435 42.6272 30.3882 40.8325 30.3882 40.8325C30.3882 40.8325 30.6222 40.8736 30.6646 41.3896L30.5591 41.9055C30.5591 41.9055 30.6016 42.0289 30.6646 42.2969C30.7277 42.5649 29.7492 44.4031 29.7492 44.4031C29.7492 44.4031 25.9168 46.4458 25.5555 46.4669C25.1942 46.4881 23.852 46.4669 23.852 46.4669L22.505 41.8092Z" fill="#B47266"/>
<path d="M30.5179 41.8385C30.5011 41.8935 30.4766 41.9461 30.4452 41.9948C30.3659 42.1317 30.2772 42.2632 30.1797 42.3885C30.0584 42.5496 29.9081 42.7329 29.7553 42.948C29.5865 43.1823 29.3944 43.4 29.1819 43.598C28.7837 43.9444 28.3392 44.2374 27.8603 44.4689C27.6797 44.5605 27.5317 44.6311 27.4275 44.6792C27.3758 44.7069 27.3214 44.7294 27.265 44.7462C27.3125 44.7122 27.3632 44.6827 27.4166 44.6581L27.8397 44.4313C28.3074 44.1903 28.7434 43.8955 29.1382 43.5533C29.3483 43.3583 29.5391 43.1446 29.708 42.9151C29.8632 42.7012 30.0196 42.519 30.1433 42.3627C30.267 42.2064 30.3628 42.0759 30.4234 41.9831C30.4518 41.9331 30.4834 41.8848 30.5179 41.8385Z" fill="#89544C"/>
<path d="M16.6478 43.5604C16.3967 43.6752 16.1599 43.8175 15.9422 43.9847C15.4329 44.4102 15.0482 44.9583 14.8268 45.5737C14.6115 46.1911 14.4751 46.8317 14.4206 47.4812C14.3964 47.7233 14.377 47.922 14.3624 48.0689C14.3551 48.1335 14.3503 48.1864 14.3454 48.2299C14.345 48.2488 14.3413 48.2675 14.3345 48.2851C14.3327 48.2664 14.3327 48.2475 14.3345 48.2287C14.3345 48.1852 14.3345 48.1312 14.3406 48.0677C14.3406 47.9279 14.3576 47.7245 14.3782 47.4742C14.4186 46.8191 14.5486 46.1721 14.7649 45.5502C14.9893 44.9247 15.3859 44.3707 15.9119 43.9482C16.0723 43.8237 16.2478 43.7187 16.4345 43.6356C16.4999 43.6038 16.5557 43.5886 16.5896 43.5745C16.6086 43.5681 16.6281 43.5634 16.6478 43.5604Z" fill="#263238"/>
<path d="M56.4407 48.3063C56.4407 48.3228 43.8048 48.3369 28.2216 48.3369C12.6383 48.3369 0 48.3228 0 48.3063C0 48.2899 12.6334 48.2758 28.2216 48.2758C43.8097 48.2758 56.4407 48.2899 56.4407 48.3063Z" fill="#263238"/>
<path d="M42.8459 48.4943L26.3933 48.6025L36.9438 50.8074L40.7848 49.8788L42.8459 48.4943Z" fill="#E0E0E0"/>
<path d="M26.3933 49.2406L36.9414 51.7817L53.1624 50.5699L56.3705 38.0739C56.6032 37.3205 56.2104 36.908 55.7145 36.9103L40.5811 37.6367C40.3479 37.6493 40.1256 37.7363 39.9487 37.884C39.7718 38.0317 39.6501 38.2319 39.6027 38.4535L36.9438 50.8073L26.3957 48.6024L26.3933 49.2406Z" fill="#EBEBEB"/>
<path d="M26.3933 49.2407C26.3933 49.2407 26.3933 49.1901 26.3933 49.0844C26.3933 48.9786 26.3933 48.8176 26.3933 48.6025H26.4006L36.9547 50.7909L36.928 50.8074L38.1902 44.9308L38.9019 41.6211C39.0239 41.0499 39.1484 40.4704 39.2753 39.8828C39.3383 39.589 39.4018 39.2928 39.4656 38.9942C39.4984 38.845 39.5299 38.6957 39.5626 38.5453C39.5867 38.3894 39.6432 38.2398 39.7287 38.1057C39.8171 37.9699 39.9363 37.8556 40.0774 37.7714C40.2184 37.6873 40.3774 37.6356 40.5423 37.6203C40.866 37.6003 41.1897 37.5874 41.5122 37.5709L43.4945 37.4757L47.5925 37.2771L51.8469 37.0726L54.0293 36.968L55.1301 36.9151L55.683 36.8881C55.8778 36.8759 56.07 36.9365 56.2201 37.0573C56.3458 37.1645 56.4311 37.3093 56.4626 37.4687C56.4905 37.6246 56.4864 37.7844 56.4505 37.9388C56.3745 38.2366 56.2985 38.5331 56.2225 38.8285C56.0714 39.417 55.921 40.0046 55.7715 40.5915C55.4716 41.7566 55.1766 42.9053 54.8864 44.0375C54.3045 46.3012 53.7419 48.492 53.2036 50.5911V50.6111H53.1818L36.9596 51.8146L29.2073 49.9341L27.1086 49.4146L26.5727 49.283C26.4515 49.2536 26.3933 49.2371 26.3933 49.2371L26.5776 49.2795L27.1183 49.4076L29.2025 49.9036L36.9487 51.7653H36.9426L53.1624 50.5465L53.1357 50.5676C53.674 48.4685 54.2366 46.2765 54.8161 44.0129C55.1071 42.8814 55.4017 41.7323 55.7 40.5656C55.8503 39.9835 56.0011 39.3958 56.1522 38.8027C56.2274 38.5088 56.3026 38.215 56.3789 37.9176C56.4126 37.7717 56.4167 37.6208 56.3911 37.4734C56.3632 37.328 56.2869 37.1955 56.174 37.0961C55.8952 36.8528 55.4866 36.9727 55.1265 36.9692L54.0256 37.0221L51.8433 37.1267L47.5889 37.33L43.4909 37.5263L41.5086 37.6215C41.1824 37.6379 40.8563 37.6497 40.5386 37.6697C40.3828 37.6844 40.2326 37.7334 40.0992 37.8128C39.9658 37.8922 39.8528 38 39.7687 38.128C39.6876 38.2571 39.6336 38.4005 39.6099 38.55C39.5784 38.6992 39.5457 38.8497 39.5141 38.9978C39.4487 39.2963 39.3856 39.5925 39.3214 39.8863C39.1953 40.4748 39.0704 41.0542 38.9467 41.6246C38.7042 42.7647 38.4662 43.8679 38.2326 44.9343C37.7719 47.0628 37.3463 49.0326 36.962 50.8109V50.8309H36.9402L26.3921 48.6119V48.606C26.3921 48.8199 26.3921 48.9798 26.3921 49.0855C26.3921 49.1913 26.3933 49.2407 26.3933 49.2407Z" fill="#263238"/>
<path d="M47.2372 43.1854C47.0786 43.209 46.9292 43.2726 46.8039 43.3697C46.6786 43.4669 46.5817 43.5942 46.5231 43.739C46.4703 43.8859 46.4717 44.0461 46.5272 44.1921C46.5827 44.3381 46.6889 44.4608 46.8274 44.5394C47.1645 44.7051 47.601 44.5112 47.7974 44.1974C47.8574 44.0968 47.8953 43.9852 47.9087 43.8697C47.922 43.7542 47.9105 43.6372 47.875 43.5262C47.8046 43.2912 47.39 43.1372 47.2372 43.1854Z" fill="white"/>
<path d="M47.2372 43.1854C47.2944 43.1632 47.3577 43.1607 47.4166 43.1784C47.4861 43.1925 47.5533 43.2154 47.6167 43.2465C47.7038 43.2851 47.7802 43.3431 47.8398 43.4158C47.8747 43.4597 47.8987 43.5107 47.9101 43.5651C47.9251 43.6208 47.9345 43.6779 47.938 43.7355C47.9468 43.8646 47.9252 43.994 47.8749 44.1139C47.8125 44.2494 47.7158 44.3673 47.5937 44.4568C47.4715 44.5462 47.328 44.6041 47.1766 44.6252C47.0154 44.6452 46.8525 44.603 46.7231 44.5077C46.6049 44.4188 46.5198 44.295 46.4806 44.1551C46.4454 44.0296 46.4454 43.8973 46.4806 43.7719C46.5136 43.6642 46.5702 43.5648 46.6467 43.4804C46.7577 43.3607 46.8989 43.2712 47.0565 43.2207C47.0989 43.2069 47.1422 43.1963 47.1863 43.1889C47.2166 43.1889 47.2323 43.1889 47.2323 43.1889C47.2323 43.1889 47.1705 43.2042 47.065 43.2454C46.9165 43.3023 46.7846 43.3935 46.6807 43.511C46.611 43.592 46.5601 43.6866 46.5315 43.7884C46.4993 43.9038 46.4993 44.0255 46.5315 44.141C46.567 44.2684 46.6439 44.3814 46.751 44.463C46.868 44.5479 47.0147 44.5851 47.1596 44.5664C47.2999 44.5464 47.4329 44.493 47.5468 44.4109C47.6606 44.3289 47.7517 44.2208 47.8119 44.0963C47.8604 43.9849 47.8823 43.8644 47.8761 43.7437C47.8772 43.6393 47.8492 43.5365 47.7949 43.4463C47.7405 43.3772 47.6709 43.3206 47.5912 43.2806C47.5309 43.249 47.467 43.2242 47.4009 43.2066C47.3479 43.1907 47.2926 43.1835 47.2372 43.1854Z" fill="#263238"/>
<path d="M15.2074 20.5852H6.86961C6.66735 20.5852 6.47338 20.6631 6.33036 20.8017C6.18734 20.9404 6.10699 21.1284 6.10699 21.3245V29.4071C6.10699 29.6032 6.18734 29.7913 6.33036 29.9299C6.47338 30.0685 6.66735 30.1464 6.86961 30.1464H12.6383L14.9589 31.9987V30.1464H15.2074C15.4097 30.1464 15.6037 30.0685 15.7467 29.9299C15.8897 29.7913 15.9701 29.6032 15.9701 29.4071V21.3245C15.9701 21.1284 15.8897 20.9404 15.7467 20.8017C15.6037 20.6631 15.4097 20.5852 15.2074 20.5852Z" fill="white"/>
<path d="M6.96177 20.5852H15.2426C15.4355 20.5852 15.6206 20.6595 15.757 20.7918C15.8934 20.924 15.9701 21.1034 15.9701 21.2904V23.5764C15.9701 23.5836 15.9671 23.5905 15.9619 23.5955C15.9567 23.6006 15.9496 23.6034 15.9422 23.6034H6.13489C6.1275 23.6034 6.12041 23.6006 6.11518 23.5955C6.10995 23.5905 6.10701 23.5836 6.10701 23.5764V21.4127C6.10636 21.3037 6.12804 21.1957 6.17078 21.095C6.21353 20.9943 6.27648 20.9027 6.356 20.8258C6.43551 20.7488 6.53001 20.6879 6.634 20.6466C6.73798 20.6053 6.8494 20.5844 6.96177 20.5852Z" fill="#FF725E"/>
<path d="M10.3614 25.0291V28.2789H9.58545V25.6321H8.91498V25.0291H10.3614Z" fill="#263238"/>
<path d="M13.5719 25.0291V25.5157L12.3267 28.2789H11.478L12.6807 25.6415H11.569V26.1703H10.8791V25.0291H13.5719Z" fill="#263238"/>
<path d="M12.4163 22.2977C12.4163 22.3153 11.7386 22.3282 10.9032 22.3282C10.0679 22.3282 9.38892 22.3153 9.38892 22.2977C9.38892 22.28 10.0667 22.2648 10.9044 22.2648C11.7422 22.2648 12.4163 22.2812 12.4163 22.2977Z" fill="#263238"/>
<path d="M15.2074 20.5852H15.2595C15.3103 20.5873 15.3608 20.5948 15.4099 20.6075C15.605 20.6574 15.7719 20.7799 15.8742 20.9484C15.9486 21.0715 15.9855 21.2125 15.9809 21.355C15.9809 21.5102 15.9809 21.6783 15.9809 21.8593C15.9809 22.2236 15.9809 22.6408 15.9809 23.1086C15.9809 24.043 15.9809 25.176 15.987 26.47C15.987 27.1176 15.987 27.8064 15.987 28.5315C15.987 28.7125 15.987 28.8959 15.987 29.0816V29.3613C15.9905 29.4588 15.977 29.5562 15.947 29.6493C15.8981 29.7927 15.8062 29.9188 15.6832 30.0115C15.5601 30.1042 15.4114 30.1594 15.2559 30.1699C15.1504 30.1758 15.0522 30.1699 14.9492 30.1699L14.977 30.1429C14.977 30.7306 14.977 31.3523 14.977 31.9952V32.0551L14.9286 32.0164L12.608 30.1664L12.6274 30.1723H6.85988C6.77003 30.1705 6.68112 30.1542 6.59678 30.1241C6.4269 30.0645 6.28344 29.9499 6.19062 29.7997C6.1447 29.7272 6.11152 29.6477 6.09241 29.5646C6.07783 29.4812 6.07214 29.3965 6.07544 29.3119V27.8475C6.07544 26.5617 6.07544 25.3217 6.07544 24.1405C6.07544 23.5529 6.07544 22.9735 6.07544 22.414C6.07544 22.1343 6.07544 21.86 6.07544 21.5913C6.07003 21.4552 6.07489 21.3189 6.08999 21.1834C6.11636 21.0485 6.17952 20.9228 6.2729 20.8195C6.36628 20.7161 6.48648 20.6389 6.62103 20.5958C6.75124 20.5614 6.88653 20.5487 7.02113 20.5582H7.79102H9.23744L13.6022 20.5676H14.7891H15.0971C15.1674 20.5676 15.2026 20.5676 15.2026 20.5676H15.0971H14.7891L13.6022 20.5735L9.23744 20.584H7.02477C6.89592 20.5749 6.76641 20.5868 6.64164 20.6193C6.51449 20.6679 6.40341 20.7491 6.32035 20.8544C6.23228 20.9505 6.1724 21.0678 6.14697 21.194C6.1331 21.3264 6.12905 21.4595 6.13485 21.5925V22.4152C6.13485 22.9746 6.13485 23.5517 6.13485 24.1417C6.13485 25.317 6.13485 26.5629 6.13485 27.8487V29.3167C6.13148 29.3973 6.13676 29.478 6.15061 29.5576C6.17605 29.6752 6.23207 29.7845 6.31333 29.8752C6.3946 29.9659 6.49843 30.035 6.61497 30.0759C6.77811 30.1202 6.94819 30.1353 7.11691 30.1206H12.6456L12.654 30.1264L14.9734 31.9799L14.9249 32.0023C14.9249 31.3594 14.9249 30.7341 14.9249 30.15V30.1229H14.954C15.0546 30.1229 15.1589 30.1229 15.2571 30.1229C15.3539 30.1158 15.4482 30.0902 15.5348 30.0477C15.6201 30.006 15.6962 29.9485 15.7586 29.8783C15.821 29.8081 15.8686 29.7267 15.8985 29.6387C15.9278 29.5511 15.9409 29.4592 15.9373 29.3672V29.0816C15.9373 28.8959 15.9373 28.7125 15.9373 28.5315C15.9373 27.8064 15.9373 27.1212 15.9373 26.47C15.9373 25.1772 15.9373 24.043 15.9373 23.1086C15.9373 22.6385 15.9373 22.2236 15.9373 21.8593C15.9373 21.4949 15.9858 21.174 15.8379 20.9578C15.7399 20.7908 15.5778 20.6683 15.3868 20.6169C15.328 20.6018 15.268 20.5912 15.2074 20.5852Z" fill="#263238"/>
<path d="M12.5098 19.6485H12.4892C12.3178 19.6485 12.1788 19.7832 12.1788 19.9494V21.5067C12.1788 21.6729 12.3178 21.8076 12.4892 21.8076H12.5098C12.6812 21.8076 12.8202 21.6729 12.8202 21.5067V19.9494C12.8202 19.7832 12.6812 19.6485 12.5098 19.6485Z" fill="#E0E0E0"/>
<path d="M12.5109 21.8075C12.577 21.7985 12.6395 21.7735 12.6928 21.7347C12.7526 21.6876 12.7909 21.6196 12.7995 21.5454C12.7995 21.4596 12.7995 21.3527 12.7995 21.2399C12.7995 21.0048 12.7995 20.738 12.7934 20.4383C12.7934 20.2867 12.7934 20.128 12.7934 19.9682C12.7954 19.9296 12.789 19.8911 12.7745 19.8552C12.76 19.8193 12.7378 19.7868 12.7094 19.7598C12.681 19.7328 12.647 19.712 12.6096 19.6986C12.5723 19.6853 12.5324 19.6798 12.4928 19.6826C12.4528 19.6827 12.4134 19.691 12.377 19.7071C12.3406 19.7231 12.3082 19.7464 12.2818 19.7754C12.2565 19.8047 12.2374 19.8386 12.2258 19.8752C12.2141 19.9117 12.2101 19.9501 12.2139 19.9881C12.2139 20.1527 12.2139 20.3114 12.2139 20.4583C12.2139 20.758 12.2139 21.0295 12.2139 21.261C12.2139 21.3174 12.2139 21.3715 12.2139 21.4232C12.2095 21.4705 12.2095 21.5181 12.2139 21.5654C12.2291 21.6385 12.2724 21.7033 12.3351 21.7464C12.3915 21.7817 12.4561 21.8027 12.5231 21.8075C12.5055 21.811 12.4873 21.811 12.4697 21.8075C12.4171 21.8051 12.3661 21.7893 12.3218 21.7617C12.2505 21.7172 12.1997 21.6477 12.18 21.5678C12.1722 21.5184 12.1694 21.4684 12.1715 21.4185C12.1715 21.3668 12.1715 21.3127 12.1715 21.2563C12.1715 21.0212 12.1715 20.7533 12.1642 20.4536C12.1642 20.3031 12.1642 20.1445 12.1642 19.9834C12.1599 19.9381 12.165 19.8924 12.1791 19.849C12.1933 19.8056 12.2162 19.7654 12.2466 19.7307C12.2784 19.6942 12.3179 19.6648 12.3625 19.6445C12.407 19.6242 12.4556 19.6135 12.5049 19.6132C12.5535 19.6101 12.6022 19.6171 12.6478 19.6337C12.6934 19.6503 12.7348 19.6762 12.7692 19.7096C12.8037 19.7429 12.8303 19.7831 12.8475 19.8273C12.8646 19.8715 12.8718 19.9187 12.8686 19.9658C12.8686 20.1292 12.8686 20.2878 12.8686 20.4359C12.8686 20.7356 12.8686 21.006 12.8613 21.2375C12.8613 21.355 12.8613 21.4526 12.8529 21.5478C12.8477 21.5878 12.8343 21.6264 12.8135 21.6613C12.7926 21.6963 12.7648 21.7268 12.7316 21.7511C12.69 21.7818 12.6405 21.8009 12.5885 21.8064C12.5637 21.8162 12.5361 21.8166 12.5109 21.8075Z" fill="#263238"/>
<path d="M9.49939 19.6485H9.47878C9.30736 19.6485 9.1684 19.7832 9.1684 19.9494V21.5067C9.1684 21.6729 9.30736 21.8076 9.47878 21.8076H9.49939C9.67081 21.8076 9.80977 21.6729 9.80977 21.5067V19.9494C9.80977 19.7832 9.67081 19.6485 9.49939 19.6485Z" fill="#E0E0E0"/>
<path d="M9.49926 21.8076C9.56571 21.7989 9.62875 21.7738 9.68233 21.7347C9.74214 21.6876 9.78046 21.6197 9.78903 21.5455C9.78903 21.4597 9.78903 21.3527 9.78903 21.2399C9.78903 21.0048 9.78903 20.738 9.78175 20.4383C9.78175 20.2867 9.78175 20.128 9.78175 19.9682C9.78374 19.9297 9.77727 19.8912 9.76278 19.8553C9.74828 19.8194 9.7261 19.7868 9.69768 19.7598C9.66926 19.7328 9.63526 19.712 9.59792 19.6987C9.56058 19.6854 9.52076 19.6799 9.48107 19.6826C9.44112 19.6827 9.40165 19.691 9.36527 19.707C9.32889 19.723 9.29645 19.7463 9.27011 19.7754C9.24458 19.8047 9.22531 19.8385 9.21345 19.8751C9.20158 19.9116 9.19735 19.95 9.201 19.9882C9.201 20.1527 9.201 20.3114 9.201 20.4583C9.201 20.758 9.201 21.0295 9.19373 21.261C9.19373 21.3175 9.19373 21.3715 9.19373 21.4232C9.18927 21.4705 9.18927 21.5181 9.19373 21.5655C9.20841 21.6387 9.25188 21.7036 9.31497 21.7465C9.37088 21.7818 9.43512 21.8028 9.50168 21.8076C9.50168 21.8076 9.48471 21.8076 9.44833 21.8076C9.39613 21.8051 9.34552 21.7893 9.30163 21.7617C9.22994 21.7176 9.179 21.648 9.15978 21.5678C9.15221 21.5184 9.14896 21.4685 9.15008 21.4185C9.15008 21.3668 9.15008 21.3128 9.15008 21.2563C9.15008 21.0213 9.15008 20.7533 9.15008 20.4536C9.15008 20.3032 9.15008 20.1445 9.15008 19.9835C9.14295 19.8919 9.17297 19.8012 9.23374 19.7308C9.26541 19.6942 9.30491 19.6647 9.34951 19.6444C9.3941 19.6241 9.44272 19.6135 9.49198 19.6132C9.54053 19.6103 9.58917 19.6174 9.63466 19.6341C9.68016 19.6508 9.72148 19.6767 9.75587 19.71C9.79027 19.7434 9.81696 19.7834 9.83417 19.8275C9.85138 19.8716 9.85872 19.9188 9.85571 19.9658C9.85571 20.1292 9.85571 20.2879 9.85571 20.436C9.85571 20.7357 9.85571 21.006 9.85571 21.2375C9.85571 21.3551 9.85571 21.4526 9.84722 21.5478C9.83585 21.6284 9.79231 21.7014 9.72598 21.7512C9.68424 21.7816 9.63484 21.8007 9.58291 21.8064C9.55627 21.8174 9.52622 21.8178 9.49926 21.8076Z" fill="#263238"/>
<g opacity="0.3">
<path d="M8.80096 20.6757C8.84138 21.0585 8.8036 21.4453 8.68976 21.8139C8.57593 22.1826 8.38827 22.5258 8.13752 22.8242C7.88677 23.1225 7.57784 23.3699 7.22839 23.5525C6.87894 23.735 6.4958 23.8489 6.10089 23.8879L6.22213 22.2812L7.72433 20.6981L8.80096 20.6757Z" fill="black"/>
</g>
<path d="M6.15911 23.2196C7.67324 22.8495 8.59124 21.3596 8.20951 19.8918C7.82778 18.424 6.29088 17.5341 4.77674 17.9042C3.26261 18.2742 2.34461 19.7641 2.72634 21.2319C3.10807 22.6997 4.64497 23.5896 6.15911 23.2196Z" fill="white"/>
<path d="M5.46436 23.5987C4.86385 23.5984 4.27611 23.4306 3.77118 23.1155C3.26625 22.8004 2.86542 22.3512 2.61646 21.8215C2.3675 21.2917 2.28091 20.7037 2.36701 20.1276C2.45311 19.5515 2.70826 19.0115 3.10207 18.572C3.49587 18.1326 4.01172 17.8121 4.58814 17.6489C5.16456 17.4856 5.77724 17.4865 6.35317 17.6513C6.9291 17.8162 7.444 18.138 7.8365 18.5786C8.229 19.0192 8.48256 19.5599 8.56695 20.1362C8.68258 20.9333 8.4675 21.7422 7.96887 22.3857C7.47024 23.0293 6.72873 23.4549 5.9069 23.5694C5.76025 23.589 5.61239 23.5988 5.46436 23.5987ZM5.47164 18.1182C5.34995 18.1181 5.2284 18.1263 5.10791 18.1429C4.61439 18.2116 4.15295 18.4205 3.78189 18.7434C3.41083 19.0662 3.14681 19.4884 3.02319 19.9566C2.89957 20.4248 2.9219 20.9181 3.08735 21.374C3.25281 21.83 3.55397 22.2281 3.95277 22.5182C4.35157 22.8083 4.83012 22.9772 5.32795 23.0037C5.82578 23.0303 6.32055 22.9131 6.74973 22.6671C7.17891 22.4212 7.52324 22.0574 7.73922 21.6218C7.9552 21.1861 8.03313 20.6982 7.96317 20.2197C7.87801 19.6375 7.57924 19.1046 7.12163 18.7186C6.66401 18.3326 6.07822 18.1195 5.47164 18.1182Z" fill="#455A64"/>
<path d="M5.47173 18.1182C5.48541 18.1164 5.49928 18.1164 5.51295 18.1182C5.53963 18.1182 5.57964 18.1182 5.6342 18.1182C5.7888 18.1249 5.94233 18.1466 6.09249 18.1829C6.33074 18.2395 6.5591 18.3298 6.77024 18.4508C7.05152 18.6115 7.29846 18.823 7.49769 19.0737C7.73867 19.3789 7.90192 19.7349 7.97417 20.1127C7.99276 20.2158 8.00571 20.3198 8.01297 20.4242C8.01601 20.4778 8.01601 20.5316 8.01297 20.5852C8.01297 20.6393 8.01297 20.6945 8.01297 20.7497C7.99355 20.9754 7.94466 21.1977 7.86748 21.4115C7.77714 21.6342 7.65688 21.8445 7.50982 22.0367C7.35514 22.2347 7.17273 22.4107 6.96786 22.5597C6.52982 22.8709 6.00087 23.0387 5.45779 23.0387C4.91471 23.0387 4.38576 22.8709 3.94772 22.5597C3.54043 22.2696 3.23181 21.8681 3.06144 21.4068C2.98607 21.1901 2.93962 20.9649 2.92322 20.7368C2.90777 20.5237 2.92081 20.3096 2.96202 20.0998C3.05289 19.6371 3.27957 19.2097 3.61486 18.8688C3.95014 18.528 4.37977 18.2881 4.85219 18.1781C4.95039 18.157 5.0389 18.1417 5.11528 18.1323L5.31048 18.1217H5.43172H5.47294L5.43172 18.1276L5.31048 18.1382L5.11649 18.1546C5.04011 18.1664 4.95403 18.1829 4.85703 18.2064C4.62233 18.2655 4.39743 18.3565 4.18899 18.4767C3.91526 18.6367 3.67506 18.8452 3.48093 19.0914C3.24557 19.3911 3.08572 19.7401 3.01415 20.1104C2.97421 20.316 2.96239 20.5258 2.97899 20.7345C2.99766 20.9549 3.04533 21.1722 3.12085 21.3809C3.20524 21.5989 3.31898 21.8052 3.45911 21.9944C3.61252 22.1876 3.7924 22.3596 3.99379 22.5057C4.42144 22.8085 4.93731 22.9716 5.46688 22.9716C5.99646 22.9716 6.51232 22.8085 6.93998 22.5057C7.33858 22.2237 7.64195 21.8335 7.81171 21.3844C7.88906 21.176 7.93797 20.9587 7.9572 20.738C7.96447 20.6851 7.9572 20.631 7.9572 20.5782C7.96023 20.5257 7.96023 20.4731 7.9572 20.4207C7.94629 20.3172 7.94144 20.2138 7.92083 20.1139C7.85138 19.7433 7.69361 19.3936 7.46011 19.0925C7.11772 18.6545 6.63428 18.3397 6.08643 18.1981C5.9379 18.1602 5.78613 18.1355 5.63298 18.1241C5.5275 18.1206 5.47173 18.1217 5.47173 18.1182Z" fill="#263238"/>
<path d="M5.46434 23.5988H5.51526L5.66318 23.5905C5.72865 23.5905 5.80867 23.5776 5.90566 23.5635L6.22938 23.4989C6.52002 23.4226 6.7989 23.3092 7.05868 23.1616C7.39936 22.9604 7.69829 22.6993 7.94011 22.3917C8.23108 22.0174 8.429 21.583 8.51843 21.1224C8.53245 21.0604 8.54217 20.9976 8.54753 20.9343C8.54753 20.8709 8.56208 20.8074 8.56814 20.7428C8.57421 20.6781 8.56814 20.6123 8.56814 20.5465V20.4466L8.55844 20.3467C8.53969 20.0717 8.48091 19.8006 8.38385 19.5416C8.16533 18.963 7.76938 18.4632 7.24922 18.1091C6.72906 17.7551 6.10959 17.5639 5.47404 17.5612C4.83677 17.5597 4.21454 17.7487 3.6921 18.1025C3.16966 18.4562 2.77243 18.9575 2.55453 19.538C2.36252 20.0421 2.31517 20.5872 2.41752 21.1153C2.46228 21.3543 2.53678 21.5872 2.6394 21.8088C2.68875 21.9126 2.74379 22.0138 2.80429 22.112L2.89401 22.2542L2.99464 22.3847C3.23344 22.6939 3.53147 22.9557 3.87243 23.1557C4.13135 23.3049 4.41047 23.4185 4.70173 23.493C4.8077 23.5209 4.91543 23.5421 5.02423 23.5565C5.10438 23.5707 5.18536 23.5801 5.26672 23.5847L5.41584 23.5941H5.46677C5.44986 23.5962 5.43275 23.5962 5.41584 23.5941H5.26672C5.18549 23.5922 5.10449 23.5852 5.02423 23.5729C4.9146 23.5604 4.80602 23.5403 4.6993 23.513C4.00539 23.35 3.39081 22.9597 2.95948 22.4082L2.85763 22.2765L2.76549 22.1332C2.70338 22.0339 2.64672 21.9315 2.59575 21.8264C2.49102 21.601 2.4145 21.3642 2.36781 21.1212C2.25951 20.5835 2.30393 20.0273 2.49633 19.5122C2.71683 18.9195 3.12095 18.4073 3.65335 18.0458C4.18576 17.6843 4.82041 17.4913 5.4704 17.493C6.11992 17.4934 6.75353 17.6878 7.28503 18.0498C7.81652 18.4117 8.2201 18.9236 8.44084 19.5157C8.5396 19.7804 8.5988 20.0575 8.61664 20.3384L8.62513 20.4395V20.5406C8.62513 20.6076 8.62513 20.6746 8.62513 20.7404C8.62513 20.8062 8.61058 20.872 8.6033 20.9367C8.59813 21.0008 8.588 21.0644 8.57299 21.1271C8.48001 21.5947 8.27668 22.0352 7.97891 22.4141C7.73194 22.7237 7.42719 22.9856 7.0805 23.1862C6.8167 23.3329 6.53367 23.4444 6.23908 23.5177L5.91173 23.5776C5.81716 23.5894 5.73592 23.5953 5.66924 23.5976C5.60256 23.6 5.548 23.5976 5.52011 23.5976C5.49223 23.5976 5.46434 23.5988 5.46434 23.5988Z" fill="#263238"/>
<path d="M6.94673 16.7763L6.68842 17.1779L8.34968 18.1821L8.60799 17.7805L6.94673 16.7763Z" fill="#455A64"/>
<path d="M8.30135 18.204C8.32036 18.1636 8.34182 18.1244 8.36561 18.0865L8.54384 17.7985V17.8244C8.16798 17.6046 7.56056 17.2426 6.88039 16.8301L6.92404 16.8207V16.8277L6.91555 16.8406L6.89858 16.8653L6.86584 16.917L6.80037 17.0181C6.75834 17.0847 6.71793 17.1505 6.67913 17.2156L6.66943 17.1744C7.13621 17.4589 7.54237 17.7116 7.83578 17.8973L8.18253 18.117C8.2245 18.1439 8.26497 18.173 8.30378 18.204C8.26181 18.1849 8.2213 18.1629 8.18253 18.1382L7.83214 17.936C7.53389 17.7621 7.11196 17.5141 6.63306 17.2308L6.60638 17.2144L6.62336 17.1897L6.7446 16.9911L6.81007 16.89L6.84281 16.8395L6.85978 16.8136L6.86827 16.8007V16.7948L6.9107 16.7854C7.59208 17.1979 8.19345 17.5682 8.56202 17.7997L8.57778 17.8103L8.56808 17.8256C8.48079 17.9548 8.41168 18.0536 8.36561 18.1206C8.34632 18.1499 8.32484 18.1778 8.30135 18.204Z" fill="#263238"/>
<path d="M2.90722 17.4454L1.54901 18.9435L1.91512 19.2554L3.27333 17.7573L2.90722 17.4454Z" fill="#455A64"/>
<path d="M1.91685 19.2547C1.91685 19.2547 1.95323 19.2077 2.0187 19.1301L2.29634 18.8069C2.53883 18.5354 2.86618 18.1605 3.24688 17.7374V17.7797L2.88315 17.4682H2.92801L2.92074 17.4765L2.9074 17.4906L2.88194 17.5188L2.82981 17.5764L2.72675 17.6939L2.52549 17.916L2.15328 18.3227L1.56889 18.955V18.9292C1.67437 19.0244 1.76045 19.1031 1.82835 19.1642C1.89624 19.2253 1.92292 19.2536 1.92292 19.2559C1.88784 19.2352 1.85494 19.2112 1.82471 19.1842C1.76045 19.1337 1.66467 19.0573 1.54464 18.9574L1.53009 18.9456L1.54221 18.9327L2.1169 18.2839L2.48063 17.8749C2.54489 17.802 2.61157 17.7292 2.67947 17.6539C2.7122 17.6163 2.74736 17.5787 2.78131 17.5364L2.83344 17.4788L2.85891 17.4506L2.87224 17.4353L2.87952 17.4283H2.92438L3.2881 17.7409L3.31114 17.7609L3.29053 17.7832C2.8977 18.2134 2.55095 18.5871 2.30362 18.8504L2.01385 19.1572C1.98362 19.1916 1.95122 19.2242 1.91685 19.2547Z" fill="#263238"/>
<path d="M4.2337 20.8027L4.47498 20.3584L5.33701 20.7357L6.26451 19.0984L6.69856 19.3406L5.49705 21.4056L4.2337 20.8027Z" fill="#455A64"/>
<path d="M5.49834 21.4092L4.23621 20.8039L4.47869 20.3561L5.33587 20.7369L6.26338 19.0914L6.69985 19.3347L5.49834 21.4092ZM4.23621 20.8015L5.4947 21.4009L6.69379 19.3418L6.26459 19.1067L5.3383 20.7369L4.47869 20.362L4.23621 20.8015Z" fill="#263238"/>
<path d="M3.78275 23.9466C3.73667 23.9336 3.69232 23.9155 3.65059 23.8925C3.60173 23.8699 3.55436 23.8444 3.50874 23.8161C3.4436 23.7802 3.38047 23.741 3.3196 23.6986C3.15853 23.5941 3.00721 23.4761 2.86737 23.346C2.69663 23.1864 2.54158 23.0117 2.40422 22.8242C2.26955 22.6351 2.15307 22.4345 2.05626 22.2248C1.9793 22.0526 1.91726 21.8745 1.87076 21.6923C1.852 21.6226 1.83703 21.552 1.8259 21.4808C1.8146 21.4277 1.80691 21.3739 1.80286 21.3198C1.7956 21.2743 1.79316 21.2282 1.79559 21.1823C1.80771 21.1823 1.82711 21.3774 1.91683 21.6818C1.96837 21.8594 2.03362 22.0331 2.11203 22.2013C2.21002 22.4064 2.32603 22.603 2.45878 22.7889C2.59117 22.9751 2.73961 23.1501 2.90253 23.3119C3.03908 23.44 3.18539 23.5578 3.34021 23.6645C3.60452 23.8514 3.78881 23.936 3.78275 23.9466Z" fill="#263238"/>
<path d="M2.3521 23.3225C2.27477 23.2562 2.2067 23.1803 2.14962 23.0969C2.00241 22.9017 1.87377 22.694 1.76529 22.4763C1.65707 22.2575 1.5706 22.0293 1.50704 21.7946C1.47338 21.6998 1.45339 21.6009 1.44763 21.5008C1.48629 21.5928 1.51909 21.687 1.54584 21.7829C1.62097 22.0102 1.7117 22.2325 1.81742 22.4481C1.92477 22.6623 2.04627 22.8696 2.18115 23.0687C2.24439 23.1492 2.30152 23.234 2.3521 23.3225Z" fill="#263238"/>
</svg>
