<svg width="208" height="191" viewBox="0 0 208 191" fill="none" xmlns="http://www.w3.org/2000/svg">
<path d="M208 190.707C208 190.784 161.436 190.846 104.003 190.846C46.5695 190.846 0 190.784 0 190.707C0 190.63 46.554 190.568 104.003 190.568C161.451 190.568 208 190.63 208 190.707Z" fill="#263238"/>
<path d="M179.001 174.29C180.88 173.323 183.099 173.195 185.184 173.539C186.307 173.724 187.476 174.059 188.237 174.902C188.999 175.746 189.144 177.227 188.268 177.947C187.748 178.379 187.017 178.441 186.343 178.435C184.706 178.415 182.893 178.127 181.591 179.109C180.844 179.67 180.35 180.601 179.459 180.878C178.589 181.146 177.606 180.637 177.142 179.85C176.679 179.063 176.663 178.081 176.88 177.196C176.88 177.196 177.106 175.267 179.001 174.29Z" fill="#E2906D"/>
<g opacity="0.2">
<path d="M179.001 174.29C180.88 173.323 183.099 173.195 185.184 173.539C186.307 173.724 187.476 174.059 188.237 174.902C188.999 175.746 189.144 177.227 188.268 177.947C187.748 178.379 187.017 178.441 186.343 178.435C184.706 178.415 182.893 178.127 181.591 179.109C180.844 179.67 180.35 180.601 179.459 180.878C178.589 181.146 177.606 180.637 177.142 179.85C176.679 179.063 176.663 178.081 176.88 177.196C176.88 177.196 177.106 175.267 179.001 174.29Z" fill="#E2906D"/>
</g>
<path d="M174.69 165.979C175.838 167.619 178.078 167.074 179.113 166.076C180.148 165.074 180.585 163.623 180.987 162.24C181.898 159.077 182.815 155.759 182.14 152.54C181.939 151.578 181.579 150.616 180.899 149.901C180.22 149.186 179.18 148.76 178.227 149.012C177.1 149.31 176.4 150.411 175.895 151.46C174.407 154.546 173.619 157.961 173.609 161.386C173.604 162.985 173.794 164.662 174.695 165.979" fill="#E2906D"/>
<path d="M171.53 168.334C172.781 166.853 173.018 164.693 172.462 162.841C171.906 160.985 170.649 159.411 169.203 158.12C167.509 156.608 165.511 155.435 163.369 154.679C162.525 154.381 161.634 154.15 160.743 154.232C159.853 154.314 158.957 154.772 158.54 155.564C157.927 156.731 158.514 158.151 159.152 159.308C160.275 161.345 161.557 163.299 162.983 165.135C164.131 166.617 165.449 168.072 167.2 168.741C168.95 169.409 170.768 169.332 171.695 168.118" fill="#E2906D"/>
<g opacity="0.1">
<path d="M171.53 168.334C172.781 166.853 173.018 164.693 172.462 162.842C171.906 160.985 170.649 159.411 169.203 158.12C167.509 156.608 165.511 155.435 163.369 154.679C162.525 154.381 161.634 154.15 160.743 154.232C159.853 154.314 158.957 154.772 158.54 155.564C157.927 156.731 158.514 158.151 159.152 159.308C160.275 161.345 161.557 163.299 162.983 165.135C164.131 166.617 165.449 168.072 167.2 168.741C168.95 169.409 170.768 169.332 171.695 168.118" fill="black"/>
</g>
<path d="M174.613 190.733C174.613 190.733 174.67 190.47 174.716 189.987C174.767 189.442 174.834 188.763 174.917 187.95C175.009 187.097 175.138 186.073 175.375 184.967C175.612 183.862 175.982 182.663 176.461 181.444C176.956 180.236 177.558 179.135 178.263 178.255C178.963 177.371 179.777 176.733 180.539 176.363C181.301 175.987 181.986 175.833 182.454 175.766C182.933 175.72 183.196 175.679 183.196 175.658C183.196 175.638 182.928 175.633 182.439 175.648C181.955 175.679 181.244 175.802 180.441 176.167C179.638 176.522 178.773 177.175 178.042 178.075C177.3 178.97 176.677 180.097 176.173 181.326C175.689 182.565 175.323 183.774 175.097 184.906C174.87 186.032 174.767 187.066 174.7 187.93C174.633 188.794 174.613 189.493 174.597 189.977C174.587 190.46 174.592 190.728 174.613 190.728V190.733Z" fill="#263238"/>
<path d="M174.752 189.169C174.752 189.169 174.767 189.051 174.772 188.824C174.772 188.562 174.772 188.238 174.772 187.837C174.772 186.978 174.772 185.733 174.818 184.201C174.896 181.13 175.158 176.898 175.668 172.238C176.183 167.578 176.862 163.392 177.485 160.383C177.635 159.632 177.779 158.953 177.918 158.357C178.052 157.76 178.165 157.251 178.273 156.834C178.366 156.443 178.443 156.125 178.505 155.873C178.556 155.651 178.577 155.533 178.567 155.533C178.556 155.533 178.515 155.641 178.448 155.857C178.371 156.104 178.278 156.418 178.16 156.803C178.031 157.215 177.902 157.724 177.753 158.315C177.599 158.907 177.434 159.581 177.274 160.337C176.595 163.34 175.879 167.532 175.364 172.202C174.854 176.867 174.623 181.115 174.602 184.191C174.582 185.728 174.618 186.973 174.654 187.832C174.679 188.233 174.7 188.562 174.715 188.819C174.731 189.046 174.746 189.164 174.757 189.164L174.752 189.169Z" fill="#263238"/>
<path d="M174.772 180.976C174.772 180.976 174.787 180.606 174.766 179.942C174.73 179.279 174.638 178.317 174.447 177.144C174.246 175.972 173.974 174.578 173.536 173.066C173.124 171.549 172.553 169.908 171.827 168.237C170.411 164.878 168.485 162.137 166.812 160.434C166.42 159.982 165.983 159.658 165.633 159.339C165.453 159.185 165.293 159.036 165.128 158.912C164.963 158.799 164.814 158.696 164.67 158.598C164.119 158.223 163.81 158.022 163.8 158.043C163.748 158.11 165.036 158.866 166.657 160.589C168.274 162.307 170.143 165.032 171.549 168.36C172.264 170.016 172.841 171.636 173.268 173.143C173.716 174.64 174.015 176.023 174.236 177.18C174.447 178.343 174.576 179.294 174.648 179.953C174.71 180.611 174.756 180.976 174.777 180.976H174.772Z" fill="#263238"/>
<path d="M96.4648 113.174H118.017L126.559 89.3463H125.359L116.895 112.012L96.4648 112.125V113.174Z" fill="#455A64"/>
<path d="M86.9326 116.183L87.7358 190.8H89.924L89.0333 115.628L86.9326 116.183Z" fill="#263238"/>
<path d="M133.08 115.458C132.787 116.883 135.057 190.979 135.057 190.979H137.127L135.454 115.458H133.08Z" fill="#263238"/>
<path d="M158.283 113.174H66.6162V116.944H74.1847L69.2626 190.563L71.4147 190.676L76.342 116.944H150.565L154.164 190.707H156.321L152.727 116.944H158.283V113.174Z" fill="#263238"/>
</svg>
