<svg width="91" height="157" viewBox="0 0 91 157" fill="none" xmlns="http://www.w3.org/2000/svg">
<path d="M29.6778 2.61892L33.8318 5.77731L33.63 11.8169L37.4393 8.8013L39.5373 10.5989L47.5259 0.745728L29.6778 2.61892Z" fill="#E2906D"/>
<path d="M35.3944 7.06677C35.3902 7.25157 33.6285 11.8212 33.6285 11.8212L37.4336 8.80137L35.3902 7.06677H35.3944Z" fill="#E2906D"/>
<g opacity="0.3">
<path d="M35.3944 7.06689C35.3902 7.25169 33.6285 11.8213 33.6285 11.8213L37.4336 8.80149L35.3902 7.06689H35.3944Z" fill="black"/>
</g>
<path d="M47.5283 0.745728L35.3983 7.06671L33.6325 11.8169L33.8343 5.77731L47.5283 0.745728Z" fill="#E2906D"/>
<path opacity="0.1" d="M47.5283 0.745728L35.3983 7.06671L33.6325 11.8169L33.8343 5.77731L47.5283 0.745728Z" fill="black"/>
<path d="M13.8956 82.2341C13.9124 82.2971 14.4043 82.2299 15.0014 82.0829C15.5984 81.9359 16.0651 81.7679 16.0525 81.7091C16.0357 81.6461 15.5437 81.7133 14.9467 81.8603C14.3539 82.0073 13.883 82.1753 13.8956 82.2341Z" fill="#263238"/>
<path d="M10.4527 83.074C10.4696 83.137 10.7681 83.116 11.1213 83.0278C11.4744 82.9396 11.7519 82.822 11.7351 82.759C11.7183 82.696 11.4198 82.717 11.0666 82.8052C10.7134 82.8934 10.4359 83.011 10.4527 83.074Z" fill="#263238"/>
<path d="M24.6456 11.0275C24.6624 11.0905 25.1501 10.9939 25.743 10.8595C26.3358 10.7209 26.8151 10.5907 26.8025 10.5277C26.7941 10.4647 26.2895 10.4941 25.6883 10.6327C25.0871 10.7713 24.6246 10.9687 24.6414 11.0275H24.6456Z" fill="#263238"/>
<path d="M20.5764 12.7706C20.6101 12.8252 21.06 12.6194 21.6065 12.3464C22.1489 12.0734 22.5862 11.8382 22.561 11.7752C22.5357 11.7164 22.0564 11.8634 21.5014 12.1406C20.9506 12.4178 20.5428 12.716 20.5764 12.7706Z" fill="#263238"/>
<path d="M17.0471 15.4458C17.0934 15.492 17.476 15.177 17.9385 14.7822C18.401 14.3832 18.7668 14.0514 18.7247 13.9968C18.6869 13.9464 18.2538 14.2026 17.7871 14.6058C17.3204 15.009 17.0009 15.3996 17.0471 15.4458Z" fill="#263238"/>
<path d="M14.3619 18.9529C14.4208 18.9823 14.6983 18.5749 15.0346 18.0709C15.3668 17.5627 15.6317 17.1469 15.5812 17.1049C15.5308 17.0671 15.1818 17.4283 14.8412 17.9449C14.5007 18.4615 14.3073 18.9235 14.3619 18.9571V18.9529Z" fill="#263238"/>
<path d="M12.83 23.0941C12.8931 23.1067 13.0361 22.6321 13.2042 22.0483C13.3682 21.4645 13.4944 20.9857 13.4355 20.9647C13.3766 20.9437 13.1496 21.3931 12.9814 21.9853C12.8132 22.5817 12.7712 23.0815 12.83 23.0941Z" fill="#263238"/>
<path d="M12.6082 27.5041C12.6713 27.4957 12.6671 27.0001 12.6545 26.3953C12.6377 25.7905 12.6208 25.2949 12.5536 25.2907C12.4905 25.2865 12.4064 25.7821 12.4232 26.3995C12.4358 27.0169 12.5452 27.5083 12.6082 27.5041Z" fill="#263238"/>
<path d="M13.7552 31.7671C13.814 31.7377 13.6459 31.2715 13.444 30.7045C13.238 30.1333 13.0656 29.6713 13.0026 29.6881C12.9437 29.7049 13.0152 30.2005 13.2254 30.7843C13.4356 31.3681 13.7005 31.7965 13.7552 31.7713V31.7671Z" fill="#263238"/>
<path d="M16.3199 35.3494C16.3662 35.3032 16.034 34.9336 15.6388 34.4759C15.2393 34.0223 14.9198 33.6443 14.8651 33.6821C14.8147 33.7157 15.0544 34.1609 15.4664 34.6271C15.8742 35.0932 16.2821 35.3956 16.3241 35.3494H16.3199Z" fill="#263238"/>
<path d="M20.0331 37.7394C20.0584 37.6806 19.6169 37.4496 19.0829 37.1682C18.5448 36.8868 18.1075 36.66 18.0696 36.7146C18.036 36.765 18.427 37.0884 18.9736 37.374C19.5244 37.6596 20.0079 37.7982 20.0331 37.7394Z" fill="#263238"/>
<path d="M24.3467 38.6633C24.3467 38.6003 23.8548 38.5415 23.2535 38.4701C22.6523 38.3987 22.1603 38.3357 22.1477 38.3987C22.1351 38.4575 22.6102 38.6255 23.2283 38.6969C23.8421 38.7725 24.3467 38.7263 24.3467 38.6633Z" fill="#263238"/>
<path d="M28.6733 37.8485C28.6481 37.7897 28.1771 37.9451 27.5969 38.1173C27.0167 38.2937 26.5416 38.4239 26.5542 38.4911C26.5626 38.5541 27.0714 38.5205 27.6642 38.3399C28.2612 38.1593 28.6985 37.9073 28.6733 37.8485Z" fill="#263238"/>
<path d="M31.7425 34.8078C31.6794 34.7868 31.486 35.2362 31.1412 35.7234C30.8007 36.2148 30.4643 36.576 30.5106 36.6264C30.5484 36.6726 30.9689 36.3744 31.3304 35.8536C31.6962 35.337 31.8013 34.8204 31.7425 34.8036V34.8078Z" fill="#263238"/>
<path d="M29.8801 31.3678C29.8633 31.435 30.3384 31.582 30.8135 31.9222C31.297 32.2624 31.5493 32.6824 31.6082 32.653C31.667 32.6362 31.482 32.1154 30.9481 31.7374C30.4183 31.3594 29.8843 31.3132 29.8801 31.3678Z" fill="#263238"/>
<path d="M26.0787 32.9431C26.1376 32.9767 26.4066 32.5609 26.8439 32.1619C27.2728 31.7587 27.7269 31.5571 27.7016 31.4941C27.689 31.4353 27.1635 31.5529 26.6841 31.9939C26.2132 32.4307 26.024 32.9221 26.0787 32.9473V32.9431Z" fill="#263238"/>
<path d="M25.9368 37.2312C25.9957 37.206 25.8401 36.7398 25.7308 36.1476C25.6173 35.5596 25.5878 35.0682 25.5248 35.064C25.4617 35.0598 25.386 35.5722 25.5037 36.1896C25.6215 36.807 25.8822 37.2564 25.9368 37.227V37.2312Z" fill="#263238"/>
<path d="M28.8119 40.5281C28.8497 40.4735 28.4671 40.1585 28.0088 39.7637C27.5505 39.3731 27.1889 39.0371 27.1385 39.0791C27.0922 39.1211 27.3865 39.5369 27.8575 39.9401C28.3284 40.3433 28.7782 40.5785 28.8119 40.5281Z" fill="#263238"/>
<path d="M32.7475 42.5694C32.7727 42.5106 32.3438 42.2586 31.7889 42.0024C31.2339 41.7462 30.7587 41.5866 30.7293 41.6454C30.6999 41.7042 31.1287 41.9562 31.6879 42.2124C32.2471 42.4686 32.718 42.6282 32.7433 42.5694H32.7475Z" fill="#263238"/>
<path d="M36.6958 44.5769C36.7294 44.5223 36.33 44.2241 35.8002 43.9049C35.2663 43.5941 34.7869 43.4345 34.7659 43.4849C34.7365 43.5479 35.1611 43.7999 35.6867 44.1065C36.2081 44.4173 36.6579 44.6273 36.6958 44.5769Z" fill="#263238"/>
<path d="M40.0464 47.4622C40.0927 47.4202 39.8026 47.0128 39.3611 46.5802C38.9196 46.1476 38.5034 45.862 38.4655 45.9124C38.4235 45.9628 38.7683 46.3198 39.2013 46.744C39.6344 47.1682 40.0002 47.5042 40.0506 47.4622H40.0464Z" fill="#263238"/>
<path d="M42.5867 51.0869C42.6413 51.0575 42.4563 50.5913 42.1326 50.0663C41.8089 49.5413 41.4767 49.1633 41.4262 49.2011C41.3716 49.2389 41.6197 49.6715 41.935 50.1881C42.2545 50.7047 42.5278 51.1163 42.5867 51.0869Z" fill="#263238"/>
<path d="M44.2037 55.2029C44.2668 55.1861 44.1953 54.6905 44.0019 54.1025C43.8127 53.5145 43.5773 53.0735 43.5184 53.0945C43.4595 53.1197 43.5941 53.5943 43.7833 54.1739C43.9725 54.7535 44.1407 55.2155 44.2037 55.2029Z" fill="#263238"/>
<path d="M44.7816 59.5834C44.8447 59.5834 44.8993 59.0836 44.8573 58.4704C44.8152 57.8572 44.6933 57.3658 44.6302 57.3784C44.5672 57.3868 44.584 57.8824 44.626 58.4872C44.6681 59.092 44.7185 59.5834 44.7816 59.5876V59.5834Z" fill="#263238"/>
<path d="M44.2004 63.9683C44.2634 63.9851 44.419 63.5105 44.5493 62.9099C44.6965 62.3093 44.7007 61.8053 44.6418 61.7969C44.5788 61.7885 44.4695 62.2715 44.3265 62.8637C44.1962 63.4559 44.1415 63.9515 44.2046 63.9683H44.2004Z" fill="#263238"/>
<path d="M42.4906 68.0421C42.5452 68.0757 42.8438 67.6684 43.1171 67.1182C43.3946 66.568 43.5333 66.085 43.4744 66.0598C43.4156 66.0346 43.1801 66.4714 42.9068 67.0174C42.6377 67.5633 42.4317 68.0128 42.4864 68.0464L42.4906 68.0421Z" fill="#263238"/>
<path d="M39.8324 71.5828C39.8787 71.6248 40.2655 71.3056 40.6607 70.8352C41.0601 70.3648 41.3166 69.9322 41.2661 69.8944C41.2157 69.8566 40.8793 70.222 40.4841 70.684C40.0931 71.146 39.782 71.5366 39.8282 71.5828H39.8324Z" fill="#263238"/>
<path d="M36.4174 74.3968C36.451 74.4514 36.9009 74.2288 37.4012 73.8634C37.9016 73.498 38.2505 73.1368 38.2085 73.0906C38.1664 73.0402 37.7544 73.3174 37.2667 73.6786C36.7747 74.0356 36.3837 74.3422 36.4216 74.3968H36.4174Z" fill="#263238"/>
<path d="M32.4284 76.3036C32.4452 76.3624 32.9414 76.2616 33.5132 76.0306C34.085 75.7996 34.5138 75.5308 34.4844 75.4762C34.455 75.4174 33.9925 75.5896 33.4249 75.8164C32.8615 76.0432 32.4074 76.2406 32.4284 76.3036Z" fill="#263238"/>
<path d="M30.1996 76.8665C30.2123 76.9295 30.2375 76.9757 30.2585 76.9715C30.2795 76.9715 30.2879 76.9126 30.2753 76.8496C30.2627 76.7866 30.2375 76.7404 30.2165 76.7446C30.1954 76.7446 30.187 76.8035 30.1996 76.8665Z" fill="#263238"/>
<path d="M33.4164 65.8717L38.0142 64.3634L38.9534 67.2205L34.3556 68.7288L33.4164 65.8717Z" fill="#E2906D"/>
<g opacity="0.3">
<path d="M33.4164 65.8717L38.0142 64.3634L38.9534 67.2205L34.3556 68.7288L33.4164 65.8717Z" fill="black"/>
</g>
<path d="M33.43 65.8747C33.409 65.9335 34.5904 66.4165 36.0956 66.9709L36.1755 67.0003L36.226 66.9331C36.2512 66.8995 36.2764 66.8659 36.3017 66.8323C37.3023 65.5093 38.076 64.4089 38.0255 64.3711C37.975 64.3333 37.1215 65.3707 36.1167 66.6937C36.0914 66.7273 36.0662 66.7609 36.041 66.7945L36.1713 66.7567C34.6661 66.2107 33.4468 65.8201 33.4258 65.8789L33.43 65.8747Z" fill="#E2906D"/>
<g opacity="0.1">
<path d="M33.43 65.8748C33.409 65.9336 34.5904 66.4166 36.0956 66.971L36.1755 67.0004L36.226 66.9332C36.2512 66.8996 36.2764 66.866 36.3017 66.8324C37.3023 65.5094 38.076 64.409 38.0255 64.3712C37.975 64.3334 37.1215 65.3708 36.1167 66.6938C36.0914 66.7274 36.0662 66.761 36.041 66.7946L36.1713 66.7568C34.6661 66.2108 33.4468 65.8202 33.4258 65.879L33.43 65.8748Z" fill="black"/>
</g>
<path d="M36.6971 66.1181C36.6676 66.1769 37.1553 66.4709 37.7818 66.7733C38.4083 67.0799 38.9381 67.2815 38.9675 67.2227C38.9969 67.1639 38.5092 66.8699 37.8827 66.5675C37.2563 66.2609 36.7265 66.0593 36.6971 66.1181Z" fill="#E2906D"/>
<g opacity="0.1">
<path d="M36.6975 66.1181C36.6681 66.1769 37.1558 66.4709 37.7823 66.7733C38.4088 67.0799 38.9385 67.2815 38.968 67.2227C38.9974 67.1639 38.5097 66.8699 37.8832 66.5675C37.2567 66.2609 36.727 66.0593 36.6975 66.1181Z" fill="black"/>
</g>
<path d="M34.2816 68.7602C34.3404 68.7854 34.5969 68.3066 34.8702 67.6976C35.1477 67.0718 35.3327 66.5384 35.2486 66.5426C35.1855 66.5426 34.9249 66.992 34.66 67.6052C34.3951 68.2184 34.2227 68.735 34.2816 68.7602Z" fill="#E2906D"/>
<g opacity="0.1">
<path d="M34.2816 68.7602C34.3404 68.7854 34.5969 68.3066 34.8702 67.6976C35.1477 67.0718 35.3327 66.5384 35.2486 66.5426C35.1855 66.5426 34.9249 66.992 34.66 67.6052C34.3951 68.2184 34.2227 68.735 34.2816 68.7602Z" fill="black"/>
</g>
<path d="M14.6715 77.0684L26.4956 73.1896L28.912 80.5398L17.0879 84.4186L14.6715 77.0684Z" fill="#E2906D"/>
<path d="M14.6824 77.072C14.6824 77.072 14.8632 77.1728 15.2079 77.3114C15.5948 77.4626 16.0909 77.6558 16.6795 77.8868C17.9282 78.3656 19.6605 79.0124 21.5988 79.718L21.6787 79.7474L21.7291 79.6802C21.7922 79.5962 21.8595 79.508 21.9267 79.4198C23.2175 77.7188 24.3737 76.1732 25.202 75.0434C25.5931 74.5058 25.9168 74.0564 26.1733 73.7036C26.4003 73.3844 26.518 73.2038 26.5054 73.1912C26.4928 73.1828 26.3499 73.3466 26.1018 73.649C25.8327 73.9892 25.4837 74.426 25.0717 74.9468C24.2098 76.0472 23.0325 77.5802 21.7417 79.2812C21.6745 79.3694 21.6072 79.4576 21.5441 79.5416L21.6745 79.5038C19.7362 78.7982 17.9955 78.1766 16.73 77.7398C16.1287 77.5382 15.6284 77.366 15.2332 77.2316C14.88 77.1182 14.6824 77.0594 14.674 77.0762L14.6824 77.072Z" fill="#E2906D"/>
<g opacity="0.2">
<path d="M14.6819 77.072C14.6819 77.072 14.8627 77.1728 15.2074 77.3114C15.5943 77.4626 16.0904 77.6558 16.679 77.8868C17.9278 78.3656 19.66 79.0124 21.5983 79.718L21.6782 79.7474L21.7286 79.6802C21.7917 79.5962 21.859 79.508 21.9262 79.4198C23.217 77.7188 24.3733 76.1732 25.2015 75.0434C25.5926 74.5058 25.9163 74.0564 26.1728 73.7036C26.3998 73.3844 26.5176 73.2038 26.5049 73.1912C26.4923 73.1828 26.3494 73.3466 26.1013 73.649C25.8322 73.9892 25.4832 74.426 25.0712 74.9468C24.2093 76.0472 23.032 77.5802 21.7412 79.2812C21.674 79.3694 21.6067 79.4576 21.5436 79.5416L21.674 79.5038C19.7357 78.7982 17.995 78.1766 16.7295 77.7398C16.1282 77.5382 15.6279 77.366 15.2327 77.2316C14.8795 77.1182 14.6819 77.0594 14.6735 77.0762L14.6819 77.072Z" fill="black"/>
</g>
<path d="M23.085 77.6936C23.0556 77.7524 24.3422 78.4328 25.9525 79.2182C27.5628 80.0036 28.8915 80.5958 28.9209 80.537C28.9503 80.4782 27.6679 79.7978 26.0534 79.0124C24.4431 78.227 23.1145 77.6348 23.085 77.6936Z" fill="#E2906D"/>
<g opacity="0.2">
<path d="M23.0846 77.6936C23.0551 77.7524 24.3417 78.4328 25.952 79.2182C27.5623 80.0036 28.891 80.5958 28.9204 80.537C28.9498 80.4782 27.6675 79.7978 26.0529 79.0124C24.4426 78.227 23.114 77.6348 23.0846 77.6936Z" fill="black"/>
</g>
<path d="M16.879 84.4893C16.9378 84.5145 17.5433 83.2587 18.2286 81.6795C18.914 80.1003 19.4227 78.8026 19.368 78.7774C19.3092 78.7522 18.7037 80.0079 18.0184 81.5871C17.3331 83.1621 16.8243 84.4641 16.879 84.4893Z" fill="#E2906D"/>
<g opacity="0.2">
<path d="M16.8795 84.4893C16.9383 84.5145 17.5438 83.2587 18.2291 81.6795C18.9144 80.1003 19.4232 78.8026 19.3685 78.7774C19.3097 78.7522 18.7042 80.0079 18.0189 81.5871C17.3336 83.1621 16.8248 84.4641 16.8795 84.4893Z" fill="black"/>
</g>
<path d="M25.8526 74.9972C26.6767 75.602 27.8329 75.4256 28.4342 74.6024C29.0396 73.7792 28.863 72.6242 28.0389 72.0236C27.2149 71.4188 26.0586 71.5952 25.4574 72.4184C24.8519 73.2416 25.0285 74.3966 25.8526 74.9972Z" fill="#263238"/>
<path d="M25.7809 73.1701C25.7641 73.1995 26.3191 73.5439 27.0212 73.9387C27.1221 73.9933 27.223 74.0479 27.3197 74.1025L27.3744 74.1319L27.4038 74.0815C27.7192 73.5229 27.9378 73.0987 27.9126 73.0861C27.8873 73.0693 27.6267 73.4725 27.2987 74.0227L27.3828 74.0017C27.2861 73.9471 27.1894 73.8925 27.0885 73.8337C26.3863 73.4389 25.8061 73.1449 25.7893 73.1743L25.7809 73.1701Z" fill="white"/>
<path d="M22.2687 67.159L28.4644 65.1266L29.7303 68.9773L23.5346 71.0097L22.2687 67.159Z" fill="#E2906D"/>
<g opacity="0.2">
<path d="M22.2697 67.1589L28.4653 65.1265L29.7312 68.9771L23.5356 71.0096L22.2697 67.1589Z" fill="black"/>
</g>
<path d="M22.2758 67.1641C22.2758 67.1641 22.3725 67.2145 22.5532 67.2901C22.7551 67.3699 23.0157 67.4707 23.3227 67.5925C23.9786 67.8445 24.8867 68.1805 25.9 68.5501L25.9421 68.5669L25.9673 68.5333C26.0009 68.4913 26.0346 68.4451 26.0724 68.3989C26.7493 67.5085 27.3548 66.6979 27.7878 66.1057C27.9939 65.8243 28.1621 65.5891 28.2966 65.4043C28.4143 65.2363 28.4774 65.1397 28.469 65.1355C28.4606 65.1313 28.3891 65.2153 28.2588 65.3749C28.1158 65.5555 27.935 65.7823 27.7206 66.0553C27.2707 66.6307 26.6526 67.4329 25.9757 68.3275C25.9421 68.3737 25.9042 68.4199 25.8748 68.4619L25.9421 68.4409C24.9288 68.0713 24.0122 67.7479 23.3521 67.5169C23.0368 67.4119 22.7761 67.3195 22.5701 67.2523C22.3851 67.1935 22.28 67.1641 22.28 67.1683L22.2758 67.1641Z" fill="#E2906D"/>
<g opacity="0.2">
<path d="M22.2762 67.164C22.2762 67.164 22.3729 67.2144 22.5537 67.29C22.7556 67.3698 23.0162 67.4706 23.3232 67.5924C23.9791 67.8444 24.8872 68.1804 25.9005 68.55L25.9426 68.5668L25.9678 68.5332C26.0014 68.4912 26.0351 68.445 26.0729 68.3988C26.7498 67.5084 27.3553 66.6978 27.7883 66.1056C27.9944 65.8242 28.1625 65.589 28.2971 65.4042C28.4148 65.2362 28.4779 65.1396 28.4695 65.1354C28.4611 65.1312 28.3896 65.2152 28.2592 65.3748C28.1163 65.5554 27.9355 65.7822 27.7211 66.0552C27.2712 66.6306 26.6531 67.4328 25.9762 68.3274C25.9426 68.3736 25.9047 68.4198 25.8753 68.4618L25.9426 68.4408C24.9293 68.0712 24.0127 67.7478 23.3526 67.5168C23.0373 67.4118 22.7766 67.3194 22.5706 67.2522C22.3856 67.1934 22.2804 67.164 22.2804 67.1682L22.2762 67.164Z" fill="#E2906D"/>
</g>
<path d="M26.6824 67.4917C26.6698 67.5211 27.3383 67.8781 28.1834 68.2897C29.0285 68.7013 29.7223 69.0121 29.7391 68.9785C29.7517 68.9491 29.0832 68.5921 28.2381 68.1805C27.393 67.7689 26.6992 67.4581 26.6824 67.4917Z" fill="#E2906D"/>
<g opacity="0.2">
<path d="M26.6834 67.492C26.6708 67.5214 27.3393 67.8784 28.1844 68.29C29.0295 68.7016 29.7232 69.0124 29.7401 68.9788C29.7527 68.9494 29.0842 68.5924 28.2391 68.1808C27.394 67.7692 26.7002 67.4584 26.6834 67.492Z" fill="#E2906D"/>
</g>
<path d="M23.4287 71.0493C23.4582 71.0619 23.7777 70.4025 24.1351 69.5793C24.4967 68.7519 24.7616 68.0715 24.7321 68.0589C24.7027 68.0463 24.3832 68.7057 24.0258 69.5289C23.6642 70.3563 23.3993 71.0367 23.4287 71.0493Z" fill="#E2906D"/>
<g opacity="0.2">
<path d="M23.4283 71.0493C23.4577 71.0619 23.7772 70.4025 24.1346 69.5793C24.4962 68.7519 24.7611 68.0715 24.7317 68.0589C24.7022 68.0463 24.3827 68.7057 24.0253 69.5289C23.6637 70.3563 23.3988 71.0367 23.4283 71.0493Z" fill="#E2906D"/>
</g>
<path d="M72.0304 18.9611C73.2245 23.6567 78.0008 26.4958 82.7014 25.3073C87.402 24.1145 90.2443 19.3433 89.0544 14.6477C87.8603 9.95209 83.084 7.1129 78.3834 8.3015C73.6828 9.4943 70.8405 14.2655 72.0304 18.9611Z" fill="#263238"/>
<path d="M77.2853 12.0481C77.134 12.1069 78.1305 15.0427 79.5179 18.6043C79.7198 19.1209 79.9174 19.6207 80.1108 20.1037L80.2159 20.3725L80.4808 20.2717C83.3272 19.1755 85.4084 18.2725 85.358 18.1423C85.3075 18.0121 83.1464 18.6925 80.279 19.7341L80.6489 19.9021C80.464 19.4149 80.2705 18.9151 80.0729 18.3985C78.6897 14.8369 77.4409 11.9977 77.2896 12.0565L77.2853 12.0481Z" fill="white"/>
<path d="M23.2698 154.268L23.253 149.648L31.9184 149.56L32.0151 156.318L31.477 156.36C29.0888 156.515 19.3175 156.99 17.7156 156.523C15.9287 156.003 23.2698 154.272 23.2698 154.272V154.268Z" fill="#E2906D"/>
<path d="M28.8699 156.284C28.9876 155.562 29.3828 154.885 29.9547 154.428C30.5307 153.97 31.2412 153.726 31.9728 153.777L31.998 156.196L28.8657 156.284H28.8699Z" fill="#F5F5F5"/>
<path d="M19.6843 155.242C19.6843 155.242 17.1112 156.011 17.4391 156.435C17.7671 156.855 27.656 156.75 32.0161 156.322L31.9993 156.129L20.4621 156.351C20.4621 156.351 20.1889 155.259 19.6843 155.247V155.242Z" fill="#F5F5F5"/>
<path d="M32.1332 156.12C32.1332 156.12 32.0827 156.129 31.986 156.137C31.8557 156.145 31.7169 156.158 31.5572 156.166C31.1283 156.187 30.6028 156.217 29.9847 156.25C28.6561 156.313 26.8187 156.372 24.7879 156.397C22.7572 156.423 20.9156 156.397 19.587 156.368C18.9647 156.347 18.4391 156.334 18.0103 156.318C17.8505 156.309 17.7118 156.305 17.5814 156.297C17.4847 156.292 17.4343 156.284 17.4343 156.284C17.4343 156.284 17.4847 156.28 17.5856 156.276C17.716 156.276 17.8547 156.276 18.0145 156.276C18.4433 156.276 18.9689 156.284 19.5912 156.292C20.9198 156.305 22.7614 156.313 24.7879 156.292C26.8187 156.267 28.6561 156.221 29.9847 156.175C30.607 156.154 31.1325 156.137 31.5614 156.124C31.7212 156.124 31.8599 156.116 31.9902 156.112C32.0869 156.112 32.1416 156.112 32.1416 156.112L32.1332 156.12Z" fill="#263238"/>
<path d="M20.4602 156.481C20.4266 156.486 20.4014 156.112 20.1575 155.734C19.9221 155.352 19.5983 155.163 19.6151 155.137C19.6193 155.112 19.9935 155.272 20.2458 155.679C20.5023 156.082 20.4855 156.49 20.4602 156.481Z" fill="#263238"/>
<path d="M23.0063 155.158C22.981 155.175 22.8591 155.028 22.7288 154.831C22.5984 154.633 22.5143 154.461 22.5396 154.444C22.5648 154.428 22.6867 154.575 22.8171 154.772C22.9474 154.969 23.0315 155.142 23.0063 155.158Z" fill="#263238"/>
<path d="M23.7048 154.78C23.6838 154.801 23.5492 154.713 23.3979 154.579C23.2465 154.444 23.1414 154.323 23.1582 154.302C23.1792 154.281 23.3138 154.369 23.4651 154.503C23.6165 154.638 23.7216 154.759 23.7048 154.78Z" fill="#263238"/>
<path d="M24.1372 153.962C24.1372 153.991 23.9354 154.02 23.6873 154.025C23.4393 154.029 23.2332 154.012 23.2332 153.983C23.2332 153.953 23.4351 153.924 23.6831 153.92C23.9312 153.915 24.1372 153.932 24.1372 153.962Z" fill="#263238"/>
<path d="M24.2825 153.382C24.2909 153.407 24.0723 153.508 23.7779 153.533C23.4836 153.558 23.2524 153.495 23.2566 153.47C23.2608 153.44 23.492 153.453 23.7695 153.428C24.047 153.407 24.2699 153.352 24.2825 153.382Z" fill="#263238"/>
<path d="M22.7031 154.407C22.7031 154.407 22.4887 154.449 22.1481 154.407C21.9758 154.39 21.7739 154.348 21.5553 154.281C21.446 154.243 21.3325 154.218 21.2147 154.146C21.1601 154.108 21.097 154.058 21.076 153.974C21.0508 153.89 21.097 153.798 21.1559 153.751C21.6856 153.47 22.2196 153.764 22.4214 154.037C22.5307 154.176 22.5812 154.314 22.6064 154.407C22.6317 154.503 22.6274 154.558 22.6232 154.558C22.6022 154.566 22.5812 154.339 22.3626 154.087C22.2532 153.961 22.0935 153.844 21.8832 153.785C21.6856 153.73 21.4081 153.718 21.2189 153.835C21.1306 153.903 21.1685 154.003 21.2652 154.062C21.3577 154.121 21.4754 154.155 21.5805 154.192C21.7907 154.264 21.9884 154.306 22.1565 154.335C22.4887 154.39 22.7031 154.39 22.7031 154.407Z" fill="#263238"/>
<path d="M22.5604 154.436C22.5604 154.436 22.4679 154.302 22.4931 154.05C22.5057 153.928 22.5478 153.781 22.6403 153.642C22.737 153.516 22.8631 153.348 23.0985 153.352C23.2289 153.369 23.2919 153.512 23.2709 153.609C23.2625 153.705 23.2205 153.789 23.1784 153.856C23.0985 153.995 23.006 154.108 22.9178 154.197C22.7454 154.369 22.6066 154.436 22.6024 154.423C22.594 154.411 22.7117 154.323 22.8631 154.146C22.9388 154.058 23.0187 153.945 23.0943 153.81C23.17 153.693 23.2205 153.478 23.0775 153.457C22.9388 153.445 22.7958 153.588 22.7117 153.697C22.6276 153.819 22.5772 153.949 22.5562 154.058C22.5141 154.285 22.5688 154.428 22.552 154.432L22.5604 154.436Z" fill="#263238"/>
<path d="M31.9316 153.751C31.9316 153.751 31.6836 153.73 31.2926 153.781C30.9057 153.827 30.3676 153.991 29.9009 154.369C29.4342 154.747 29.1651 155.242 29.0432 155.612C28.9128 155.986 28.9044 156.234 28.8834 156.234C28.875 156.234 28.875 156.171 28.8834 156.057C28.8918 155.944 28.917 155.784 28.9717 155.591C29.081 155.205 29.3501 154.688 29.8336 154.289C30.3171 153.894 30.8805 153.735 31.2842 153.705C31.486 153.688 31.6499 153.697 31.7593 153.714C31.8728 153.73 31.9316 153.743 31.9316 153.751Z" fill="#263238"/>
<path d="M30.9927 150.16C31.0221 150.16 31.0641 150.954 31.0852 151.937C31.1104 152.92 31.102 153.714 31.0725 153.718C31.0431 153.718 31.0011 152.924 30.98 151.941C30.959 150.958 30.9632 150.165 30.9927 150.16Z" fill="#263238"/>
<path d="M27.7729 155.452C27.7729 155.478 27.2138 155.578 26.5116 155.591C25.8094 155.608 25.2418 155.532 25.2418 155.503C25.2418 155.473 25.8095 155.503 26.5074 155.486C27.2053 155.473 27.7687 155.423 27.7729 155.452Z" fill="#263238"/>
<path d="M29.4677 155.431C29.4888 155.452 29.4215 155.553 29.3668 155.683C29.308 155.814 29.2785 155.927 29.2491 155.927C29.2197 155.927 29.2029 155.793 29.2701 155.641C29.3374 155.49 29.4467 155.41 29.4677 155.431Z" fill="#263238"/>
<path d="M30.0991 154.629C30.0991 154.629 30.0655 154.738 29.9772 154.831C29.8889 154.923 29.8006 154.982 29.7796 154.961C29.7586 154.94 29.8132 154.852 29.9015 154.759C29.9898 154.667 30.0781 154.608 30.0991 154.629Z" fill="#263238"/>
<path d="M31.0109 154.255C31.0067 154.285 30.8889 154.285 30.7628 154.331C30.6367 154.373 30.5442 154.444 30.5231 154.428C30.4979 154.411 30.5694 154.289 30.7291 154.234C30.8847 154.18 31.0193 154.234 31.0109 154.26V154.255Z" fill="#263238"/>
<path d="M31.6621 154.075C31.6747 154.1 31.6243 154.146 31.5528 154.176C31.4813 154.205 31.4141 154.205 31.4057 154.176C31.393 154.15 31.4435 154.104 31.515 154.075C31.5864 154.045 31.6537 154.045 31.6621 154.075Z" fill="#263238"/>
<path d="M6.21442 149.602L8.10225 145.385L16.0361 148.867L13.341 155.066L12.8365 154.881C10.5955 154.041 1.49277 150.458 0.227215 149.371C-1.1855 148.161 6.21863 149.602 6.21863 149.602H6.21442Z" fill="#E2906D"/>
<path d="M10.4913 153.743C10.895 153.13 11.5341 152.676 12.2446 152.495C12.9552 152.315 13.7036 152.386 14.3511 152.735L13.3798 154.948L10.4913 153.743Z" fill="#F5F5F5"/>
<path d="M2.54291 149.018C2.54291 149.018 -0.118545 148.661 0.00338554 149.182C0.125317 149.698 9.18601 153.667 13.3359 155.07L13.3989 154.89L2.79097 150.349C2.79097 150.349 2.99278 149.245 2.5387 149.022L2.54291 149.018Z" fill="#F5F5F5"/>
<path d="M13.5298 154.931C13.5298 154.931 13.4793 154.919 13.3868 154.885C13.2649 154.839 13.1346 154.793 12.9832 154.738C12.5838 154.583 12.0918 154.394 11.5158 154.167C10.2797 153.676 8.57688 152.978 6.71849 152.164C4.8559 151.349 3.19092 150.576 1.98843 150.001C1.42923 149.728 0.95833 149.497 0.571517 149.308C0.428564 149.236 0.302427 149.173 0.188906 149.114C0.100612 149.068 0.058567 149.043 0.058567 149.039C0.058567 149.039 0.109029 149.056 0.197323 149.093C0.315049 149.148 0.441181 149.203 0.588338 149.27C0.975152 149.45 1.45446 149.669 2.01787 149.929C3.22456 150.488 4.89795 151.248 6.75634 152.063C8.61473 152.873 10.3091 153.583 11.5411 154.091C12.1171 154.327 12.6006 154.528 12.9958 154.692C13.143 154.755 13.2733 154.81 13.391 154.86C13.4793 154.898 13.5256 154.923 13.5256 154.923L13.5298 154.931Z" fill="#263238"/>
<path d="M2.74623 150.467C2.7168 150.459 2.84294 150.106 2.77987 149.661C2.72101 149.215 2.50237 148.913 2.5318 148.892C2.54862 148.871 2.82191 149.169 2.88498 149.644C2.95225 150.118 2.77146 150.48 2.75044 150.463L2.74623 150.467Z" fill="#263238"/>
<path d="M5.60569 150.307C5.57625 150.311 5.5258 150.127 5.48796 149.896C5.45012 149.665 5.44592 149.471 5.47535 149.467C5.50478 149.463 5.55523 149.648 5.59307 149.879C5.63091 150.11 5.63512 150.303 5.60569 150.307Z" fill="#263238"/>
<path d="M6.39981 150.248C6.37458 150.261 6.28628 150.122 6.20219 149.938C6.1181 149.757 6.07186 149.598 6.10129 149.585C6.12652 149.572 6.21481 149.711 6.2989 149.896C6.38299 150.076 6.42924 150.236 6.39981 150.248Z" fill="#263238"/>
<path d="M7.1312 149.677C7.11859 149.702 6.92518 149.648 6.69393 149.547C6.46268 149.45 6.28609 149.35 6.2987 149.32C6.31132 149.295 6.50473 149.35 6.73598 149.45C6.96722 149.547 7.14381 149.648 7.1312 149.677Z" fill="#263238"/>
<path d="M7.50439 149.211C7.50439 149.24 7.26053 149.24 6.98303 149.144C6.70554 149.047 6.51634 148.892 6.53316 148.871C6.54997 148.846 6.75179 148.951 7.01667 149.043C7.28155 149.135 7.50439 149.182 7.50439 149.211Z" fill="#263238"/>
<path d="M5.64183 149.497C5.64183 149.497 5.4316 149.446 5.13309 149.27C4.98593 149.182 4.81354 149.064 4.64116 148.913C4.55707 148.833 4.46457 148.762 4.38469 148.648C4.35105 148.594 4.31321 148.522 4.33002 148.434C4.34264 148.35 4.42252 148.279 4.4982 148.266C5.09524 148.228 5.46524 148.716 5.53671 149.047C5.57876 149.22 5.57035 149.367 5.55354 149.459C5.53672 149.556 5.51149 149.606 5.50729 149.602C5.48626 149.602 5.56194 149.388 5.46524 149.064C5.41899 148.909 5.31808 148.732 5.15411 148.59C4.99854 148.459 4.74627 148.329 4.52764 148.363C4.41832 148.388 4.40991 148.497 4.47718 148.59C4.53605 148.682 4.63275 148.762 4.70843 148.837C4.8724 148.989 5.03217 149.11 5.17513 149.203C5.45683 149.392 5.65024 149.476 5.64183 149.493V149.497Z" fill="#263238"/>
<path d="M5.49985 149.467C5.49985 149.467 5.47042 149.308 5.59655 149.089C5.65962 148.984 5.75632 148.867 5.89927 148.779C6.03802 148.703 6.22302 148.598 6.43745 148.703C6.55097 148.77 6.54677 148.93 6.49211 149.005C6.44166 149.089 6.37018 149.148 6.30711 149.194C6.17677 149.287 6.04643 149.354 5.93291 149.396C5.70587 149.48 5.5503 149.488 5.5503 149.476C5.5503 149.459 5.69326 149.43 5.90348 149.329C6.0086 149.278 6.13053 149.211 6.25246 149.115C6.37018 149.039 6.50052 148.867 6.3828 148.787C6.26087 148.72 6.07587 148.787 5.95394 148.854C5.8236 148.93 5.72689 149.026 5.66382 149.123C5.53348 149.312 5.52507 149.467 5.50405 149.463L5.49985 149.467Z" fill="#263238"/>
<path d="M14.3191 152.693C14.3191 152.693 14.1004 152.571 13.722 152.458C13.3478 152.34 12.7928 152.269 12.2126 152.424C11.6324 152.58 11.1825 152.916 10.9176 153.201C10.6485 153.487 10.535 153.709 10.5182 153.701C10.514 153.701 10.535 153.638 10.5897 153.541C10.6443 153.441 10.7326 153.306 10.863 153.151C11.1194 152.844 11.5819 152.483 12.1874 152.319C12.7928 152.16 13.3731 152.248 13.7473 152.382C13.9365 152.449 14.0836 152.525 14.1803 152.584C14.277 152.643 14.3233 152.685 14.3191 152.689V152.693Z" fill="#263238"/>
<path d="M14.9477 149.034C14.9729 149.047 14.687 149.786 14.3002 150.693C13.9176 151.596 13.5854 152.323 13.556 152.31C13.5308 152.298 13.8167 151.559 14.2035 150.651C14.5861 149.748 14.9182 149.022 14.9477 149.034Z" fill="#263238"/>
<path d="M9.83066 152.533C9.82225 152.559 9.26726 152.42 8.62397 152.143C7.97648 151.866 7.48876 151.563 7.50557 151.542C7.52239 151.517 8.02273 151.773 8.66601 152.046C9.3051 152.319 9.84327 152.504 9.83486 152.533H9.83066Z" fill="#263238"/>
<path d="M11.3852 153.209C11.3978 153.239 11.2927 153.302 11.1876 153.394C11.0825 153.487 11.0068 153.583 10.9816 153.571C10.9563 153.558 10.9942 153.428 11.1161 153.319C11.238 153.209 11.3726 153.184 11.381 153.209H11.3852Z" fill="#263238"/>
<path d="M12.2927 152.739C12.3054 152.764 12.2171 152.827 12.0993 152.873C11.9816 152.92 11.8765 152.936 11.8639 152.911C11.8513 152.886 11.9396 152.823 12.0573 152.777C12.175 152.731 12.2801 152.714 12.2927 152.739Z" fill="#263238"/>
<path d="M13.2774 152.773C13.2606 152.798 13.1555 152.752 13.0209 152.739C12.8864 152.726 12.7771 152.756 12.7603 152.726C12.7434 152.701 12.8612 152.617 13.0293 152.634C13.1975 152.647 13.2942 152.752 13.2774 152.773Z" fill="#263238"/>
<path d="M13.9399 152.878C13.9399 152.907 13.8769 152.928 13.797 152.924C13.7213 152.924 13.6582 152.895 13.6582 152.865C13.6582 152.836 13.7213 152.815 13.8012 152.819C13.8769 152.819 13.9399 152.848 13.9399 152.878Z" fill="#263238"/>
<path d="M84.8419 118.732L91.0982 72.0322C91.2664 70.7848 90.2321 69.7012 88.9749 69.8062L73.8976 71.0788C72.5101 71.1964 71.4086 72.2968 71.2908 73.687L67.6203 117.905L84.8419 118.736V118.732Z" fill="#E2906D"/>
<g opacity="0.2">
<path d="M84.8419 118.732L91.0982 72.0322C91.2664 70.7848 90.2321 69.7012 88.9749 69.8062L73.8976 71.0788C72.5101 71.1964 71.4086 72.2968 71.2908 73.687L67.6203 117.905L84.8419 118.736V118.732Z" fill="black"/>
</g>
<path d="M70.2948 50.0958C70.4209 48.3193 70.8876 46.5847 71.1483 44.8207C71.4089 43.0567 71.4468 41.1961 70.7488 39.5581C69.9626 37.7017 68.2808 36.3157 66.4014 35.5849C64.522 34.8541 62.4492 34.7323 60.4394 34.9045C60.0778 34.9339 59.7078 34.9801 59.3841 35.1439C59.0603 35.3077 58.7912 35.6227 58.7786 35.9881C58.766 36.3535 59.0898 36.7189 59.4513 36.6685C58.6861 36.7735 57.9167 36.8827 57.1935 37.1515C56.9076 37.2607 56.6091 37.4077 56.462 37.6765C56.298 37.9831 56.3737 38.3737 56.5629 38.6677C56.7521 38.9617 57.038 39.1717 57.3197 39.3817C56.9665 39.2683 56.5839 39.5707 56.504 39.9319C56.4241 40.2931 56.5755 40.6669 56.7941 40.9693C57.0085 41.2717 57.286 41.5195 57.5089 41.8177C58.417 43.0273 58.2405 44.7031 58.0176 46.1983" fill="#263238"/>
<path d="M70.1252 60.5328L61.628 60.3816C61.5144 59.3988 61.3505 55.581 61.3505 55.581C61.3505 55.581 57.7977 55.2534 57.537 51.7422C57.2763 48.231 57.3898 40.125 57.3898 40.125C61.3547 38.1259 66.0889 38.4283 69.7679 40.9104L70.3145 41.28L70.1252 60.537V60.5328Z" fill="#B78876"/>
<path d="M58.5702 46.2106C58.7678 46.009 58.7636 45.6856 58.5618 45.4882C58.36 45.2908 58.0362 45.295 57.8386 45.4966C57.641 45.6982 57.6452 46.0216 57.847 46.219C58.0488 46.4164 58.3726 46.4122 58.5702 46.2106Z" fill="#263238"/>
<path d="M57.6669 45.3582C57.7258 45.417 58.0537 45.1272 58.5372 45.0978C59.0208 45.06 59.3865 45.2952 59.437 45.228C59.4622 45.1986 59.3992 45.0936 59.2394 44.9844C59.0796 44.8794 58.8147 44.7828 58.5162 44.8038C58.2135 44.8248 57.9654 44.9592 57.8267 45.0894C57.6837 45.2196 57.6375 45.333 57.6669 45.3582Z" fill="#263238"/>
<path d="M63.2769 45.4379C63.0457 45.6017 62.991 45.9209 63.1508 46.1519C63.3147 46.3829 63.6343 46.4375 63.8655 46.2779C64.0968 46.1141 64.1514 45.7949 63.9917 45.5639C63.8277 45.3329 63.5081 45.2783 63.2769 45.4379Z" fill="#263238"/>
<path d="M62.9579 45.4588C63.0168 45.5176 63.3447 45.2278 63.8283 45.1984C64.3118 45.1606 64.6776 45.3958 64.728 45.3286C64.7532 45.2992 64.6902 45.1942 64.5304 45.085C64.3706 44.98 64.1058 44.8834 63.8072 44.9044C63.5045 44.9254 63.2564 45.0598 63.1177 45.19C62.9747 45.3202 62.9285 45.4336 62.9579 45.4588Z" fill="#263238"/>
<path d="M61.2623 49.5707C61.2623 49.5329 60.9596 49.4909 60.4676 49.4531C60.3415 49.4489 60.2406 49.4237 60.2238 49.3565C60.1944 49.2809 60.2364 49.1423 60.2911 48.9869C60.3962 48.6593 60.5013 48.3275 60.6148 47.9789C61.0563 46.5467 61.359 45.3665 61.2833 45.3413C61.2118 45.3203 60.7914 46.4627 60.3499 47.8949C60.2448 48.2435 60.1481 48.5795 60.0472 48.9071C60.0094 49.0583 59.9337 49.2347 60.0094 49.4363C60.0514 49.5371 60.1565 49.6085 60.2406 49.6253C60.3247 49.6463 60.3962 49.6421 60.4592 49.6421C60.9512 49.6295 61.2581 49.6043 61.2581 49.5665L61.2623 49.5707Z" fill="#263238"/>
<path d="M62.8692 50.0118C63.3569 49.68 61.5237 50.835 60.5357 50.8476C60.5357 50.8476 61.158 51.717 62.1502 51.2844C63.1803 50.835 62.8692 50.0118 62.8692 50.0118Z" fill="white"/>
<path d="M61.3437 55.5264C61.3437 55.5264 63.5763 55.5684 65.8467 53.943C65.8467 53.943 64.9175 56.5386 61.3899 56.4378L61.3437 55.5264Z" fill="#A36957"/>
<path d="M70.4283 43.9345L70.2433 48.4915C70.2433 48.4915 68.6455 48.0043 68.5362 47.9581C68.4269 47.9119 68.5657 42.3763 68.5657 42.3763C68.5657 42.3763 68.7885 40.2889 67.4262 39.7933C65.9925 39.2725 65.3702 40.3141 63.3395 40.6543C56.6417 41.7799 57.1042 39.7303 57.1042 39.7303C57.1042 39.7303 56.2591 38.8273 57.9787 37.8361C59.7572 36.8113 63.9996 36.5089 66.3583 37.3195C70.9959 38.9155 71.2607 40.4947 71.2607 41.8933C71.2607 43.8505 70.4283 43.9345 70.4283 43.9345Z" fill="#263238"/>
<path d="M69.6391 44.3924C69.7147 44.363 72.2501 44.0354 72.0104 47.0215C71.7707 50.0077 68.8276 48.7813 68.8318 48.6931C68.8318 48.6091 69.6433 44.3924 69.6433 44.3924H69.6391Z" fill="#B78876"/>
<path d="M69.8312 47.7186C69.8312 47.7186 69.8816 47.7606 69.9657 47.8068C70.0498 47.853 70.1928 47.8908 70.3526 47.8446C70.6763 47.7522 70.9832 47.2734 71.0421 46.7358C71.0715 46.4628 71.0337 46.2024 70.958 45.9798C70.8823 45.753 70.7562 45.5892 70.5964 45.5472C70.4408 45.4968 70.3189 45.585 70.2769 45.6648C70.2306 45.7446 70.2432 45.8076 70.2264 45.8118C70.218 45.8202 70.1676 45.7572 70.2012 45.6354C70.218 45.5766 70.2601 45.5094 70.3357 45.459C70.4114 45.4044 70.5207 45.3834 70.63 45.4044C70.8613 45.438 71.0505 45.669 71.1388 45.9126C71.2397 46.1604 71.2859 46.4544 71.2523 46.761C71.185 47.3616 70.8319 47.8992 70.3904 47.9916C70.176 48.0294 70.0036 47.9538 69.9195 47.874C69.8312 47.7942 69.8228 47.7228 69.8312 47.7186Z" fill="#A36957"/>
<path d="M36.2456 84.6743C36.2456 84.6743 32.0579 84.4727 31.1876 84.8549C29.7286 85.4891 25.4022 92.2721 25.6208 92.2721C26.2725 92.2721 27.6222 92.2679 27.6222 92.2679L34.3578 89.7185L35.9429 90.1175L36.2456 84.6743Z" fill="#B78876"/>
<path d="M18.1712 104.137C18.1712 104.137 5.57872 147.67 5.5619 147.443C5.54509 147.22 16.8384 152.874 16.8384 152.874L24.4653 121.399L18.1712 104.137Z" fill="#263238"/>
<path d="M17.086 153.142L5.16621 147.334L5.68336 145.742L17.6914 151.559L17.086 153.142Z" fill="#455A64"/>
<path d="M18.6472 137.128C18.7103 137.145 18.8406 136.876 18.9458 136.523C19.0509 136.17 19.0845 135.872 19.0214 135.855C18.9584 135.838 18.828 136.107 18.7229 136.46C18.6178 136.813 18.5842 137.111 18.6472 137.128Z" fill="#455A64"/>
<path d="M17.8744 139.669C17.9332 139.69 18.072 139.421 18.1813 139.068C18.2906 138.715 18.3284 138.417 18.2654 138.4C18.2023 138.384 18.0678 138.652 17.9584 139.001C17.8491 139.35 17.8113 139.652 17.8744 139.669Z" fill="#455A64"/>
<path d="M17.0634 142.201C17.1222 142.222 17.2652 141.954 17.3787 141.605C17.4922 141.256 17.5343 140.958 17.4754 140.937C17.4166 140.916 17.2736 141.185 17.1601 141.534C17.0466 141.882 17.0045 142.18 17.0634 142.201Z" fill="#455A64"/>
<path d="M16.2136 144.717C16.2725 144.738 16.4196 144.474 16.5373 144.125C16.6551 143.776 16.7013 143.478 16.6425 143.457C16.5836 143.436 16.4364 143.701 16.3187 144.049C16.201 144.398 16.1547 144.696 16.2136 144.717Z" fill="#455A64"/>
<path d="M15.3311 147.225C15.39 147.246 15.5414 146.985 15.6633 146.637C15.7852 146.292 15.8399 145.994 15.7768 145.973C15.718 145.952 15.5666 146.217 15.4447 146.561C15.3227 146.905 15.2723 147.204 15.3311 147.225Z" fill="#455A64"/>
<path d="M14.4102 149.723C14.4691 149.744 14.6204 149.484 14.7508 149.14C14.8811 148.795 14.9358 148.497 14.8727 148.476C14.8139 148.455 14.6625 148.716 14.5321 149.06C14.406 149.404 14.3471 149.702 14.4102 149.723Z" fill="#455A64"/>
<path d="M15.082 150.769C15.082 150.769 15.1871 150.614 15.3343 150.311C15.4814 150.013 15.6832 149.572 15.9145 149.018C16.3812 147.917 16.9572 146.368 17.5374 144.641C18.1176 142.911 18.6054 141.336 18.9501 140.194C19.1099 139.656 19.2402 139.202 19.3496 138.837C19.4379 138.514 19.4841 138.337 19.4673 138.329C19.4505 138.325 19.379 138.493 19.2655 138.808C19.1477 139.123 18.988 139.576 18.7946 140.143C18.3993 141.323 17.8864 142.865 17.3188 144.566C16.7386 146.292 16.192 147.842 15.7631 148.955C15.5613 149.476 15.3889 149.917 15.2502 150.269C15.1282 150.58 15.0652 150.757 15.082 150.761V150.769Z" fill="#455A64"/>
<path d="M76.8571 101.113C76.752 98.8071 78.0638 113.767 66.5519 114.162C55.0274 114.561 31.52 114.385 31.52 114.385L34.274 152.323H20.4622L17.5779 111.978C17.5779 111.978 16.1063 100.285 24.1159 98.7945C29.1277 97.8579 60.2956 97.5597 60.2956 97.5597L76.8571 101.113Z" fill="#263238"/>
<path d="M34.5894 152.403H20.0502V150.144L34.5894 150.16V152.403Z" fill="#455A64"/>
<path d="M57.3447 112.369C57.3447 112.369 57.2943 112.36 57.1976 112.352C57.0883 112.348 56.9453 112.339 56.7603 112.327C56.3651 112.31 55.8017 112.285 55.0785 112.251C53.6027 112.197 51.4795 112.113 48.8348 112.012C43.5245 111.831 36.1372 111.575 27.7745 111.289H27.6399L27.6568 111.42C27.846 112.965 28.0057 114.599 28.1403 116.258C28.3211 118.627 28.5019 120.941 28.6742 123.175C28.855 125.41 29.0989 127.56 29.3091 129.61C29.738 133.705 30.1248 137.392 30.4528 140.492C30.7849 143.579 31.054 146.082 31.2432 147.829C31.3399 148.686 31.4156 149.354 31.4702 149.824C31.4997 150.043 31.5207 150.215 31.5333 150.341C31.5501 150.459 31.5585 150.517 31.5627 150.517C31.5627 150.517 31.5627 150.459 31.5543 150.341C31.5459 150.211 31.5291 150.039 31.5123 149.82C31.4702 149.35 31.4072 148.682 31.3273 147.821C31.1549 146.074 30.911 143.571 30.6083 140.479C30.2972 137.376 29.9272 133.688 29.5152 129.589C29.3133 127.539 29.0737 125.389 28.8971 123.159C28.7247 120.924 28.5481 118.61 28.3673 116.241C28.2328 114.578 28.073 112.944 27.8796 111.39L27.7619 111.52C36.1246 111.777 43.5119 112.003 48.8264 112.167C51.4668 112.239 53.5943 112.297 55.0701 112.335C55.7933 112.352 56.3567 112.36 56.7519 112.369C56.9369 112.369 57.0798 112.369 57.1892 112.369C57.2859 112.369 57.3363 112.369 57.3363 112.365L57.3447 112.369Z" fill="#455A64"/>
<path d="M56.0119 110.739C56.0119 110.802 56.3062 110.861 56.6762 110.869C57.042 110.878 57.3447 110.832 57.3447 110.769C57.3447 110.706 57.0504 110.647 56.6804 110.638C56.3146 110.63 56.0119 110.676 56.0119 110.739Z" fill="#455A64"/>
<path d="M53.3522 110.676C53.3522 110.739 53.6465 110.798 54.0165 110.806C54.3823 110.815 54.6851 110.769 54.6851 110.706C54.6851 110.643 54.3907 110.584 54.0207 110.575C53.655 110.567 53.3522 110.613 53.3522 110.676Z" fill="#455A64"/>
<path d="M50.6877 110.613C50.6877 110.676 50.982 110.735 51.352 110.744C51.7178 110.752 52.0205 110.706 52.0205 110.643C52.0205 110.58 51.7262 110.521 51.3562 110.513C50.9904 110.504 50.6877 110.55 50.6877 110.613Z" fill="#455A64"/>
<path d="M48.0329 110.55C48.0329 110.613 48.3272 110.672 48.6972 110.68C49.063 110.689 49.3657 110.643 49.3657 110.58C49.3657 110.517 49.0714 110.458 48.7014 110.449C48.3356 110.441 48.0329 110.487 48.0329 110.55Z" fill="#455A64"/>
<path d="M45.3708 110.487C45.3708 110.55 45.6651 110.609 46.0351 110.617C46.4009 110.626 46.7036 110.58 46.7036 110.517C46.7036 110.454 46.4093 110.395 46.0393 110.386C45.6735 110.378 45.3708 110.424 45.3708 110.487Z" fill="#455A64"/>
<path d="M42.7072 110.424C42.7072 110.487 43.0015 110.546 43.3715 110.555C43.7373 110.563 44.04 110.517 44.04 110.454C44.04 110.391 43.7457 110.332 43.3757 110.323C43.0099 110.315 42.7072 110.361 42.7072 110.424Z" fill="#455A64"/>
<path d="M40.0475 110.365C40.0475 110.428 40.3419 110.487 40.7119 110.496C41.0776 110.504 41.3804 110.458 41.3804 110.395C41.3804 110.332 41.0861 110.273 40.7161 110.265C40.3503 110.256 40.0475 110.302 40.0475 110.365Z" fill="#455A64"/>
<path d="M37.3854 110.302C37.3854 110.365 37.6798 110.424 38.0497 110.433C38.4155 110.441 38.7183 110.395 38.7183 110.332C38.7183 110.269 38.424 110.21 38.054 110.202C37.6882 110.193 37.3854 110.239 37.3854 110.302Z" fill="#455A64"/>
<path d="M34.7238 110.239C34.7238 110.302 35.0181 110.361 35.3881 110.37C35.7539 110.378 36.0566 110.332 36.0566 110.269C36.0566 110.206 35.7623 110.147 35.3923 110.139C35.0265 110.13 34.7238 110.176 34.7238 110.239Z" fill="#455A64"/>
<path d="M32.0627 110.177C32.0627 110.24 32.357 110.298 32.727 110.307C33.0928 110.315 33.3955 110.269 33.3955 110.206C33.3955 110.143 33.1012 110.084 32.7312 110.076C32.3654 110.067 32.0627 110.114 32.0627 110.177Z" fill="#455A64"/>
<path d="M29.402 110.113C29.402 110.176 29.6964 110.235 30.0663 110.244C30.4321 110.252 30.7349 110.206 30.7349 110.143C30.7349 110.08 30.4405 110.021 30.0706 110.013C29.7048 110.004 29.402 110.05 29.402 110.113Z" fill="#455A64"/>
<path d="M26.7399 110.05C26.7399 110.113 27.0342 110.172 27.4042 110.181C27.77 110.189 28.0728 110.143 28.0728 110.08C28.0728 110.017 27.7784 109.958 27.4084 109.95C27.0427 109.941 26.7399 109.987 26.7399 110.05Z" fill="#455A64"/>
<path d="M26.7442 112.461C26.8072 112.457 26.8283 112.155 26.7946 111.789C26.7568 111.424 26.6769 111.134 26.6138 111.138C26.5508 111.142 26.5298 111.445 26.5634 111.81C26.6012 112.176 26.6811 112.465 26.7442 112.461Z" fill="#455A64"/>
<path d="M27.0049 115.107C27.068 115.103 27.089 114.801 27.0554 114.435C27.0175 114.07 26.9376 113.78 26.8746 113.784C26.8115 113.788 26.7905 114.091 26.8241 114.456C26.862 114.822 26.9419 115.111 27.0049 115.107Z" fill="#455A64"/>
<path d="M27.2671 117.753C27.3302 117.749 27.3512 117.447 27.3176 117.081C27.2797 116.716 27.1999 116.426 27.1368 116.43C27.0737 116.435 27.0527 116.737 27.0863 117.102C27.1242 117.468 27.2041 117.758 27.2671 117.753Z" fill="#455A64"/>
<path d="M27.521 120.399C27.5841 120.395 27.6051 120.093 27.5715 119.727C27.5336 119.362 27.4538 119.072 27.3907 119.076C27.3276 119.08 27.3066 119.383 27.3402 119.748C27.3781 120.114 27.458 120.403 27.521 120.399Z" fill="#455A64"/>
<path d="M27.7832 123.045C27.8463 123.041 27.8673 122.739 27.8337 122.373C27.7959 122.008 27.716 121.718 27.6529 121.722C27.5898 121.727 27.5688 122.029 27.6025 122.394C27.6403 122.76 27.7202 123.05 27.7832 123.045Z" fill="#455A64"/>
<path d="M28.0425 125.691C28.1056 125.687 28.1266 125.385 28.093 125.019C28.0551 124.654 27.9752 124.364 27.9122 124.368C27.8491 124.372 27.8281 124.675 27.8617 125.04C27.8996 125.406 27.9794 125.695 28.0425 125.691Z" fill="#455A64"/>
<path d="M28.3047 128.337C28.3678 128.333 28.3888 128.031 28.3552 127.665C28.3173 127.3 28.2375 127.01 28.1744 127.014C28.1113 127.018 28.0903 127.321 28.1239 127.686C28.1618 128.052 28.2417 128.341 28.3047 128.337Z" fill="#455A64"/>
<path d="M28.5635 130.987C28.6266 130.983 28.6476 130.681 28.614 130.315C28.5761 129.95 28.4962 129.66 28.4332 129.664C28.3701 129.669 28.3491 129.971 28.3827 130.336C28.4206 130.702 28.5005 130.992 28.5635 130.987Z" fill="#455A64"/>
<path d="M28.8218 133.634C28.8849 133.629 28.9059 133.327 28.8723 132.962C28.8344 132.596 28.7545 132.306 28.6915 132.311C28.6284 132.315 28.6074 132.617 28.641 132.983C28.6789 133.348 28.7588 133.638 28.8218 133.634Z" fill="#455A64"/>
<path d="M29.0816 136.279C29.1446 136.275 29.1657 135.973 29.132 135.607C29.0942 135.242 29.0143 134.952 28.9512 134.956C28.8882 134.961 28.8672 135.263 28.9008 135.628C28.9386 135.994 29.0185 136.284 29.0816 136.279Z" fill="#455A64"/>
<path d="M29.3413 138.926C29.4044 138.921 29.4254 138.619 29.3918 138.254C29.354 137.888 29.2741 137.598 29.211 137.603C29.1479 137.607 29.1269 137.909 29.1606 138.275C29.1984 138.64 29.2783 138.93 29.3413 138.926Z" fill="#455A64"/>
<path d="M29.6031 141.571C29.6661 141.567 29.6872 141.265 29.6535 140.899C29.6157 140.534 29.5358 140.244 29.4727 140.248C29.4097 140.253 29.3886 140.555 29.4223 140.92C29.4601 141.286 29.54 141.576 29.6031 141.571Z" fill="#455A64"/>
<path d="M29.8628 144.218C29.9259 144.213 29.9469 143.911 29.9133 143.546C29.8754 143.18 29.7956 142.89 29.7325 142.895C29.6694 142.899 29.6484 143.201 29.682 143.567C29.7199 143.932 29.7998 144.222 29.8628 144.218Z" fill="#455A64"/>
<path d="M30.125 146.863C30.1881 146.859 30.2091 146.557 30.1755 146.191C30.1377 145.826 30.0578 145.536 29.9947 145.54C29.9316 145.544 29.9106 145.847 29.9442 146.212C29.9821 146.578 30.062 146.867 30.125 146.863Z" fill="#455A64"/>
<path d="M30.3799 149.509C30.443 149.505 30.464 149.203 30.4304 148.837C30.3925 148.472 30.3126 148.182 30.2496 148.186C30.1865 148.19 30.1655 148.493 30.1991 148.858C30.237 149.224 30.3169 149.513 30.3799 149.509Z" fill="#455A64"/>
<path d="M30.5193 150.912C30.5824 150.908 30.6329 150.883 30.6287 150.862C30.6287 150.841 30.574 150.828 30.5109 150.832C30.4479 150.837 30.3974 150.862 30.4016 150.883C30.4016 150.904 30.4563 150.916 30.5193 150.912Z" fill="#455A64"/>
<path d="M29.6371 112.617C29.5951 112.667 30.0029 113.108 30.5411 113.599C31.0835 114.095 31.5586 114.46 31.6048 114.414C31.6511 114.368 31.2432 113.927 30.7009 113.431C30.1543 112.932 29.6792 112.566 29.6371 112.617Z" fill="#263238"/>
<path d="M28.6828 113.129C28.6575 113.188 29.3218 113.541 30.1669 113.923C31.012 114.301 31.7226 114.561 31.7478 114.507C31.7731 114.448 31.1088 114.095 30.2636 113.713C29.4185 113.335 28.708 113.074 28.6828 113.129Z" fill="#263238"/>
<path d="M56.7691 83.0235C56.7691 83.0235 58.1777 67.9497 60.6793 61.3516L60.179 60.9778L60.9232 58.3822L70.2824 57.2482L70.1394 59.2768C71.5438 59.9572 72.7168 60.9946 73.3391 62.3176C76.6901 69.4323 75.0377 77.7399 76.8246 93.1371C76.8246 93.1371 78.9184 100.357 76.7531 102.616L56.3361 97.8621L57.3115 93.2085C48.398 93.0363 33.7411 91.4025 33.7411 91.4025L34.1489 82.9773C34.1489 82.9773 56.046 83.1075 56.7649 83.0319" fill="#455A64"/>
<path d="M60.944 58.3652C60.8852 58.3442 60.5824 59.1002 60.2671 60.0536C60.1956 60.2972 60.0947 60.503 60.0821 60.7634C60.0779 60.8936 60.1242 61.028 60.1998 61.1162C60.2755 61.2044 60.368 61.259 60.4521 61.2926C60.8053 61.4018 61.0071 61.322 61.0071 61.3052C61.0155 61.2632 60.7885 61.2674 60.5194 61.1414C60.389 61.07 60.2713 60.944 60.2923 60.7676C60.3091 60.5912 60.4143 60.356 60.4857 60.1208C60.7969 59.1674 61.0029 58.3778 60.944 58.361V58.3652Z" fill="#E0E0E0"/>
<path d="M58.7099 69.5876C58.7099 69.6506 62.473 69.701 67.1147 69.701C71.7565 69.701 75.5195 69.6506 75.5195 69.5876C75.5195 69.5246 71.7565 69.4742 67.1147 69.4742C62.473 69.4742 58.7099 69.5246 58.7099 69.5876Z" fill="#263238"/>
<path d="M59.5944 65.3417C59.5944 65.4047 62.9285 65.4551 67.0447 65.4551C71.161 65.4551 74.4951 65.4047 74.4951 65.3417C74.4951 65.2787 71.161 65.2283 67.0447 65.2283C62.9285 65.2283 59.5944 65.2787 59.5944 65.3417Z" fill="#263238"/>
<path d="M60.8179 61.6036C60.8179 61.6666 63.5761 61.717 66.9817 61.717C70.3874 61.717 73.1455 61.6666 73.1455 61.6036C73.1455 61.5406 70.3874 61.4902 66.9817 61.4902C63.5761 61.4902 60.8179 61.5406 60.8179 61.6036Z" fill="#263238"/>
<path d="M60.9434 58.9701C60.9434 59.0331 63.0583 59.0835 65.6651 59.0835C68.2719 59.0835 70.3867 59.0331 70.3867 58.9701C70.3867 58.9071 68.2719 58.8567 65.6651 58.8567C63.0583 58.8567 60.9434 58.9071 60.9434 58.9701Z" fill="#263238"/>
<path d="M58.1217 73.67C58.1217 73.733 62.1034 73.7834 67.0142 73.7834C71.9251 73.7834 75.9067 73.733 75.9067 73.67C75.9067 73.607 71.9251 73.5566 67.0142 73.5566C62.1034 73.5566 58.1217 73.607 58.1217 73.67Z" fill="#263238"/>
<path d="M57.3961 77.7736C57.3961 77.8366 61.5375 77.887 66.6502 77.887C71.7629 77.887 75.9043 77.8366 75.9043 77.7736C75.9043 77.7106 71.7629 77.6602 66.6502 77.6602C61.5375 77.6602 57.3961 77.7106 57.3961 77.7736Z" fill="#263238"/>
<path d="M56.942 81.5576C56.942 81.6206 61.1885 81.671 66.4232 81.671C71.6578 81.671 75.9043 81.6206 75.9043 81.5576C75.9043 81.4946 71.662 81.4442 66.4232 81.4442C61.1843 81.4442 56.942 81.4946 56.942 81.5576Z" fill="#263238"/>
<path d="M36.2462 85.6904C36.2462 85.7534 45.2017 85.8038 56.2469 85.8038C67.2922 85.8038 76.252 85.7534 76.252 85.6904C76.252 85.6274 67.2964 85.577 56.2469 85.577C45.1975 85.577 36.2462 85.6274 36.2462 85.6904Z" fill="#263238"/>
<path d="M36.0958 89.0041C36.0958 89.0671 45.1186 89.1175 56.2479 89.1175C67.3772 89.1175 76.4043 89.0671 76.4043 89.0041C76.4043 88.9411 67.3814 88.8907 56.2479 88.8907C45.1144 88.8907 36.0958 88.9411 36.0958 89.0041Z" fill="#263238"/>
<path d="M57.622 93.0867C57.622 93.1497 61.9358 93.2001 67.2503 93.2001C72.5648 93.2001 76.8828 93.1497 76.8828 93.0867C76.8828 93.0237 72.5732 92.9733 67.2503 92.9733C61.9274 92.9733 57.622 93.0237 57.622 93.0867Z" fill="#263238"/>
<path d="M56.6427 96.875C56.6427 96.938 61.3307 96.9884 67.1119 96.9884C72.893 96.9884 77.5811 96.938 77.5811 96.875C77.5811 96.812 72.893 96.7616 67.1119 96.7616C61.3307 96.7616 56.6427 96.812 56.6427 96.875Z" fill="#263238"/>
<path d="M74.4739 97.8787C74.5369 97.8787 74.5874 90.5329 74.5874 81.4735C74.5874 72.4141 74.5369 65.0684 74.4739 65.0684C74.4108 65.0684 74.3604 72.4141 74.3604 81.4735C74.3604 90.5329 74.4108 97.8787 74.4739 97.8787Z" fill="#263238"/>
<path d="M69.4202 97.4713C69.4832 97.4713 69.5337 88.4918 69.5337 77.4164C69.5337 66.341 69.4832 57.3615 69.4202 57.3615C69.3571 57.3615 69.3066 66.341 69.3066 77.4164C69.3066 88.4918 69.3571 97.4713 69.4202 97.4713Z" fill="#263238"/>
<path d="M63.8406 96.875C63.9036 96.875 63.9541 88.2188 63.9541 77.5424C63.9541 66.8661 63.9036 58.2057 63.8406 58.2057C63.7775 58.2057 63.7271 66.8619 63.7271 77.5424C63.7271 88.223 63.7775 96.875 63.8406 96.875Z" fill="#263238"/>
<path d="M59.1521 97.8663C59.2152 97.8663 59.2656 91.0707 59.2656 82.6918C59.2656 74.3128 59.2152 67.5172 59.1521 67.5172C59.089 67.5172 59.0386 74.3128 59.0386 82.6918C59.0386 91.0707 59.089 97.8663 59.1521 97.8663Z" fill="#263238"/>
<path d="M54.1868 83.0025C54.1531 83.0025 54.1405 83.5695 54.1405 84.4767C54.1405 85.3881 54.1573 86.6439 54.191 88.0299C54.2246 89.4159 54.2666 90.6759 54.3087 91.5831C54.3507 92.4945 54.3928 93.0531 54.4264 93.0573C54.46 93.0615 54.4727 92.4945 54.4727 91.5831C54.4727 90.6717 54.4558 89.4159 54.4222 88.0257C54.3886 86.6355 54.3465 85.3797 54.3045 84.4683C54.2624 83.5569 54.2204 82.9983 54.1868 82.9983V83.0025Z" fill="#263238"/>
<path d="M48.9152 83.1789C48.8815 83.1789 48.8689 83.7081 48.8647 84.5607C48.8647 85.4133 48.8773 86.5893 48.911 87.8913C48.9404 89.1933 48.9825 90.3693 49.0245 91.2219C49.0665 92.0745 49.1086 92.5995 49.138 92.5995C49.1717 92.5995 49.1843 92.0703 49.1885 91.2177C49.1885 90.3651 49.1717 89.1849 49.1422 87.8829C49.1128 86.5809 49.0707 85.4049 49.0287 84.5523C48.9867 83.6997 48.9446 83.1747 48.9152 83.1747V83.1789Z" fill="#263238"/>
<path d="M43.6301 83.0864C43.5965 83.0864 43.5797 83.5988 43.5797 84.4262C43.5797 85.2536 43.5923 86.3959 43.6217 87.6559C43.6512 88.9159 43.6932 90.0583 43.731 90.8815C43.7731 91.7089 43.8109 92.2171 43.8446 92.2171C43.8782 92.2171 43.895 91.7047 43.895 90.8773C43.895 90.0499 43.8824 88.9075 43.853 87.6475C43.8235 86.3875 43.7815 85.2452 43.7437 84.4178C43.7058 83.5904 43.6638 83.0822 43.6301 83.0822V83.0864Z" fill="#263238"/>
<path d="M38.345 82.9354C38.3113 82.9354 38.2945 83.4352 38.2945 84.2374C38.2945 85.0396 38.3071 86.1484 38.3366 87.3706C38.366 88.5928 38.4038 89.7016 38.4459 90.4996C38.4879 91.3018 38.5258 91.7974 38.5594 91.7974C38.593 91.7974 38.6099 91.3018 38.6099 90.4996C38.6099 89.6974 38.5972 88.5886 38.5678 87.3664C38.5384 86.1442 38.5005 85.0354 38.4585 84.2332C38.4165 83.431 38.3786 82.9354 38.345 82.9396V82.9354Z" fill="#263238"/>
<path d="M58.6019 84.9006C58.6565 84.8712 58.3664 84.2538 57.8114 83.6364C57.2564 83.0148 56.6762 82.662 56.6426 82.7124C56.6005 82.767 57.1051 83.1912 57.639 83.7918C58.1772 84.3882 58.543 84.9342 58.6019 84.9006Z" fill="#263238"/>
<path d="M57.3959 85.0016C57.4547 85.0142 57.5556 84.4178 57.3034 83.7374C57.0553 83.0528 56.5928 82.6664 56.555 82.7126C56.5045 82.7588 56.8619 83.1872 57.0889 83.8172C57.3244 84.443 57.3286 85.0016 57.3959 85.0058V85.0016Z" fill="#263238"/>
<path d="M35.8809 91.3476C35.9439 91.3518 36.1584 89.55 36.3602 87.3156C36.562 85.0812 36.6755 83.271 36.6125 83.2626C36.5494 83.2584 36.335 85.0602 36.1331 87.2946C35.9313 89.5248 35.8178 91.3392 35.8809 91.3476Z" fill="#263238"/>
<path d="M35.595 84.8544C35.5782 84.8838 35.7127 84.9678 35.7295 85.1778C35.7379 85.2786 35.7127 85.4046 35.6286 85.4844C35.5487 85.5642 35.41 85.5852 35.2754 85.5264C35.1409 85.4676 35.0568 85.35 35.0652 85.2366C35.0652 85.1232 35.1409 85.014 35.2208 84.9552C35.3848 84.8208 35.5403 84.867 35.5487 84.8334C35.574 84.8124 35.3932 84.6822 35.1325 84.8208C35.0148 84.888 34.876 85.0182 34.855 85.2282C34.8256 85.4382 34.9811 85.6608 35.1871 85.7406C35.389 85.833 35.6538 85.7952 35.7884 85.6314C35.9229 85.4718 35.9271 85.2828 35.8935 85.1526C35.8136 84.867 35.5992 84.8292 35.5992 84.8586L35.595 84.8544Z" fill="#263238"/>
<path d="M56.7985 82.9813C56.7985 82.9813 56.7607 82.9813 56.6934 82.9813C56.6178 82.9855 56.5126 82.9939 56.3823 83.0065C56.109 83.0359 55.7054 83.0611 55.1756 83.0779C54.1161 83.1241 52.5604 83.1409 50.5843 83.1283C46.6279 83.0989 40.9728 82.9561 34.1952 82.6873H34.0942L34.09 82.7839C33.9597 85.4005 33.8168 88.2607 33.6654 91.2595V91.3561L33.7495 91.3729C34.8258 91.5787 35.9106 91.6585 37.029 91.7719C38.1432 91.8685 39.2784 91.9651 40.4304 92.0659C42.7345 92.2549 45.11 92.4313 47.5318 92.5993C50.5759 92.8051 53.5485 93.0067 56.4159 93.1999H56.4243H56.4328C59.0101 93.0361 61.5118 92.1121 63.2609 90.4153C64.1438 89.5879 64.8039 88.5673 65.2454 87.5047C65.6953 86.4421 65.9812 85.3543 66.2419 84.3043C67.2804 80.0875 67.9321 76.2781 68.445 73.1029C68.6973 71.5153 68.9117 70.0831 69.0967 68.8273C69.2733 67.5757 69.4667 66.5005 69.4667 65.6059C69.4793 64.7155 69.2859 64.0267 69.0547 63.6235C68.8234 63.2161 68.6258 63.0649 68.6258 63.0649C68.6132 63.0733 68.8024 63.2371 69.0168 63.6445C69.2355 64.0477 69.412 64.7239 69.3868 65.6059C69.3742 66.4879 69.1682 67.5589 68.9832 68.8105C68.7814 70.0621 68.5543 71.4901 68.3021 73.0777C67.7723 76.2487 67.0996 80.0497 66.0526 84.2539C65.7878 85.3039 65.5019 86.3791 65.0562 87.4207C64.6189 88.4665 63.9798 89.4493 63.1137 90.2557C61.4067 91.9063 58.9555 92.8093 56.4201 92.9689H56.4328C53.5653 92.7757 50.5927 92.5741 47.5486 92.3641C45.1311 92.1835 42.7555 92.0029 40.4515 91.8307C39.2994 91.7299 38.1684 91.6333 37.0542 91.5409C35.9484 91.4317 34.8427 91.3435 33.8083 91.1503L33.8924 91.2637C34.0354 88.2649 34.1741 85.4047 34.2961 82.7881L34.191 82.8847C40.9728 83.1325 46.6279 83.2501 50.5885 83.2417C52.5688 83.2417 54.1245 83.2039 55.184 83.1367C55.7138 83.1073 56.1216 83.0737 56.3907 83.0317C56.5211 83.0149 56.622 83.0023 56.6976 82.9939C56.7649 82.9855 56.8028 82.9771 56.8028 82.9771L56.7985 82.9813Z" fill="#263238"/>
<path d="M56.7985 82.9816C56.7985 82.9816 56.891 82.7506 57.0129 82.3222C57.139 81.8938 57.3072 81.2722 57.5048 80.4994C57.9042 78.958 58.4088 76.8118 58.947 74.443C59.4851 72.07 59.9813 69.928 60.3471 68.3782C60.5236 67.6348 60.6708 67.0174 60.7843 66.5428C60.8852 66.1102 60.9315 65.8666 60.9189 65.8624C60.902 65.8624 60.8264 66.0934 60.7002 66.5218C60.5699 66.9502 60.3975 67.5718 60.1915 68.3404C59.7794 69.8818 59.2581 72.0196 58.7241 74.3926C58.1901 76.7446 57.7108 78.8698 57.3492 80.4616C57.1769 81.2092 57.0381 81.8266 56.9288 82.3012C56.8321 82.738 56.7858 82.9774 56.7985 82.9816Z" fill="#263238"/>
<path d="M60.919 58.5374C60.919 58.5374 60.919 58.7054 60.961 59.0036C61.0031 59.2976 61.0745 59.726 61.1628 60.251C61.2175 60.5156 61.2343 60.797 61.3394 61.1204C61.3941 61.2758 61.5118 61.4606 61.7178 61.5278C61.9196 61.5908 62.1088 61.5446 62.2812 61.511C62.975 61.3682 63.7318 61.1834 64.5222 60.9692C66.0989 60.5366 67.5032 60.083 68.5249 59.768C68.9958 59.621 69.3994 59.495 69.7316 59.39C70.0175 59.2976 70.1731 59.243 70.1689 59.2262C70.1689 59.2094 70.0007 59.2388 69.7064 59.3018C69.4121 59.3648 68.9916 59.4698 68.4744 59.6084C67.4401 59.8814 66.0274 60.314 64.455 60.7424C63.6687 60.9566 62.9161 61.1456 62.2308 61.301C62.0584 61.3388 61.8986 61.3724 61.7725 61.3346C61.6463 61.2968 61.5623 61.1876 61.5118 61.0532C61.4151 60.7844 61.3773 60.4736 61.3184 60.2174C61.2091 59.6966 61.1124 59.2724 61.0451 58.9826C60.9736 58.6928 60.9274 58.5332 60.9148 58.5374H60.919Z" fill="#263238"/>
<path d="M68.2744 116.687L65.3355 156.532L64.1036 156.247L64.5618 117.527L68.2744 116.687Z" fill="#263238"/>
<path d="M80.7284 118.069L89.6504 156.482H88.0401L75.2626 118.069H80.7284Z" fill="#263238"/>
<path d="M57.1157 118.069L44.9395 156.482H43.6361L53.3107 118.069H57.1157Z" fill="#263238"/>
<path d="M55.4855 120.652L82.7769 138.46V139.438L54.7244 120.652H55.4855Z" fill="#263238"/>
<path d="M78.6421 120.652L49.0719 140.526V139.006L77.7718 119.782L78.6421 120.652Z" fill="#263238"/>
<path d="M84.805 118.732L49.647 118.093C48.3184 118.068 47.3009 116.905 47.4565 115.586C47.591 114.44 48.5707 113.583 49.7269 113.604L85.3853 114.175L84.8092 118.728L84.805 118.732Z" fill="#E2906D"/>
<g opacity="0.2">
<path d="M84.8036 118.732L49.6455 118.094C48.3169 118.068 47.2994 116.905 47.455 115.586C47.5896 114.44 48.5692 113.583 49.7254 113.604L85.3838 114.175L84.8078 118.728L84.8036 118.732Z" fill="black"/>
</g>
<path d="M88.386 91.5833L84.8416 118.732L57.1171 118.073L57.1886 101.584C57.1508 98.8409 59.4969 96.6695 62.234 96.9131L83.3742 98.8199L86.1576 70.0458L88.9662 69.8106C90.2275 69.7056 91.2619 70.7934 91.0853 72.045L88.386 91.5875V91.5833Z" fill="#E2906D"/>
</svg>
