<svg width="86" height="135" viewBox="0 0 86 135" fill="none" xmlns="http://www.w3.org/2000/svg">
<path d="M46.5326 119.56L49.338 134.554H27.6758L38.3682 128.183L37.5002 118.922L46.5326 119.56Z" fill="#013D55"/>
<path d="M38.9438 83.0936L49.1716 122.168H34.6139C34.6139 122.168 5.89715 71.0177 29.1274 65.9834L38.9422 83.0936H38.9438Z" fill="#572628"/>
<path d="M52.6635 119.683L55.4689 134.679H33.8066L44.499 128.307L43.6311 119.047L52.6635 119.683Z" fill="#007BA7"/>
<path d="M81.7902 61.8323C81.7902 61.8323 91.6663 92.9963 45.851 84.2269L53.567 124.084L41.3889 123.917C41.3889 123.917 13.0674 73.5476 31.4306 65.7103L81.7902 61.8323Z" fill="#974245"/>
<path d="M44.6263 128.003L44.3623 128.596L48.4045 130.42L48.6685 129.827L44.6263 128.003Z" fill="#013D55"/>
<path d="M50.9207 60.5802L46.5973 65.4197L31.4331 65.5886C31.5944 60.7621 40.6284 58.599 40.6284 58.599L50.9207 60.5802Z" fill="#FF9498"/>
<path d="M57.7287 52.9478L50.921 60.5805L40.5835 59.3268C41.4433 34.7512 52.3535 27.3865 52.3535 27.3865L57.7287 52.9478Z" fill="#629D89"/>
<path d="M56.1152 25.0608C56.1152 25.0608 45.3148 28.2551 45.7907 46.3348C46.0649 56.7445 46.436 63.3866 46.436 63.3866L79.8294 63.7114L74.3445 34.967L56.1152 25.0608Z" fill="#629D89"/>
<path d="M47.4563 63.8561H28.9253V67.0683H47.4563V63.8561Z" fill="#7252B7"/>
<path d="M31.9239 67.0667H12.1507L0 37.2408H19.7732L31.9239 67.0667Z" fill="#DEC5FF"/>
<path d="M47.4567 36.8035L46.0322 59.6598L46.5152 59.6903L47.9397 36.834L47.4567 36.8035Z" fill="#2A5044"/>
<path d="M55.1579 59.1236C55.1579 59.1236 37.9369 55.5915 37.0802 61.7204C37.0802 61.7204 36.8124 62.4268 37.8288 62.2043C37.8288 62.2043 36.6705 64.7751 40.9019 63.5847C40.9019 63.5847 40.3083 64.1239 42.5329 64.2522C44.7575 64.3805 57.2551 66.9187 57.2551 66.9187L55.1579 59.1236Z" fill="#FF9498"/>
<path d="M57.4769 67.1298L57.2204 67.0779C57.0962 67.0519 44.7099 64.5412 42.5208 64.4145C41.0221 64.3268 40.7543 64.0524 40.685 63.8527C40.6801 63.8397 40.6769 63.8267 40.6737 63.8153C39.1831 64.1985 38.2022 64.1336 37.7635 63.6204C37.436 63.2355 37.5021 62.7159 37.586 62.4057C37.3311 62.4236 37.1424 62.3618 37.0294 62.2254C36.8246 61.9802 36.9601 61.6229 36.9778 61.5823C37.6489 58.9937 40.9399 57.7579 46.7393 57.9398C51.0144 58.0697 55.1474 58.9596 55.1894 58.9677L55.2845 58.9888L57.4753 67.1331L57.4769 67.1298ZM41.5174 63.242L41.0076 63.7049C41.0076 63.7049 40.985 63.7325 40.9899 63.7438C40.9947 63.7552 41.1044 64.0069 42.5402 64.0881C44.6002 64.2067 55.1894 66.3341 57.0284 66.706L55.0248 59.2617C53.6778 58.984 38.7459 56.0478 37.2827 61.6814C37.2488 61.7707 37.2133 61.938 37.2763 62.0143C37.3424 62.0923 37.5295 62.1036 37.7909 62.0468L38.1038 61.9786L37.9715 62.2725C37.9715 62.2725 37.6554 62.9952 38.0086 63.4093C38.2668 63.7114 38.9701 63.9598 40.8544 63.4288L41.5158 63.2437L41.5174 63.242Z" fill="#974245"/>
<path d="M40.8997 63.7472C40.8497 63.7472 40.7997 63.7228 40.7675 63.679C40.7158 63.6059 40.732 63.5052 40.8046 63.4532C40.8675 63.4077 42.3936 62.3376 45.299 63.2129C45.3845 63.2389 45.4329 63.3282 45.407 63.4142C45.3812 63.5003 45.2925 63.5523 45.207 63.5231C42.4645 62.6965 41.0078 63.7049 40.9933 63.7163C40.9643 63.7358 40.932 63.7472 40.8997 63.7472Z" fill="#974245"/>
<path d="M38.3518 64.0492C38.3325 64.0492 38.3131 64.046 38.2938 64.0378C38.2115 64.0054 38.1696 63.9128 38.2018 63.8283C38.2389 63.7325 39.1617 61.4525 44.1029 60.9799C44.1917 60.9685 44.2707 61.0367 44.2788 61.126C44.2868 61.2154 44.2223 61.2949 44.1336 61.303C39.415 61.7529 38.5116 63.9225 38.5035 63.9453C38.4777 64.0086 38.4164 64.0476 38.3534 64.0476L38.3518 64.0492Z" fill="#974245"/>
<path d="M37.8258 62.3669C37.7838 62.3669 37.7419 62.3506 37.7112 62.3182C37.6483 62.2548 37.6483 62.1525 37.7112 62.0892C37.7887 62.0112 39.6374 60.1875 41.8717 59.4437C41.954 59.4161 42.0476 59.4616 42.075 59.5477C42.1024 59.6321 42.0572 59.7247 41.9717 59.7523C39.81 60.4717 37.9565 62.3019 37.9387 62.3198C37.9065 62.3506 37.8661 62.3669 37.8258 62.3669Z" fill="#974245"/>
<path d="M55.628 25.2428L73.2169 55.2668L53.5034 58.6771L56.1781 66.797C84.6916 72.0684 85.3144 57.7028 85.3144 57.7028C87.8197 16.5805 56.533 24.6143 55.6264 25.2428H55.628Z" fill="#629D89"/>
<path d="M53.4349 58.885L53.3784 58.401L69.7332 56.4409C71.6755 56.2087 73.1306 54.484 73.0467 52.5174L72.5595 40.9856L73.0435 40.9661L73.5307 52.4979C73.6242 54.7179 71.982 56.6618 69.7896 56.9249L53.4349 58.885Z" fill="#2A5044"/>
<path d="M57.9244 34.0756C57.7615 34.0756 57.6018 34.0642 57.4453 34.0415C56.4241 33.8937 55.5336 33.2669 54.7964 32.1804L55.1965 31.906C55.853 32.8755 56.6338 33.4309 57.5146 33.5592C58.7358 33.7362 60.2265 33.1077 61.9413 31.6932L62.2478 32.07C60.633 33.4033 59.1811 34.0756 57.9244 34.0756Z" fill="#2A5044"/>
<path d="M60.3888 29.3868L60.3517 29.4014C58.7498 29.999 56.9768 29.1367 56.4445 27.503L55.988 26.0983L53.7617 20.0506L53.3423 18.9073L62.8409 15.3735L64.5928 20.3494C65.8818 24.0114 64.0104 28.0389 60.3904 29.3868H60.3888Z" fill="#FF9498"/>
<path d="M61.2857 17.2915C60.3049 20.8107 58.3287 23.3002 55.5863 25.0054L53.7617 20.049L61.2857 17.2915Z" fill="#974245"/>
<path d="M52.3351 1.98075C40.1521 -2.38449 37.8936 11.4729 50.396 13.7205L52.3351 1.98075Z" fill="#013D55"/>
<path d="M64.8788 10.8444L61.5233 18.0743C61.5233 18.0743 54.8252 23.4724 51.3794 22.5045C50.0243 22.1278 48.908 20.4064 48.1659 18.0938C47.9207 17.3208 47.7142 16.4763 47.5593 15.5994C46.9979 12.4164 47.0689 8.72024 48.0239 5.83606L58.555 6.21932L64.8788 10.8444Z" fill="#FF9498"/>
<path d="M48.0259 5.83455C48.3001 5.07616 53.0462 6.96159 53.5705 7.27664C55.2192 8.27052 55.7548 10.8543 56.4856 12.6228C57.9778 16.2361 59.2619 19.4613 62.6158 21.1486C62.9384 21.311 61.33 33.9878 65.947 35.1018C68.4136 35.6978 70.6415 33.5038 71.161 30.899C72.0047 26.6718 70.5608 24.4096 66.1777 20.1337C71.0174 -3.68517 49.9375 -2.386 48.0259 5.83455Z" fill="#013D55"/>
<path d="M52.141 13.6488C52.1523 14.0272 52.4185 14.3244 52.7363 14.3146C53.0541 14.3049 53.3009 13.9915 53.2896 13.6131C53.2783 13.2347 53.0121 12.9375 52.6943 12.9473C52.3765 12.957 52.1297 13.2704 52.141 13.6488Z" fill="#013D55"/>
<path d="M48.517 13.9493C48.5283 14.3277 48.7945 14.6249 49.1123 14.6152C49.4301 14.6054 49.6769 14.292 49.6656 13.9136C49.6543 13.5352 49.3881 13.238 49.0703 13.2478C48.7525 13.2575 48.5057 13.571 48.517 13.9493Z" fill="#013D55"/>
<path d="M50.5218 16.835C50.4798 16.835 50.4363 16.8203 50.4008 16.7927C49.9588 16.4371 49.7474 16.1172 49.7345 15.7859C49.7168 15.3344 50.0717 14.9982 50.4492 14.6426C50.5782 14.5208 50.7121 14.3941 50.8331 14.2593C50.9057 14.1814 51.0267 14.1733 51.1058 14.2463C51.1848 14.3194 51.1896 14.4412 51.1187 14.5208C50.9896 14.6637 50.8492 14.7969 50.7121 14.9268C50.3895 15.2337 50.1088 15.4984 50.1201 15.7712C50.1282 15.9775 50.304 16.2178 50.6411 16.4907C50.725 16.5573 50.7379 16.6791 50.6718 16.7635C50.6347 16.8122 50.5782 16.8366 50.5218 16.8366V16.835Z" fill="#013D55"/>
<path d="M51.7423 11.687C51.7197 12.1206 52.336 12.1011 53.0926 12.14C53.8492 12.1806 54.446 12.257 54.4831 11.8315C54.5283 11.3183 52.4892 11.3199 52.1908 11.3134C52.1085 11.3118 52.0246 11.3118 51.9472 11.3394C51.8052 11.393 51.7504 11.544 51.7423 11.6853V11.687Z" fill="#013D55"/>
<path d="M49.929 11.9161C49.9612 12.3578 49.4821 12.3838 48.8949 12.4828C48.6384 12.5267 48.3609 12.655 48.0931 12.6193C47.7221 12.5705 47.664 12.1353 47.9609 11.9177C48.3948 11.5994 49.0595 11.6319 49.5676 11.5686C49.6322 11.5604 49.6967 11.5539 49.758 11.5767C49.8709 11.6205 49.9177 11.7715 49.929 11.9145V11.9161Z" fill="#013D55"/>
<path d="M51.1624 18.8179C50.9027 18.8179 50.6139 18.7757 50.2816 18.6896C50.1945 18.6669 50.1429 18.5792 50.1655 18.4915C50.188 18.4054 50.2736 18.3535 50.3623 18.3746C51.5835 18.6913 52.0852 18.4071 53.1757 17.2654C53.2386 17.2005 53.3403 17.1988 53.4032 17.2606C53.4677 17.3239 53.4693 17.4262 53.408 17.4895C52.5853 18.3502 52.0287 18.8179 51.1624 18.8179Z" fill="#013D55"/>
<path opacity="0.5" d="M55.662 14.5064C56.1653 15.013 56.1653 15.8364 55.662 16.3431C55.1587 16.8497 54.3408 16.8497 53.8375 16.3431C53.3341 15.8364 53.3341 15.013 53.8375 14.5064C54.3408 13.9997 55.1587 13.9997 55.662 14.5064Z" fill="#FF6E73"/>
<path opacity="0.5" d="M48.6044 17.8015C48.4754 17.9314 48.327 18.0289 48.1657 18.0938C47.9204 17.3208 47.714 16.4763 47.5591 15.5994C47.9333 15.5539 48.3205 15.6773 48.6044 15.9697C49.1078 16.4763 49.1078 17.2948 48.6044 17.8015Z" fill="#FF6E73"/>
<path d="M45.4077 6.2486C48.3034 8.90704 52.0235 9.59886 56.4857 8.52216L54.5498 5.11182L47.9889 5.22062L45.4077 6.2486Z" fill="#013D55"/>
<path d="M62.375 21.0413C62.8638 21.1371 63.2316 21.1923 63.5833 21.1988C63.9301 21.2102 64.2479 21.1875 64.5561 21.1388C64.8642 21.0868 65.1578 21.0121 65.4272 20.8887C65.6934 20.7636 65.9725 20.6028 66.1789 20.1351C66.5419 20.5021 66.4661 21.2021 66.1193 21.6357C65.7789 22.0839 65.2707 22.3389 64.7626 22.4201C64.2512 22.5029 63.7188 22.4136 63.2768 22.1684C62.838 21.9215 62.4847 21.5253 62.375 21.0413Z" fill="#F5CC00"/>
</svg>
