<svg width="86" height="147" viewBox="0 0 86 147" fill="none" xmlns="http://www.w3.org/2000/svg">
<path d="M26.8731 87.7588H61.2378V88.3552H26.8731V87.7588Z" fill="#BFA564"/>
<path d="M26.8731 74.1072H61.2378V74.7036H26.8731V74.1072Z" fill="#BFA564"/>
<path d="M26.8731 101.676H61.2378V102.272H26.8731V101.676Z" fill="#BFA564"/>
<path d="M26.8731 115.593H61.2378V116.19H26.8731V115.593Z" fill="#BFA564"/>
<path d="M26.8731 129.51H61.2378V130.107H26.8731V129.51Z" fill="#BFA564"/>
<path d="M60.7459 69.8715H61.3384V146.681H60.7459V69.8715Z" fill="#BFA564"/>
<path d="M26.7757 69.8715H27.3682V146.681H26.7757V69.8715Z" fill="#BFA564"/>
<path d="M44.0874 15.6612C34.6737 15.2636 21.0848 18.5152 7.04564 21.3871L9.06408 27.9878L39.6763 26.2651L44.0874 15.6612Z" fill="#FF864D"/>
<path d="M41.7287 78.7683L43.0342 88.0569H31.1043L36.5355 83.5657L35.627 78.6599L41.7287 78.7683Z" fill="#974245"/>
<path d="M35.7997 45.8245L28.2069 53.6757C26.462 55.4809 25.8704 58.1192 26.6782 60.503L33.4633 80.5416L44.454 80.4094L38.5084 59.0059L52.8428 44.0928L35.7997 45.8255V45.8245Z" fill="#007BA7"/>
<path d="M36.6449 83.4004L39.0288 84.9816L38.8115 85.3136L36.4276 83.7324L36.6449 83.4004Z" fill="#572628"/>
<path d="M49.6261 92.7955L50.0142 101.974H38.0833L43.5155 97.4825L44.0971 92.4048L49.6261 92.7955Z" fill="#974245"/>
<path d="M57.0967 45.4834C54.0098 61.8738 52.2748 78.3148 51.4354 94.7897H41.9555L39.8818 69.1425L44.3255 42.0042L57.0967 45.4834Z" fill="#007BA7"/>
<path d="M43.6419 97.3315L46.355 99.5094L46.1087 99.8203L43.3957 97.6424L43.6419 97.3315Z" fill="#572628"/>
<path d="M41.808 94.8035L42.1022 94.7737C42.0825 94.5749 40.1549 74.8454 40.1144 70.1941C40.0739 65.5538 43.0838 52.0134 43.1144 51.8763L43.145 51.7411L40.0502 50.8066L39.9653 51.0929L42.7954 51.9478C42.4785 53.3863 39.7797 65.7755 39.8182 70.1981C39.8587 74.8623 41.7882 94.6057 41.807 94.8045L41.808 94.8035Z" fill="#013D55"/>
<path d="M3.78662 6.08524C4.81361 3.11394 7.55687 0.861361 13.2132 0.0482053C16.6694 -0.448834 21.6859 2.88928 23.8969 10.0079C26.1079 17.1265 24.4953 23.5562 20.5927 25.1974C15.5595 27.3138 12.286 27.1845 10.0118 25.7938C7.38208 24.6397 4.7909 21.3294 3.44001 16.9823C2.10986 12.7018 2.33896 8.55751 3.78662 6.08624V6.08524Z" fill="white"/>
<path opacity="0.3" d="M3.43413 16.9853C1.53731 10.8809 2.80562 5.0488 6.26698 3.95884C9.72834 2.86889 14.072 6.93384 15.9688 13.0382C17.8656 19.1425 16.5973 24.9746 13.136 26.0646C9.67462 27.1546 5.33095 23.0896 3.43413 16.9853Z" fill="#BFA564"/>
<path d="M8.83111 21.3948C8.26626 20.6562 7.82091 19.8043 8.46475 19.522C8.4687 19.52 8.47364 19.518 8.47759 19.517C8.90024 19.3381 9.37423 19.3838 9.82156 19.4683C10.2689 19.5528 10.7182 19.674 11.1705 19.6373C11.8755 19.5786 12.5036 19.1452 13.0724 18.6889C13.6412 18.2326 14.204 17.7326 14.8785 17.503C15.5539 17.2743 16.418 17.6769 16.8456 18.2893C16.8969 20.4206 16.737 24.3711 13.7972 24.3721C12.2972 24.3721 10.9325 23.5679 9.87094 22.5569C9.70208 22.3958 9.23598 21.9246 8.83111 21.3948Z" fill="#F5CC00"/>
<path d="M5.49436 22.0601C4.92063 22.6924 4.45849 22.8703 4.96705 23.6755C5.49338 24.5085 5.94466 23.6347 6.51839 23.0035C7.09212 22.3713 7.32813 21.6486 7.04571 21.3881C6.76329 21.1277 6.0681 21.4289 5.49436 22.0601Z" fill="#FFBA9A"/>
<path d="M4.57265 21.0633C4.11051 21.782 3.86857 22.122 4.31886 22.7443C4.81063 23.4253 5.27574 22.5415 5.73788 21.8218C6.20003 21.1031 6.3136 20.3506 5.99168 20.1408C5.66975 19.9311 5.0348 20.3436 4.57265 21.0633Z" fill="#FFBA9A"/>
<path d="M6.05396 23.2859C5.48023 23.9181 4.98254 24.0116 5.58096 24.952C6.07471 25.7273 6.61289 24.9619 7.18761 24.3297C7.76134 23.6974 7.97364 22.9519 7.66061 22.6636C7.34758 22.3753 6.62868 22.6536 6.05396 23.2859Z" fill="#FFBA9A"/>
<path d="M7.7396 25.3209C7.13426 25.7523 6.82222 26.0148 6.29292 25.6062C5.83769 25.2543 6.43414 24.7593 7.03947 24.3268C7.6448 23.8954 8.29259 23.7672 8.48613 24.0415C8.67968 24.3159 8.34493 24.8885 7.7396 25.3209Z" fill="#FFBA9A"/>
<path d="M44.3166 16.0499L32.7659 20.2996L35.8014 45.8246L57.0967 45.4836L55.9581 27.2462L44.3166 16.0499Z" fill="#FF864D"/>
<path d="M47.3794 23.4806L44.1918 15.528C49.0907 15.3958 55.938 14.3351 56.0693 30.1081L43.6931 31.1688C43.6931 31.1688 25.7692 24.4021 24.3383 23.746L24.0746 16.0747C30.995 18.4148 47.3794 23.4806 47.3794 23.4806Z" fill="#FF864D"/>
<path d="M16.5051 17.5003C16.4359 16.5659 16.6532 15.6116 16.6532 15.6116C16.6532 15.6116 15.1226 13.9217 16.7519 14.0211C17.2171 14.0499 20.2901 14.7974 24.0801 16.0788L24.3418 23.599C16.275 19.905 16.6038 18.8423 16.5051 17.5003Z" fill="#FFBA9A"/>
<path d="M24.1231 15.9377L35.9668 19.5011L35.882 19.7868L24.0382 16.2234L24.1231 15.9377Z" fill="#974245"/>
<path d="M44.8331 30.9254C45.9332 30.9254 47.0372 30.8031 48.1293 30.5566L52.415 29.5903L52.3499 29.2991L48.0642 30.2653C45.1274 30.9274 42.0987 30.6759 39.3091 29.5386L24.397 23.4598L24.2864 23.7362L39.1985 29.815C41.0075 30.5526 42.9144 30.9244 44.8331 30.9244V30.9254Z" fill="#974245"/>
<path d="M16.6803 15.5178L19.3462 16.2635L19.2933 16.4551L16.6274 15.7093L16.6803 15.5178Z" fill="#BF643A"/>
<path d="M16.629 16.6607L19.2949 17.4065L19.242 17.5981L16.5761 16.8523L16.629 16.6607Z" fill="#BF643A"/>
<path d="M16.7286 17.9533L19.3945 18.6991L19.3417 18.8907L16.6757 18.1449L16.7286 17.9533Z" fill="#BF643A"/>
<path d="M40.0145 10.0309V17.5739C40.0145 18.8702 41.2765 19.8245 42.5869 19.5204C44.2331 19.1396 45.4102 17.741 45.4546 16.1107L45.6284 10.0309H40.0145Z" fill="#FFBA9A"/>
<path opacity="0.5" d="M40.0162 12.3242V16.4914C42.7141 15.5888 43.7114 12.8163 43.7114 12.8163L40.0162 12.3242Z" fill="#BF643A"/>
<path d="M37.0007 10.0952C37.0472 10.6767 37.1242 11.2592 37.2348 11.798C37.4896 13.0774 37.9231 14.1212 38.6587 14.4254C40.5113 15.1908 42.9593 14.1003 43.9161 12.817C44.872 11.5336 45.1396 5.17151 45.1396 5.17151L42.271 3.19031L36.9583 5.38523C36.9583 5.38523 36.7884 7.76406 37.0007 10.0952Z" fill="#FFBA9A"/>
<path d="M45.245 10.0914C44.222 9.31704 43.4893 8.16888 43.2789 6.34773C38.8283 8.30607 36.3586 7.58834 34.4745 4.63394C34.4745 4.63394 36.6144 4.59418 39.3665 2.84659C42.2618 1.00854 49.6009 2.65871 46.6255 9.93139L45.2441 10.0914H45.245Z" fill="#013D55"/>
<path d="M44.2648 8.473C43.7246 9.33487 43.8797 10.4105 44.6114 10.8757C45.3431 11.3409 46.3751 11.0198 46.9152 10.158C47.4554 9.2961 47.3003 8.22051 46.5686 7.75528C45.8369 7.29005 44.805 7.61114 44.2648 8.473Z" fill="#FFBA9A"/>
<path d="M39.7305 9.50971C39.7305 9.74133 39.8885 9.92921 40.083 9.92921C40.2775 9.92921 40.4355 9.74133 40.4355 9.50971C40.4355 9.27809 40.2775 9.09021 40.083 9.09021C39.8885 9.09021 39.7305 9.27809 39.7305 9.50971Z" fill="#013D55"/>
<path d="M37.4517 9.57441C37.4517 9.80603 37.6097 9.99391 37.8042 9.99391C37.9987 9.99391 38.1567 9.80603 38.1567 9.57441C38.1567 9.34279 37.9987 9.15491 37.8042 9.15491C37.6097 9.15491 37.4517 9.34279 37.4517 9.57441Z" fill="#013D55"/>
<path d="M38.8152 10.0049C38.6957 10.0884 38.5782 10.1699 38.4607 10.2604C38.3432 10.3518 38.2276 10.4542 38.1348 10.6043C38.041 10.7574 38.0509 10.992 38.1486 11.1312C38.2434 11.2733 38.3669 11.3678 38.4972 11.4453L38.5574 11.3747C38.4735 11.2554 38.3807 11.1471 38.3303 11.0318C38.277 10.9165 38.2839 10.822 38.3402 10.7196C38.3916 10.6133 38.4992 10.5168 38.594 10.4105C38.6927 10.3061 38.7984 10.1977 38.8813 10.0695L38.8142 10.0049H38.8152Z" fill="#013D55"/>
<path d="M39.6836 8.41445C39.6619 8.67987 40.0401 8.67888 40.5033 8.71864C40.9664 8.75741 41.3515 8.68484 41.3614 8.55561C41.3881 8.24049 40.1478 8.20371 39.9641 8.19476C39.9137 8.19178 39.8624 8.19078 39.814 8.20669C39.7261 8.23651 39.6896 8.32896 39.6827 8.41445H39.6836Z" fill="#013D55"/>
<path d="M38.2267 8.47407C38.2386 8.74545 37.9433 8.75341 37.5819 8.80212C37.2205 8.85182 36.9222 8.78522 36.9163 8.653C36.9025 8.32993 37.8692 8.2673 38.0114 8.25438C38.0509 8.2504 38.0914 8.24742 38.128 8.26333C38.1961 8.29215 38.2228 8.3856 38.2267 8.47407Z" fill="#013D55"/>
<path d="M38.5023 12.5846C38.4302 12.4772 38.367 12.353 38.3176 12.2068L40.5474 11.9484C40.4931 12.1054 40.4259 12.2456 40.3489 12.3699C39.9628 12.5031 39.2468 12.6899 38.5023 12.5846Z" fill="white"/>
<path d="M40.3506 12.3698C39.8608 13.16 38.972 13.2783 38.504 12.5845C39.2485 12.6888 39.9645 12.502 40.3506 12.3698Z" fill="#013D55"/>
<path opacity="0.6" d="M40.9283 10.9976C40.802 10.4613 41.1314 9.92339 41.6642 9.79621C42.197 9.66903 42.7313 10.0007 42.8577 10.5371C42.984 11.0734 42.6545 11.6113 42.1217 11.7385C41.589 11.8656 41.0546 11.534 40.9283 10.9976Z" fill="#FF9498"/>
<path opacity="0.6" d="M37.0006 10.0955C37.047 10.677 37.124 11.2595 37.2346 11.7983C37.4637 11.6184 37.6089 11.3361 37.6089 11.02C37.6089 10.6054 37.3581 10.2495 37.0016 10.0955H37.0006Z" fill="#FF9498"/>
<path d="M45.1976 9.76149C45.3072 9.52192 45.3981 9.28831 45.5521 9.10739C45.6973 8.91851 45.8978 8.80022 46.1348 8.69186L46.118 8.60041C45.8405 8.5855 45.5521 8.73163 45.3704 8.95828C45.1937 9.1899 45.1097 9.46923 45.1078 9.74161L45.1986 9.7605L45.1976 9.76149Z" fill="#013D55"/>
<path d="M76.3043 24.248C71.1172 24.248 66.9122 20.015 66.9122 14.7933C66.9122 9.57163 71.1172 5.33862 76.3043 5.33862C81.4913 5.33862 85.6963 9.57163 85.6963 14.7933C85.6963 20.015 81.4913 24.248 76.3043 24.248Z" fill="#C2AFEA"/>
<path d="M70.5822 14.1055L62.9835 20.6385L71.1807 19.6067L70.5822 14.1055Z" fill="#C2AFEA"/>
<path d="M81.3408 16.0361C80.6591 16.0361 80.1065 15.4798 80.1065 14.7935C80.1065 14.1072 80.6591 13.5509 81.3408 13.5509C82.0226 13.5509 82.5752 14.1072 82.5752 14.7935C82.5752 15.4798 82.0226 16.0361 81.3408 16.0361Z" fill="white"/>
<path d="M76.3047 16.0361C75.623 16.0361 75.0703 15.4798 75.0703 14.7935C75.0703 14.1072 75.623 13.5509 76.3047 13.5509C76.9864 13.5509 77.5391 14.1072 77.5391 14.7935C77.5391 15.4798 76.9864 16.0361 76.3047 16.0361Z" fill="white"/>
<path d="M71.2686 16.0361C70.5868 16.0361 70.0342 15.4798 70.0342 14.7935C70.0342 14.1072 70.5868 13.5509 71.2686 13.5509C71.9503 13.5509 72.5029 14.1072 72.5029 14.7935C72.5029 15.4798 71.9503 16.0361 71.2686 16.0361Z" fill="white"/>
</svg>
