<svg width="89" height="141" viewBox="0 0 89 141" fill="none" xmlns="http://www.w3.org/2000/svg">
<path d="M50.4879 67.1573H50.4651V60.0652H50.4879L74.3851 34.7006C83.3183 25.2188 82.0391 11.3107 72.2401 3.20695C70.3427 1.63765 67.9475 0.801145 65.492 0.802492L23.4728 0.809225C21.0174 0.809225 18.6248 1.64573 16.7287 3.21368C6.93113 11.3134 5.64788 25.2161 14.5731 34.6992L38.4462 60.0652H38.5131V67.1573H38.4462L14.5731 92.5233C5.64788 102.006 6.93113 115.909 16.7287 124.009C18.6262 125.577 21.0187 126.413 23.4728 126.413L65.492 126.42C67.9475 126.42 70.3427 125.585 72.2401 124.016C82.0404 115.912 83.3196 102.005 74.3851 92.522L50.4879 67.1573Z" fill="#F2F2F2"/>
<path d="M66.1952 34.1347C65.7737 33.146 64.7112 32.5842 63.6461 32.6758C46.1262 34.1872 36.1306 17.4072 25.1929 18.6761C19.8927 19.2917 16.5701 24.8388 18.4448 29.8673C20.9565 36.6038 28.8821 43.3874 31.7871 46.4748L41.9233 57.2147V75.2434H41.938C41.9179 75.2542 41.9085 75.2583 41.9233 75.2434V94.5181C41.9233 95.0758 42.3715 95.5271 42.9255 95.5271H43.9772C44.5312 95.5271 44.9795 95.0758 44.9795 94.5181V88.9926C44.9795 88.4349 45.4277 87.9837 45.9817 87.9837C46.5357 87.9837 46.984 87.5324 46.984 86.9748V75.2434L46.9933 57.2147L57.1108 46.4762C60.6902 42.6776 67.639 37.5252 66.1938 34.136L66.1952 34.1347Z" fill="#F5CC00"/>
<path d="M43.4431 104.598C42.667 104.598 42.0381 103.965 42.0381 103.184V99.4119C42.0381 98.6307 42.667 97.9976 43.4431 97.9976C44.2192 97.9976 44.8481 98.6307 44.8481 99.4119V103.184C44.8481 103.965 44.2192 104.598 43.4431 104.598Z" fill="#F5CC00"/>
<path d="M57.0243 126.198H37.8894L28.7461 126.42C44.4461 101.814 50.3338 118.218 58.0948 124.564L57.0243 126.198Z" fill="#F5CC00"/>
<path d="M83.1505 124.698H5.81592V137.049H83.1505V124.698Z" fill="#7252B7"/>
<path d="M83.1505 130.892H5.81592V137.049H83.1505V130.892Z" fill="#36295B"/>
<path d="M85.8302 134.222H3.13385C1.40308 134.222 0 135.634 0 137.377V137.867C0 139.609 1.40308 141.022 3.13385 141.022H85.8302C87.561 141.022 88.9641 139.609 88.9641 137.867V137.377C88.9641 135.634 87.561 134.222 85.8302 134.222Z" fill="#7252B7"/>
</svg>
