<svg width="178" height="105" viewBox="0 0 178 105" fill="none" xmlns="http://www.w3.org/2000/svg">
<g clip-path="url(#clip0_121_459)">
<path d="M168.394 91.6607C169.018 91.6607 169.524 91.1688 169.524 90.562C169.524 89.9553 169.018 89.4634 168.394 89.4634C167.77 89.4634 167.264 89.9553 167.264 90.562C167.264 91.1688 167.77 91.6607 168.394 91.6607Z" fill="#BFA564"/>
<path d="M121.938 39.919C121.236 39.919 120.666 39.3622 120.666 38.6782C120.666 37.9941 121.236 37.4366 121.938 37.4366C122.639 37.4366 123.209 37.9934 123.209 38.6782C123.209 39.3629 122.639 39.919 121.938 39.919ZM121.938 37.721C121.392 37.721 120.949 38.1505 120.949 38.6782C120.949 39.2058 121.392 39.6346 121.938 39.6346C122.483 39.6346 122.926 39.2051 122.926 38.6782C122.926 38.1512 122.483 37.721 121.938 37.721Z" fill="#BFA564"/>
<path d="M170.371 23.5374C169.67 23.5374 169.1 22.9806 169.1 22.2958C169.1 21.6111 169.67 21.0543 170.371 21.0543C171.073 21.0543 171.643 21.6111 171.643 22.2958C171.643 22.9806 171.073 23.5374 170.371 23.5374ZM170.371 21.3394C169.826 21.3394 169.382 21.7689 169.382 22.2965C169.382 22.8242 169.826 23.2537 170.371 23.2537C170.916 23.2537 171.36 22.8242 171.36 22.2965C171.36 21.7689 170.916 21.3394 170.371 21.3394Z" fill="#BFA564"/>
<path d="M20.6175 39.5692C21.2417 39.5692 21.7477 39.0773 21.7477 38.4705C21.7477 37.8637 21.2417 37.3719 20.6175 37.3719C19.9933 37.3719 19.4873 37.8637 19.4873 38.4705C19.4873 39.0773 19.9933 39.5692 20.6175 39.5692Z" fill="#BFA564"/>
<path d="M108.092 10.8038H99.8981C99.8197 10.8038 99.7568 10.7406 99.7568 10.6616C99.7568 10.5827 99.8197 10.5194 99.8981 10.5194H108.092C108.171 10.5194 108.233 10.5827 108.233 10.6616C108.233 10.7406 108.171 10.8038 108.092 10.8038Z" fill="#BFA564"/>
<path d="M108.092 13.0793H104.278C104.2 13.0793 104.137 13.016 104.137 12.9371C104.137 12.8582 104.2 12.7949 104.278 12.7949H108.092C108.171 12.7949 108.234 12.8582 108.234 12.9371C108.234 13.016 108.171 13.0793 108.092 13.0793Z" fill="#BFA564"/>
<path d="M102.653 13.0793H99.8981C99.8197 13.0793 99.7568 13.016 99.7568 12.9371C99.7568 12.8582 99.8197 12.7949 99.8981 12.7949H102.653C102.731 12.7949 102.794 12.8582 102.794 12.9371C102.794 13.016 102.731 13.0793 102.653 13.0793Z" fill="#BFA564"/>
<path d="M108.092 15.3549H99.8981C99.8197 15.3549 99.7568 15.2916 99.7568 15.2127C99.7568 15.1337 99.8197 15.0704 99.8981 15.0704H108.092C108.171 15.0704 108.233 15.1337 108.233 15.2127C108.233 15.2916 108.171 15.3549 108.092 15.3549Z" fill="#BFA564"/>
<path d="M94.7286 65.8194H94.7166V62.0755H94.7286L107.344 48.6855C112.06 43.6801 111.384 36.338 106.212 32.0601C105.21 31.2316 103.945 30.79 102.649 30.7907L80.4673 30.7943C79.1711 30.7943 77.9081 31.2359 76.9072 32.0636C71.735 36.3394 71.0576 43.6787 75.7692 48.6848L88.3718 62.0755H88.4071V65.8194H88.3718L75.7692 79.2101C71.0576 84.2162 71.735 91.5555 76.9072 95.8313C77.9088 96.659 79.1718 97.1006 80.4673 97.1006L102.649 97.1042C103.945 97.1042 105.21 96.6633 106.212 95.8349C111.385 91.5569 112.06 84.2155 107.344 79.2094L94.7286 65.8194Z" fill="white"/>
<path d="M103.02 48.3868C102.798 47.8649 102.237 47.5683 101.675 47.6167C92.4258 48.4146 87.1491 39.5564 81.3751 40.2263C78.5771 40.5512 76.8232 43.4795 77.8128 46.1341C79.1387 49.6903 83.3226 53.2714 84.8562 54.9012L90.2071 60.5708V70.0881H90.2148C90.2042 70.0938 90.1993 70.0959 90.2071 70.0881V80.2632C90.2071 80.5576 90.4437 80.7958 90.7361 80.7958H91.2914C91.5838 80.7958 91.8204 80.5576 91.8204 80.2632V77.3463C91.8204 77.0519 92.0571 76.8137 92.3495 76.8137C92.642 76.8137 92.8786 76.5755 92.8786 76.2811V70.0881L92.8836 60.5708L98.2245 54.9019C100.114 52.8966 103.782 50.1767 103.019 48.3875L103.02 48.3868Z" fill="#F5CC00"/>
<path d="M91.0093 85.5844C90.5996 85.5844 90.2676 85.2501 90.2676 84.8377V82.8466C90.2676 82.4342 90.5996 82.1 91.0093 82.1C91.419 82.1 91.751 82.4342 91.751 82.8466V84.8377C91.751 85.2501 91.419 85.5844 91.0093 85.5844Z" fill="#F5CC00"/>
<path d="M98.179 96.9868H88.0777L83.251 97.1041C91.539 84.1145 94.6471 92.7742 98.7441 96.1242L98.179 96.9868Z" fill="#F5CC00"/>
<path d="M111.971 96.1953H71.1465V102.715H111.971V96.1953Z" fill="#7252B7"/>
<path d="M111.971 99.4649H71.1465V102.715H111.971V99.4649Z" fill="#36295B"/>
<path d="M113.386 101.223H69.7305C68.8169 101.223 68.0762 101.968 68.0762 102.888V103.147C68.0762 104.067 68.8169 104.812 69.7305 104.812H113.386C114.3 104.812 115.04 104.067 115.04 103.147V102.888C115.04 101.968 114.3 101.223 113.386 101.223Z" fill="#7252B7"/>
<path opacity="0.3" d="M22.2422 84.0525C22.5721 83.244 22.7734 82.4148 22.8567 81.5864L25.4732 81.2145L24.9109 77.2089L22.3312 77.5758C21.7272 75.9708 20.6641 74.5451 19.2294 73.5147L20.2085 71.114L16.4908 69.5774L15.5117 71.978C13.7719 71.6964 12.0201 71.9588 10.4703 72.6735L8.89077 70.5878L5.69508 73.0404L7.29717 75.1559C6.77868 75.8044 6.34284 76.5369 6.01296 77.3454C5.66188 78.2058 5.45703 79.089 5.38427 79.9686L2.71484 80.3484L3.27713 84.354L5.97976 83.97C6.5703 85.4597 7.56065 86.7881 8.87876 87.7772L7.88347 90.2184L11.9261 91.8888L12.9214 89.4476C14.5496 89.6765 16.1814 89.4319 17.6415 88.7898L19.2965 90.975L22.4922 88.5224L20.8577 86.3643C21.4199 85.6873 21.8904 84.9136 22.2415 84.0532L22.2422 84.0525ZM12.2525 85.2976C9.72996 84.2551 8.52416 81.351 9.55972 78.811C10.5953 76.2716 13.4809 75.0578 16.0034 76.1003C18.5259 77.1427 19.7317 80.0476 18.6961 82.5869C17.6598 85.1269 14.775 86.3401 12.2525 85.2976Z" fill="#BFA564"/>
<path opacity="0.3" d="M10.6017 59.8986C10.8532 59.4762 11.0354 59.0304 11.1513 58.576L12.6417 58.5909L12.6644 56.3097L11.1951 56.2948C10.993 55.3483 10.5198 54.463 9.80632 53.7661L10.5537 52.5103L8.6097 51.337L7.86234 52.5928C6.91579 52.2877 5.91696 52.2849 4.9923 52.5516L4.28662 51.2538L2.29885 52.3496L3.01512 53.6659C2.67182 53.983 2.36666 54.3549 2.11519 54.7773C1.84747 55.2274 1.65886 55.7024 1.54443 56.1867L0.0235809 56.1711L0.000976562 58.4523L1.54019 58.4679C1.74434 59.3489 2.18512 60.1738 2.83711 60.8373L2.07704 62.1137L4.19126 63.3894L4.95133 62.113C5.83996 62.3789 6.77098 62.3818 7.63912 62.1478L8.37871 63.5067L10.3665 62.4109L9.63608 61.0684C10.0062 60.7384 10.334 60.3473 10.6017 59.8972V59.8986ZM4.9266 59.7429C3.60707 58.9472 3.1783 57.2249 3.96945 55.8966C4.7599 54.5682 6.47076 54.1373 7.79029 54.933C9.10982 55.7288 9.53789 57.451 8.74744 58.7794C7.95629 60.1077 6.24613 60.5386 4.9266 59.7429Z" fill="#BFA564"/>
<path opacity="0.3" d="M154.705 8.29718H129.821C128.214 8.29718 126.911 9.60886 126.911 11.2269V26.2567C126.911 27.8747 128.214 29.1864 129.821 29.1864H154.705C156.313 29.1864 157.616 27.8747 157.616 26.2567V11.2269C157.616 9.60886 156.313 8.29718 154.705 8.29718Z" fill="#BFA564"/>
<path d="M133.913 19.6242H130.876V25.025H133.913V19.6242Z" fill="#FFF2D2"/>
<path d="M138.846 15.6002H135.81V25.0258H138.846V15.6002Z" fill="#FFF2D2"/>
<path d="M143.782 19.7921H140.745V25.0258H143.782V19.7921Z" fill="#FFF2D2"/>
<path d="M148.716 17.9645H145.68V25.025H148.716V17.9645Z" fill="#FFF2D2"/>
<path d="M153.651 11.6422H150.614V25.0257H153.651V11.6422Z" fill="#FFF2D2"/>
<path d="M60.5246 62.7771H35.9424V63.2037H60.5246V62.7771Z" fill="#BFA564"/>
<path d="M60.5246 53.0115H35.9424V53.4382H60.5246V53.0115Z" fill="#BFA564"/>
<path d="M60.5246 72.7324H35.9424V73.1591H60.5246V72.7324Z" fill="#BFA564"/>
<path d="M60.5246 82.6878H35.9424V83.1144H60.5246V82.6878Z" fill="#BFA564"/>
<path d="M60.5246 92.6432H35.9424V93.0698H60.5246V92.6432Z" fill="#BFA564"/>
<path d="M36.2949 49.9816H35.8711V104.926H36.2949V49.9816Z" fill="#BFA564"/>
<path d="M60.5947 49.9816H60.1709V104.926H60.5947V49.9816Z" fill="#BFA564"/>
<path d="M48.2129 11.2033C54.9469 10.9189 64.6674 13.2449 74.7101 15.2992L73.2663 20.0209L51.3683 18.7886L48.2129 11.2033Z" fill="#FF864D"/>
<path d="M49.9006 56.346L48.9668 62.9905H57.5006L53.6155 59.7777L54.2654 56.2685L49.9006 56.346Z" fill="#974245"/>
<path d="M54.1417 32.7802L59.5731 38.3964C60.8213 39.6878 61.2444 41.575 60.6666 43.2802L55.813 57.6146L47.9509 57.52L52.2041 42.2093L41.9502 31.5414L54.1417 32.7809V32.7802Z" fill="#007BA7"/>
<path d="M53.5373 59.6595L51.832 60.7906L51.9875 61.0281L53.6928 59.8971L53.5373 59.6595Z" fill="#572628"/>
<path d="M44.2512 66.3802L43.9736 72.9458H52.5082L48.6224 69.7331L48.2063 66.1008L44.2512 66.3802Z" fill="#974245"/>
<path d="M38.9072 32.5363C41.1154 44.2608 42.3565 56.0217 42.9569 67.8067H49.7382L51.2216 49.4604L48.0429 30.0474L38.9072 32.5363Z" fill="#007BA7"/>
<path d="M48.5325 69.625L46.5918 71.183L46.768 71.4053L48.7087 69.8474L48.5325 69.625Z" fill="#572628"/>
<path d="M49.8441 67.8167L49.6336 67.7953C49.6478 67.6531 51.0266 53.5399 51.0556 50.2127C51.0846 46.8933 48.9315 37.2074 48.9096 37.1093L48.8877 37.0126L51.1015 36.3442L51.1623 36.549L49.1378 37.1605C49.3645 38.1895 51.2951 47.0519 51.2675 50.2156C51.2385 53.552 49.8583 67.6751 49.8449 67.8174L49.8441 67.8167Z" fill="#013D55"/>
<path d="M77.041 4.35331C76.3064 2.22784 74.344 0.616492 70.2979 0.0348144C67.8255 -0.320735 64.2371 2.06713 62.6555 7.1593C61.0739 12.2515 62.2274 16.8509 65.0191 18.0249C68.6195 19.5388 70.9612 19.4464 72.588 18.4515C74.4691 17.626 76.3226 15.258 77.289 12.1484C78.2405 9.08638 78.0766 6.12181 77.041 4.35402V4.35331Z" fill="white"/>
<path opacity="0.3" d="M77.2934 12.1506C78.6503 7.78392 77.743 3.612 75.267 2.83232C72.791 2.05264 69.6838 4.96044 68.3269 9.32708C66.9701 13.6937 67.8773 17.8656 70.3534 18.6453C72.8294 19.425 75.9366 16.5172 77.2934 12.1506Z" fill="#BFA564"/>
<path d="M73.4323 15.3048C73.8364 14.7765 74.155 14.1671 73.6944 13.9651C73.6916 13.9637 73.688 13.9623 73.6852 13.9616C73.3829 13.8336 73.0438 13.8663 72.7238 13.9267C72.4038 13.9872 72.0824 14.0739 71.7589 14.0476C71.2545 14.0057 70.8053 13.6956 70.3984 13.3692C69.9915 13.0428 69.5889 12.6852 69.1064 12.5209C68.6233 12.3573 68.0052 12.6453 67.6993 13.0834C67.6626 14.608 67.777 17.4339 69.8799 17.4346C70.9529 17.4346 71.9291 16.8593 72.6885 16.1361C72.8093 16.0209 73.1427 15.6839 73.4323 15.3048Z" fill="#F5CC00"/>
<path d="M75.8201 15.7807C76.2305 16.233 76.5611 16.3602 76.1973 16.9362C75.8208 17.5321 75.498 16.9071 75.0876 16.4555C74.6772 16.0033 74.5083 15.4863 74.7104 15.3C74.9124 15.1137 75.4097 15.3292 75.8201 15.7807Z" fill="#FFBA9A"/>
<path d="M76.4801 15.0675C76.8106 15.5816 76.9837 15.8248 76.6616 16.2699C76.3098 16.7571 75.9771 16.1249 75.6465 15.6101C75.3159 15.0959 75.2347 14.5576 75.465 14.4076C75.6953 14.2575 76.1495 14.5526 76.4801 15.0675Z" fill="#FFBA9A"/>
<path d="M75.4197 16.6575C75.8301 17.1097 76.1861 17.1766 75.758 17.8493C75.4049 18.4039 75.0199 17.8564 74.6088 17.4041C74.1983 16.9519 74.0465 16.4186 74.2704 16.2123C74.4943 16.0061 75.0086 16.2052 75.4197 16.6575Z" fill="#FFBA9A"/>
<path d="M74.2139 18.1131C74.6469 18.4217 74.8701 18.6095 75.2488 18.3172C75.5744 18.0655 75.1477 17.7113 74.7147 17.402C74.2817 17.0934 73.8183 17.0017 73.6799 17.1979C73.5414 17.3942 73.7809 17.8038 74.2139 18.1131Z" fill="#FFBA9A"/>
<path d="M48.0493 11.4813L56.3119 14.5213L54.1404 32.7801L38.9072 32.5362L39.7217 19.4904L48.0493 11.4813Z" fill="#FF864D"/>
<path d="M45.8578 16.7968L48.138 11.108C44.6336 11.0134 39.7356 10.2547 39.6416 21.5377L48.4947 22.2964C48.4947 22.2964 61.3163 17.456 62.3399 16.9867L62.5285 11.4991C57.5781 13.1731 45.8578 16.7968 45.8578 16.7968Z" fill="#FF864D"/>
<path d="M67.9438 12.5188C67.9932 11.8504 67.8378 11.1678 67.8378 11.1678C67.8378 11.1678 68.9327 9.95889 67.7672 10.03C67.4345 10.0506 65.2362 10.5854 62.5251 11.502L62.3379 16.8814C68.1084 14.239 67.8731 13.4788 67.9438 12.5188Z" fill="#FFBA9A"/>
<path d="M62.4947 11.401L54.0225 13.95L54.0831 14.1544L62.5554 11.6054L62.4947 11.401Z" fill="#974245"/>
<path d="M47.6795 22.1222C46.8926 22.1222 46.1028 22.0347 45.3216 21.8584L42.2559 21.1672L42.3025 20.9588L45.3682 21.65C47.469 22.1236 49.6355 21.9437 51.631 21.1302L62.2981 16.7819L62.3773 16.9795L51.7101 21.3279C50.416 21.8555 49.052 22.1215 47.6795 22.1215V22.1222Z" fill="#974245"/>
<path d="M67.8191 11.1008L65.9121 11.6342L65.9499 11.7713L67.857 11.2378L67.8191 11.1008Z" fill="#BF643A"/>
<path d="M67.8553 11.9183L65.9482 12.4518L65.9861 12.5888L67.8931 12.0553L67.8553 11.9183Z" fill="#BF643A"/>
<path d="M67.784 12.8429L65.877 13.3764L65.9148 13.5134L67.8218 12.98L67.784 12.8429Z" fill="#BF643A"/>
<path d="M51.1252 7.17572V12.5715C51.1252 13.4988 50.2224 14.1815 49.285 13.9639C48.1075 13.6915 47.2655 12.691 47.2337 11.5248L47.1094 7.17572H51.1252Z" fill="#FFBA9A"/>
<path opacity="0.5" d="M51.1247 8.81628V11.7972C49.1949 11.1515 48.4814 9.16828 48.4814 9.16828L51.1247 8.81628Z" fill="#BF643A"/>
<path d="M53.281 7.22194C53.2478 7.63793 53.1927 8.05464 53.1136 8.44005C52.9314 9.35523 52.6213 10.1019 52.095 10.3195C50.7698 10.867 49.0187 10.087 48.3342 9.16893C47.6504 8.2509 47.459 3.69987 47.459 3.69987L49.511 2.28265L53.3114 3.85276C53.3114 3.85276 53.4329 5.55441 53.281 7.22194Z" fill="#FFBA9A"/>
<path d="M47.3843 7.21908C48.1162 6.66514 48.6403 5.84382 48.7908 4.54109C51.9744 5.94195 53.7411 5.42854 55.0889 3.31516C55.0889 3.31516 53.5582 3.28671 51.5895 2.0366C49.5183 0.721782 44.2685 1.9022 46.3968 7.1046L47.3851 7.21908H47.3843Z" fill="#013D55"/>
<path d="M48.0853 6.06137C48.4717 6.67789 48.3608 7.4473 47.8374 7.78009C47.314 8.11289 46.5758 7.8832 46.1894 7.26668C45.803 6.65016 45.9139 5.88075 46.4373 5.54796C46.9608 5.21516 47.6989 5.44485 48.0853 6.06137Z" fill="#FFBA9A"/>
<path d="M51.3286 6.80314C51.3286 6.96882 51.2156 7.10322 51.0764 7.10322C50.9372 7.10322 50.8242 6.96882 50.8242 6.80314C50.8242 6.63745 50.9372 6.50305 51.0764 6.50305C51.2156 6.50305 51.3286 6.63745 51.3286 6.80314Z" fill="#013D55"/>
<path d="M52.9585 6.8494C52.9585 7.01509 52.8454 7.14948 52.7063 7.14948C52.5671 7.14948 52.4541 7.01509 52.4541 6.8494C52.4541 6.68371 52.5671 6.54932 52.7063 6.54932C52.8454 6.54932 52.9585 6.68371 52.9585 6.8494Z" fill="#013D55"/>
<path d="M51.9829 7.15729C52.0683 7.21702 52.1524 7.27533 52.2365 7.34004C52.3205 7.40546 52.4032 7.4787 52.4696 7.58608C52.5367 7.69559 52.5296 7.86341 52.4597 7.96296C52.3919 8.06465 52.3036 8.1322 52.2103 8.18767L52.1672 8.13718C52.2273 8.05185 52.2937 7.97434 52.3297 7.89185C52.3679 7.80936 52.3629 7.74181 52.3226 7.66857C52.2859 7.59248 52.2089 7.5235 52.1411 7.44742C52.0705 7.37275 51.9949 7.29524 51.9355 7.20351L51.9836 7.15729H51.9829Z" fill="#013D55"/>
<path d="M51.3616 6.01956C51.3771 6.20943 51.1066 6.20871 50.7753 6.23716C50.444 6.26489 50.1685 6.21298 50.1614 6.12054C50.1424 5.89512 51.0296 5.86881 51.161 5.86241C51.197 5.86028 51.2337 5.85956 51.2683 5.87094C51.3312 5.89228 51.3573 5.95841 51.3623 6.01956H51.3616Z" fill="#013D55"/>
<path d="M52.4045 6.06224C52.3961 6.25637 52.6073 6.26206 52.8658 6.29691C53.1244 6.33246 53.3377 6.28482 53.3419 6.19024C53.3518 5.95914 52.6603 5.91434 52.5585 5.90509C52.5303 5.90225 52.5013 5.90011 52.4752 5.91149C52.4264 5.93211 52.4074 5.99896 52.4045 6.06224Z" fill="#013D55"/>
<path d="M52.2071 9.00259C52.2586 8.92579 52.3038 8.8369 52.3392 8.73237L50.7441 8.54749C50.783 8.65984 50.831 8.7601 50.8861 8.84899C51.1623 8.94428 51.6745 9.07796 52.2071 9.00259Z" fill="white"/>
<path d="M50.8857 8.84906C51.2361 9.41438 51.8719 9.499 52.2067 9.00266C51.6741 9.07732 51.1619 8.94364 50.8857 8.84906Z" fill="#013D55"/>
<path opacity="0.6" d="M50.4715 7.8675C50.5619 7.48384 50.3262 7.09908 49.9451 7.0081C49.564 6.91712 49.1817 7.15439 49.0914 7.53805C49.001 7.92171 49.2367 8.30648 49.6178 8.39745C49.9989 8.48843 50.3811 8.25116 50.4715 7.8675Z" fill="#FF9498"/>
<path opacity="0.6" d="M53.2808 7.22205C53.2476 7.63804 53.1925 8.05474 53.1134 8.44016C52.9495 8.31145 52.8457 8.1095 52.8457 7.88337C52.8457 7.58684 53.0251 7.33227 53.2801 7.22205H53.2808Z" fill="#FF9498"/>
<path d="M47.4184 6.98304C47.34 6.81167 47.275 6.64456 47.1648 6.51514C47.061 6.38003 46.9176 6.29541 46.748 6.2179L46.7601 6.15248C46.9585 6.14181 47.1648 6.24635 47.2948 6.40848C47.4212 6.57416 47.4813 6.77398 47.4827 6.96882L47.4177 6.98233L47.4184 6.98304Z" fill="#013D55"/>
<path d="M25.1667 17.3458C28.8772 17.3458 31.8851 14.3178 31.8851 10.5826C31.8851 6.84735 28.8772 3.81934 25.1667 3.81934C21.4562 3.81934 18.4482 6.84735 18.4482 10.5826C18.4482 14.3178 21.4562 17.3458 25.1667 17.3458Z" fill="#C2AFEA"/>
<path d="M29.2591 10.0905L34.6948 14.7638L28.8311 14.0257L29.2591 10.0905Z" fill="#C2AFEA"/>
<path d="M21.5636 11.4715C22.0513 11.4715 22.4466 11.0735 22.4466 10.5826C22.4466 10.0917 22.0513 9.69373 21.5636 9.69373C21.076 9.69373 20.6807 10.0917 20.6807 10.5826C20.6807 11.0735 21.076 11.4715 21.5636 11.4715Z" fill="white"/>
<path d="M25.1662 11.4715C25.6538 11.4715 26.0492 11.0735 26.0492 10.5826C26.0492 10.0917 25.6538 9.69376 25.1662 9.69376C24.6785 9.69376 24.2832 10.0917 24.2832 10.5826C24.2832 11.0735 24.6785 11.4715 25.1662 11.4715Z" fill="white"/>
<path d="M28.7687 11.4715C29.2564 11.4715 29.6517 11.0735 29.6517 10.5826C29.6517 10.0917 29.2564 9.69376 28.7687 9.69376C28.2811 9.69376 27.8857 10.0917 27.8857 10.5826C27.8857 11.0735 28.2811 11.4715 28.7687 11.4715Z" fill="white"/>
<path opacity="0.3" d="M176.072 69.0228H167.355C166.29 69.0228 165.427 69.8919 165.427 70.9641V74.0076C165.427 75.0797 166.29 75.9489 167.355 75.9489H176.072C177.137 75.9489 178 75.0797 178 74.0076V70.9641C178 69.8919 177.137 69.0228 176.072 69.0228Z" fill="#BFA564"/>
<path d="M174.739 73.2324C175.148 73.2324 175.48 72.8981 175.48 72.4858C175.48 72.0734 175.148 71.7391 174.739 71.7391C174.329 71.7391 173.997 72.0734 173.997 72.4858C173.997 72.8981 174.329 73.2324 174.739 73.2324Z" fill="#FFF2D2"/>
<path d="M171.713 73.2324C172.123 73.2324 172.455 72.8981 172.455 72.4858C172.455 72.0734 172.123 71.7391 171.713 71.7391C171.304 71.7391 170.972 72.0734 170.972 72.4858C170.972 72.8981 171.304 73.2324 171.713 73.2324Z" fill="#FFF2D2"/>
<path d="M168.689 73.2324C169.099 73.2324 169.431 72.8981 169.431 72.4858C169.431 72.0734 169.099 71.7391 168.689 71.7391C168.279 71.7391 167.947 72.0734 167.947 72.4858C167.947 72.8981 168.279 73.2324 168.689 73.2324Z" fill="#FFF2D2"/>
<path d="M164.077 54.3224C167.787 54.3224 170.795 51.2944 170.795 47.5591C170.795 43.8239 167.787 40.7959 164.077 40.7959C160.366 40.7959 157.358 43.8239 157.358 47.5591C157.358 51.2944 160.366 54.3224 164.077 54.3224Z" fill="#F5CC00"/>
<path d="M159.984 47.0671L154.548 51.7404L160.412 51.0023L159.984 47.0671Z" fill="#F5CC00"/>
<path d="M163.866 51.0215C163.714 51.3216 163.292 51.3323 163.125 51.0407L161.058 47.4348C160.912 47.1816 160.999 46.8574 161.251 46.7116C161.502 46.5651 161.824 46.6518 161.969 46.9057L163.457 49.5005L166.157 44.1779C166.286 43.9227 166.592 43.7911 166.852 43.9084C167.13 44.0329 167.244 44.3642 167.107 44.633L163.866 51.0215Z" fill="white"/>
<path d="M175.551 104.571H4.13477V104.997H175.551V104.571Z" fill="#BFA564"/>
</g>
<defs>
<clipPath id="clip0_121_459">
<rect width="178" height="105" fill="white"/>
</clipPath>
</defs>
</svg>
