<svg width="500" height="373" viewBox="0 0 500 373" fill="none" xmlns="http://www.w3.org/2000/svg">
<g clip-path="url(#clip0_2605_13524)">
<path d="M500 327.45H0V327.7H500V327.45Z" fill="#EBEBEB"/>
<path d="M449.9 343.54H416.78V343.79H449.9V343.54Z" fill="#EBEBEB"/>
<path d="M331.22 346.26H322.53V346.51H331.22V346.26Z" fill="#EBEBEB"/>
<path d="M415.78 334.26H396.59V334.51H415.78V334.26Z" fill="#EBEBEB"/>
<path d="M95.65 335.94H52.46V336.19H95.65V335.94Z" fill="#EBEBEB"/>
<path d="M110.89 335.94H104.56V336.19H110.89V335.94Z" fill="#EBEBEB"/>
<path d="M225.15 340.16H131.47V340.41H225.15V340.16Z" fill="#EBEBEB"/>
<path d="M237.01 282.85H43.9102C40.7602 282.85 38.2002 280.29 38.2002 277.14V5.71C38.2002 2.56 40.7602 0 43.9102 0H237.01C240.16 0 242.72 2.56 242.72 5.71V277.14C242.72 280.29 240.16 282.85 237.01 282.85ZM43.9102 0.25C40.9002 0.25 38.4502 2.7 38.4502 5.71V277.14C38.4502 280.15 40.9002 282.6 43.9102 282.6H237.01C240.02 282.6 242.47 280.15 242.47 277.14V5.71C242.47 2.7 240.02 0.25 237.01 0.25H43.9102Z" fill="#EBEBEB"/>
<path d="M453.31 282.85H260.21C257.06 282.85 254.5 280.29 254.5 277.14V5.71C254.5 2.56 257.06 0 260.21 0H453.31C456.46 0 459.02 2.56 459.02 5.71V277.14C459.02 280.29 456.46 282.85 453.31 282.85ZM260.21 0.25C257.2 0.25 254.75 2.7 254.75 5.71V277.14C254.75 280.15 257.2 282.6 260.21 282.6H453.31C456.32 282.6 458.77 280.15 458.77 277.14V5.71C458.77 2.7 456.32 0.25 453.31 0.25H260.21Z" fill="#EBEBEB"/>
<path d="M393.08 21.21H101.29V157.73H393.08V21.21Z" fill="#E6E6E6"/>
<path d="M397.47 21.21H103.34V157.73H397.47V21.21Z" fill="#F0F0F0"/>
<path d="M393.08 157.73H101.29V164.69H393.08V157.73Z" fill="#E6E6E6"/>
<path d="M404.79 157.73H110.66V164.69H404.79V157.73Z" fill="#F0F0F0"/>
<path d="M391.31 151.58V27.37L109.49 27.37V151.58H391.31Z" fill="#FAFAFA"/>
<path d="M139.73 151.58L156.86 27.37H183.59L166.46 151.58H139.73Z" fill="white"/>
<path d="M112.34 145.45C112.1 145.45 111.9 145.25 111.9 145.01V31.3699C111.9 31.1299 112.1 30.9299 112.34 30.9299C112.58 30.9299 112.78 31.1299 112.78 31.3699V145.01C112.78 145.25 112.58 145.45 112.34 145.45Z" fill="#F0F0F0"/>
<path d="M172.2 151.58L189.33 27.37H199.75L182.62 151.58H172.2Z" fill="white"/>
<path d="M391.31 151.58V27.37H390.53V151.58H391.31Z" fill="#E6E6E6"/>
<path opacity="0.6" d="M398.92 36.64H107.14L106.57 29.76H398.36L398.92 36.64Z" fill="#EBEBEB"/>
<path opacity="0.6" d="M398.92 47.9399H107.14L106.57 41.0499H398.36L398.92 47.9399Z" fill="#EBEBEB"/>
<path opacity="0.6" d="M398.92 59.23H107.14L106.57 52.35H398.36L398.92 59.23Z" fill="#EBEBEB"/>
<path opacity="0.6" d="M398.92 70.53H107.14L106.57 63.64H398.36L398.92 70.53Z" fill="#EBEBEB"/>
<path opacity="0.6" d="M398.92 81.8199H107.14L106.57 74.9399H398.36L398.92 81.8199Z" fill="#EBEBEB"/>
<path opacity="0.6" d="M398.92 93.12H107.14L106.57 86.23H398.36L398.92 93.12Z" fill="#EBEBEB"/>
<path d="M439 192.05H394.47V327.45H439V192.05Z" fill="#E6E6E6"/>
<path d="M427.11 327.45H439V308.76H414.64L427.11 327.45Z" fill="#FAFAFA"/>
<path d="M317.59 192.05H273.06V327.45H317.59V192.05Z" fill="#E6E6E6"/>
<path d="M439 192.05H307.21V321.02H439V192.05Z" fill="#FAFAFA"/>
<path d="M319.1 327.45H307.21V308.76H331.57L319.1 327.45Z" fill="#FAFAFA"/>
<path d="M429.77 240.1H316.43V272.37H429.77V240.1Z" fill="#F0F0F0"/>
<path d="M429.77 279.28H316.43V311.55H429.77V279.28Z" fill="#F0F0F0"/>
<path d="M334.24 237.31H411.96V238.88C411.96 241.46 409.87 243.55 407.29 243.55H338.92C336.34 243.55 334.25 241.46 334.25 238.88V237.31H334.24Z" fill="#FAFAFA"/>
<path d="M429.77 200.93H316.43V233.2H429.77V200.93Z" fill="#F0F0F0"/>
<path d="M334.24 198.14H411.96V199.71C411.96 202.29 409.87 204.38 407.29 204.38H338.92C336.34 204.38 334.25 202.29 334.25 199.71V198.14H334.24Z" fill="#FAFAFA"/>
<path d="M334.24 276.48H411.96V278.05C411.96 280.63 409.87 282.72 407.29 282.72H338.92C336.34 282.72 334.25 280.63 334.25 278.05V276.48H334.24Z" fill="#FAFAFA"/>
<path d="M53.42 220.91C55.9 213.79 75.46 223.47 83.4 235.28C88.69 243.14 91.92 251.53 93.42 262.8C93.24 249.94 93.03 236.12 92.83 223.08C91.22 219.83 87.56 212.33 84.92 206.39C76.12 186.57 55.2 179.19 47.97 166.68C38.5 150.28 38.55 125.69 46.62 116.82C53.63 109.11 76.82 161.26 79.44 167.08C88.43 187.12 91.04 201.99 92.73 216.4C92.54 204.15 92.35 192.91 92.2 184.23C91.71 155.93 91.09 146.83 90.81 144.03C89.84 142.66 88.7 141.07 88.03 140.21C82.42 132.98 69.96 124.38 63.73 113.87C54.64 98.53 56.11 80.17 62.48 73.33C69.15 66.18 80.93 83.08 87.19 99.82C93.45 116.56 90.77 132.58 92.53 146.49C92.9 149.22 93.27 159.57 93.63 173.94C95.53 158.48 99.31 148.13 106.32 138.48C114.94 126.61 122.38 112.16 129.48 114.02C136.58 115.89 132.76 135.01 127.14 148.44C122.14 160.4 97.46 172.32 93.82 181.94C94.25 201.41 94.63 226.08 94.9 249.05C96.85 237.19 95.51 236.19 103.48 218.02C108.22 207.22 127.65 193.9 129.97 201.32C132.24 208.6 128.77 222.76 121.43 232.59C115.51 240.51 102.38 240.5 99.34 245.42C98.63 246.57 96.29 250.96 94.95 253.49C95.27 281.53 95.41 306.29 95.25 314.73L93.98 314.82C94.04 312.64 93.89 298.38 93.64 279.5C90.45 269.45 68.99 263.59 62.36 253.15C55.42 242.22 50.43 229.46 53.41 220.92L53.42 220.91Z" fill="#E6E6E6"/>
<path d="M73.5998 327.45H114.8C117.05 327.45 118.99 325.86 119.44 323.66L122.36 309.24H66.0298L68.9498 323.66C69.3998 325.87 71.3398 327.45 73.5898 327.45H73.5998Z" fill="#F0F0F0"/>
<path d="M64.86 314.82H123.54C124.95 314.82 126.13 313.76 126.29 312.37L127.49 301.71C127.67 300.07 126.39 298.64 124.74 298.64H63.66C62.01 298.64 60.73 300.07 60.91 301.71L62.11 312.37C62.27 313.77 63.45 314.82 64.86 314.82Z" fill="#F0F0F0"/>
<path d="M177.84 262.67H142.63V327.45H177.84V262.67Z" fill="#E0E0E0"/>
<path d="M267.58 327.45H149.69L137.3 239.55H255.19L267.58 327.45Z" fill="#E6E6E6"/>
<path d="M284.78 327.45H154.37L141.99 239.55H272.39L284.78 327.45Z" fill="#F0F0F0"/>
<path d="M167.14 313.7L156.7 253.29H259.63L270.06 313.7H167.14Z" fill="white"/>
<path d="M211.36 313.7L176.38 253.29H187.35L222.34 313.7H211.36Z" fill="#FAFAFA"/>
<path d="M226.99 313.7L192 253.29H210.72L245.7 313.7H226.99Z" fill="#FAFAFA"/>
<path d="M250 372.61C357.082 372.61 443.89 367.542 443.89 361.29C443.89 355.038 357.082 349.97 250 349.97C142.917 349.97 56.1099 355.038 56.1099 361.29C56.1099 367.542 142.917 372.61 250 372.61Z" fill="#F5F5F5"/>
<path d="M77.27 166.58C77.05 166.58 76.86 166.41 76.85 166.19L74.63 139.49C74.61 139.26 74.78 139.05 75.02 139.03C75.24 139.01 75.46 139.18 75.48 139.42L77.7 166.12C77.72 166.35 77.55 166.56 77.31 166.58C77.3 166.58 77.29 166.58 77.27 166.58Z" fill="#407BFF"/>
<path d="M78.5901 182.44C78.3701 182.44 78.1801 182.27 78.1701 182.05L77.5001 173.97C77.4801 173.74 77.6501 173.53 77.8901 173.51C78.1101 173.48 78.3301 173.66 78.3501 173.9L79.0201 181.98C79.0401 182.21 78.8701 182.42 78.6301 182.44C78.6201 182.44 78.6101 182.44 78.5901 182.44Z" fill="#407BFF"/>
<path d="M303.56 258.42H97.0801C91.8101 258.42 87.1401 254.11 86.7001 248.84L75.0701 109.07C74.6301 103.8 78.5801 99.49 83.8501 99.49H290.32C295.59 99.49 300.26 103.8 300.7 109.07L312.33 248.84C312.77 254.11 308.82 258.42 303.55 258.42H303.56Z" fill="white"/>
<path d="M303.56 258.82H97.0799C91.5999 258.82 86.7599 254.36 86.3099 248.88L74.6799 109.11C74.4599 106.44 75.2999 103.93 77.0499 102.03C78.7899 100.14 81.2099 99.1 83.8599 99.1H290.33C295.81 99.1 300.65 103.56 301.1 109.05L312.73 248.82C312.95 251.49 312.11 254 310.36 255.9C308.62 257.79 306.2 258.83 303.55 258.83L303.56 258.82ZM83.8599 99.89C81.4299 99.89 79.2199 100.84 77.6299 102.56C76.0399 104.29 75.2699 106.59 75.4699 109.03L87.0999 248.8C87.5199 253.88 91.9999 258.01 97.0799 258.01H303.55C305.98 258.01 308.19 257.06 309.78 255.34C311.37 253.61 312.14 251.31 311.94 248.87L300.31 109.1C299.89 104.02 295.41 99.89 290.33 99.89H83.8599Z" fill="#407BFF"/>
<path d="M290.33 99.49H83.8599C78.5899 99.49 74.6399 103.8 75.0799 109.07H300.71C300.27 103.8 295.6 99.49 290.33 99.49Z" fill="#407BFF"/>
<path d="M88.6902 104.28C88.7802 105.42 87.9402 106.35 86.8002 106.35C85.6602 106.35 84.6602 105.43 84.5602 104.28C84.4602 103.13 85.3102 102.21 86.4502 102.21C87.5902 102.21 88.5902 103.13 88.6902 104.28Z" fill="white"/>
<path d="M97.0901 104.28C97.1801 105.42 96.3401 106.35 95.2001 106.35C94.0601 106.35 93.0601 105.43 92.9601 104.28C92.8601 103.13 93.7101 102.21 94.8501 102.21C95.9901 102.21 96.9901 103.13 97.0901 104.28Z" fill="white"/>
<path d="M105.49 104.28C105.58 105.42 104.74 106.35 103.6 106.35C102.46 106.35 101.46 105.43 101.36 104.28C101.26 103.14 102.11 102.21 103.25 102.21C104.39 102.21 105.39 103.13 105.49 104.28Z" fill="white"/>
<path d="M285.64 240.1H111.95C107.76 240.1 104.05 236.67 103.7 232.49L95.5901 135C95.2401 130.81 98.3801 127.39 102.57 127.39H276.25C280.44 127.39 284.15 130.82 284.5 135L292.61 232.49C292.96 236.68 289.82 240.1 285.63 240.1H285.64Z" fill="#F0F0F0"/>
<path opacity="0.1" d="M231.92 144.45L178.11 209.23C170.73 218.12 175.4 231.66 186.7 234.11L273.97 252.99C286.02 255.6 296.09 243.68 291.51 232.23L258.05 148.57C253.72 137.74 239.38 135.48 231.92 144.45Z" fill="#263238"/>
<path opacity="0.1" d="M112.16 153.54L93.4198 204.01C90.9198 210.74 96.3298 217.77 103.48 217.07L158.21 211.7C165.88 210.95 169.67 201.99 164.86 195.96L128.87 150.86C124.15 144.95 114.79 146.45 112.16 153.54Z" fill="#263238"/>
<path d="M250.48 128.14L200.18 201.18C193.33 211.13 199.4 224.8 211.37 226.4L303.83 238.71C316.66 240.42 326.21 227.11 320.47 215.5L278.31 130.16C272.84 119.09 257.48 117.98 250.48 128.15V128.14Z" fill="#407BFF"/>
<path d="M213.57 219.85C210.21 219.4 207.28 217.28 205.75 214.18C204.22 211.08 204.39 207.64 206.22 204.98L256.65 131.76C258.48 129.1 261.58 127.79 264.94 128.23C268.3 128.68 271.23 130.8 272.76 133.9L315.03 219.46C316.56 222.56 316.39 226 314.56 228.66C312.73 231.32 309.63 232.63 306.27 232.19L213.57 219.85Z" fill="white"/>
<path d="M260.65 154.12L266.54 154.9C270.33 155.4 273.24 158.85 273.05 162.59L272.66 170.27C272.65 170.55 272.61 170.83 272.56 171.11L268.37 194.26C267.77 197.6 264.72 199.75 261.26 199.29C257.79 198.83 255 195.88 254.76 192.42L253.06 168.5C253.04 168.22 253.04 167.95 253.06 167.67L253.46 159.98C253.65 156.23 256.88 153.61 260.67 154.11L260.65 154.12ZM260.18 205.68L261.79 205.89C265.18 206.34 267.78 209.42 267.61 212.77C267.44 216.12 264.55 218.47 261.16 218.02L259.55 217.81C256.16 217.36 253.56 214.28 253.73 210.93C253.9 207.58 256.79 205.23 260.18 205.68Z" fill="#407BFF"/>
<path d="M131.5 139.31L117.69 191.68C115.86 198.61 121.91 205.07 128.95 203.7L182.52 193.25C190.05 191.78 192.99 182.58 187.71 177.02L147.95 135.1C142.71 129.57 133.44 131.95 131.49 139.31H131.5Z" fill="#407BFF"/>
<path d="M128.85 199.46C126.9 199.84 124.88 199.16 123.43 197.63C121.98 196.11 121.42 194.06 121.92 192.15L135.77 139.64C136.27 137.74 137.74 136.37 139.68 135.99C141.63 135.61 143.65 136.29 145.1 137.82L184.96 179.85C186.41 181.37 186.97 183.42 186.47 185.33C185.97 187.23 184.5 188.6 182.56 188.98L128.85 199.46Z" fill="white"/>
<path d="M142.29 151.98L145.7 151.31C147.89 150.88 150.17 152.34 150.78 154.57L152.04 159.14C152.09 159.31 152.12 159.48 152.15 159.65L154.28 174.01C154.59 176.08 153.31 177.92 151.31 178.32C149.3 178.71 147.19 177.52 146.39 175.54L140.85 161.86C140.79 161.7 140.73 161.54 140.69 161.38L139.43 156.8C138.82 154.57 140.1 152.42 142.29 151.99V151.98ZM151.94 182.26L152.87 182.08C154.83 181.7 156.87 183 157.42 185C157.97 186.99 156.82 188.92 154.86 189.3L153.93 189.48C151.97 189.86 149.93 188.56 149.38 186.56C148.83 184.57 149.98 182.64 151.94 182.26Z" fill="#407BFF"/>
<path d="M388.36 151.08L380.6 153.6L386.84 160.99C386.84 160.99 389.78 158.49 391.38 155.68C392.05 154.51 391.66 153.01 390.5 152.33L388.36 151.08Z" fill="#7F3E3B"/>
<path d="M377.03 159.67L381.68 165.32L386.84 160.99L380.6 153.6L377.03 159.67Z" fill="#7F3E3B"/>
<path d="M390.87 90.73C392.77 95.93 394.51 101.13 396.15 106.4C397.78 111.68 399.33 116.96 400.65 122.51L401.12 124.64L401.34 125.75L401.45 126.31L401.48 126.45L401.51 126.66L401.57 127.08C401.85 129.34 401.61 131.12 401.3 132.77C400.65 136.04 399.59 138.81 398.42 141.5C396.04 146.84 393.19 151.64 389.86 156.3L384.67 153.43C386.51 148.45 388.32 143.32 389.68 138.37C390.33 135.91 390.9 133.42 391.06 131.28C391.14 130.23 391.08 129.25 390.94 128.8L390.51 127.24L389.95 125.39C388.38 120.38 386.59 115.23 384.82 110.12C383.06 105 381.28 99.83 379.58 94.7L390.87 90.74V90.73Z" fill="#7F3E3B"/>
<path d="M347.68 59.7899C347.81 60.4099 347.59 60.9999 347.19 61.0999C346.79 61.1999 346.35 60.7799 346.22 60.1599C346.09 59.5399 346.31 58.9499 346.71 58.8499C347.11 58.7499 347.55 59.1699 347.68 59.7899Z" fill="#263238"/>
<path d="M347.65 60.99C347.65 60.99 347.01 64.94 345.83 67.07C347.14 67.82 348.9 66.88 348.9 66.88L347.65 60.99Z" fill="#630F0F"/>
<path d="M346.03 56.01C345.91 56.01 345.8 55.95 345.72 55.85C345.6 55.68 345.64 55.45 345.81 55.33C345.87 55.29 347.31 54.3 349.2 55.08C349.39 55.16 349.48 55.38 349.4 55.57C349.32 55.76 349.1 55.85 348.91 55.77C347.4 55.15 346.25 55.94 346.24 55.95C346.17 56 346.1 56.02 346.03 56.02V56.01Z" fill="#263238"/>
<path d="M369.11 61.77C369.81 69.03 368.78 76.06 370.4 82.37C370.4 82.37 368.6 88.23 357.87 88.23C346.07 88.23 352.46 82.37 352.46 82.37C358.96 80.83 358.98 76.05 358.03 71.57L369.12 61.77H369.11Z" fill="#7F3E3B"/>
<path d="M372.69 84.38C373.61 82.53 374.22 79.9 372.32 79.24C370.23 78.51 359.06 78.27 355.01 79.64C350.96 81.01 351.95 84.77 351.95 84.77L372.7 84.38H372.69Z" fill="#263238"/>
<path d="M396.8 347.74C397.58 347.56 398.38 347.2 398.92 346.92C398.99 346.88 399.04 346.81 399.03 346.72C399.02 346.63 398.97 346.57 398.89 346.54C398.54 346.42 395.44 345.4 394.62 346.09C394.49 346.2 394.35 346.4 394.41 346.73C394.49 347.18 394.71 347.5 395.07 347.68C395.53 347.91 396.15 347.88 396.79 347.73L396.8 347.74ZM398.28 346.78C396.92 347.4 395.81 347.61 395.26 347.33C395.02 347.21 394.87 346.99 394.82 346.67C394.79 346.51 394.84 346.45 394.89 346.41C395.31 346.05 397.03 346.41 398.28 346.78Z" fill="#407BFF"/>
<path d="M398.88 346.94C398.88 346.94 398.95 346.91 398.98 346.88C399.03 346.83 399.05 346.75 399.03 346.68C399 346.58 398.22 344.21 397.06 343.64C396.76 343.49 396.45 343.47 396.15 343.58C395.69 343.75 395.63 344.07 395.64 344.25C395.68 345.23 397.8 346.67 398.78 346.94C398.81 346.94 398.85 346.94 398.88 346.94ZM396.38 343.94C396.54 343.9 396.71 343.92 396.88 344.01C397.63 344.37 398.23 345.72 398.49 346.4C397.47 345.95 396.07 344.81 396.05 344.23C396.05 344.18 396.05 344.05 396.29 343.96C396.29 343.96 396.35 343.94 396.38 343.93V343.94Z" fill="#407BFF"/>
<path d="M342.18 353.84C342.98 353.84 343.84 353.67 344.44 353.53C344.52 353.51 344.58 353.45 344.59 353.36C344.6 353.27 344.57 353.2 344.5 353.15C344.19 352.95 341.4 351.24 340.45 351.73C340.3 351.81 340.12 351.97 340.1 352.31C340.07 352.77 340.21 353.13 340.52 353.39C340.91 353.72 341.52 353.83 342.18 353.83V353.84ZM343.84 353.24C342.38 353.53 341.25 353.48 340.78 353.08C340.57 352.91 340.48 352.66 340.5 352.34C340.51 352.18 340.57 352.13 340.63 352.1C341.13 351.85 342.71 352.58 343.84 353.24Z" fill="#407BFF"/>
<path d="M344.38 353.54C344.38 353.54 344.46 353.53 344.49 353.51C344.55 353.47 344.59 353.4 344.58 353.32C344.58 353.21 344.37 350.73 343.36 349.91C343.1 349.7 342.81 349.61 342.49 349.65C342 349.71 341.87 350.01 341.84 350.19C341.66 351.15 343.38 353.04 344.28 353.53C344.31 353.55 344.34 353.55 344.38 353.55V353.54ZM342.64 350.04C342.81 350.04 342.96 350.1 343.11 350.22C343.75 350.74 344.03 352.2 344.13 352.92C343.24 352.25 342.14 350.82 342.25 350.25C342.25 350.2 342.28 350.08 342.55 350.04C342.55 350.04 342.61 350.04 342.64 350.04Z" fill="#407BFF"/>
<path d="M353.67 353.23H345.77L345.69 334.95H353.59L353.67 353.23Z" fill="#7F3E3B"/>
<path d="M408.66 346.46L401.06 347.86L395.61 329.87L403.21 328.48L408.66 346.46Z" fill="#7F3E3B"/>
<path d="M399.62 345.83L408.25 343.79C408.56 343.72 408.88 343.87 409.01 344.16L411.88 350.69C412.18 351.37 411.75 352.18 411.03 352.33C408.01 352.99 406.51 353.16 402.71 354.06C400.38 354.61 395.61 355.99 392.39 356.76C389.24 357.51 388.11 354.4 389.38 353.8C395.04 351.09 396.92 348.77 398.48 346.6C398.76 346.21 399.17 345.94 399.63 345.83H399.62Z" fill="#263238"/>
<path d="M345.86 352.31H354.48C354.8 352.31 355.07 352.53 355.13 352.85L356.42 359.87C356.55 360.6 355.97 361.29 355.23 361.27C352.12 361.22 347.64 361.03 343.73 361.03C339.16 361.03 337.53 361.28 332.17 361.28C328.93 361.28 328.16 358 329.52 357.71C335.75 356.36 338.47 356.21 343.93 352.92C344.52 352.56 345.17 352.31 345.86 352.31Z" fill="#263238"/>
<path d="M388 84.4099C395.37 89.5899 397.58 102.95 397.58 102.95L380.88 111.42C380.88 111.42 376.64 103.2 374.78 94.8499C373.02 86.9499 382.75 80.7199 387.99 84.4099H388Z" fill="#407BFF"/>
<path opacity="0.2" d="M379.65 92.9299L386.23 108.69L380.89 111.42C380.89 111.42 378.56 106.89 376.57 101.09L379.65 92.9199V92.9299Z" fill="black"/>
<path d="M338.89 119.08C338.95 127.89 339.48 138.85 340.79 152.45H383.01C383.53 146.25 380.94 117.01 387.22 87.74C387.69 85.56 386.23 83.44 384.03 83.1C381.34 82.68 377.66 82.2 374.06 82.03C368.68 81.77 360.87 81.6 356.12 82.03C353.53 82.26 351 82.68 348.92 83.08C345.32 83.78 342.45 86.47 341.5 90.02C340.59 93.41 339.66 98.62 339.19 106.47C338.97 110.09 338.86 114.26 338.89 119.07V119.08Z" fill="#407BFF"/>
<path opacity="0.2" d="M352.21 102.51C349.42 104.56 344.08 105.5 339.22 105.92C339.3 104.63 339.4 103.41 339.51 102.26C340.82 101.57 342.08 100.94 343.27 100.36L352.21 102.51Z" fill="black"/>
<g opacity="0.2">
<path d="M345.7 334.95L345.74 345.11H353.63L353.59 334.95H345.7Z" fill="black"/>
<path d="M403.22 328.48L395.61 329.87L398.43 339.15L406.03 337.75L403.22 328.48Z" fill="black"/>
</g>
<path d="M367.99 53.27C369.15 61.04 370.21 65.52 367.22 70.41C362.71 77.77 352.61 76.63 349.19 69.45C346.1 62.98 344.73 51.36 351.51 46.44C358.18 41.59 366.84 45.5 368 53.27H367.99Z" fill="#7F3E3B"/>
<path d="M351.84 58.94C348.92 57.66 349.19 53.04 350.08 51.1C346.69 52.27 341.79 52.93 340.91 49.49C340.03 46.05 343.03 44.93 341.19 41.99C339.36 39.05 345.19 35.82 347.91 39.93C350.63 44.04 357.35 42.23 361.69 38.26C364.85 35.37 369.47 39.09 367.63 42.87C367.63 42.87 377.13 42.26 375.24 48.7C373.35 55.14 370.68 55.38 371.3 59.96C371.71 63.06 372.08 69.37 368.36 70.26C363.86 71.33 352.64 67.35 351.84 58.93V58.94Z" fill="#263238"/>
<path opacity="0.2" d="M351.78 67.36C350.92 67.98 350.03 68.64 349.12 69.34C349.14 69.38 349.15 69.41 349.17 69.45C350.11 71.42 351.56 72.94 353.26 73.96C353.83 73.41 354.14 71.56 355.21 71.59C358.38 71.67 364.51 70.35 365.53 66.77L351.79 67.36H351.78Z" fill="black"/>
<path d="M354.25 58.8299C354.47 60.8199 354.1 62.6899 353.5 63.9099C352.59 65.7399 351.18 64.5699 350.62 62.3199C350.12 60.2899 349.99 56.8999 351.29 55.8999C352.57 54.9199 354 56.5499 354.25 58.8299Z" fill="#7F3E3B"/>
<path d="M355.77 152.45C355.77 152.45 362.4 212.77 366.44 235.37C370.87 260.12 393.81 337.79 393.81 337.79L407.95 334.78C407.95 334.78 392.16 262.11 390.03 237.61C387.72 211.02 383.01 152.45 383.01 152.45H355.77Z" fill="#407BFF"/>
<path opacity="0.3" d="M355.77 152.45C355.77 152.45 362.4 212.77 366.44 235.37C370.87 260.12 393.81 337.79 393.81 337.79L407.95 334.78C407.95 334.78 392.16 262.11 390.03 237.61C388.57 220.757 386.23 192.37 383.01 152.45H355.77Z" fill="black"/>
<path d="M390.65 333.02C390.59 333.03 393.06 338.18 393.06 338.18L408.97 334.79L407.83 329.97L390.65 333.02Z" fill="#263238"/>
<path opacity="0.2" d="M360.6 173.94C370.88 175.97 368.29 214.6 366.28 234.46C363.84 220.42 360.51 193.4 358.26 174.22C358.96 173.88 359.74 173.77 360.6 173.94Z" fill="black"/>
<path d="M340.79 152.45C340.79 152.45 337.42 211.46 337.35 235.53C337.28 260.57 342.86 342.54 342.86 342.54H356.23C356.23 342.54 359.83 262.03 361.37 237.44C363.05 210.63 368.54 152.44 368.54 152.44H340.79V152.45Z" fill="#407BFF"/>
<path opacity="0.3" d="M340.79 152.45C340.79 152.45 337.42 211.46 337.35 235.53C337.28 260.57 342.86 342.54 342.86 342.54H356.23C356.23 342.54 359.83 262.03 361.37 237.44C363.05 210.63 368.54 152.44 368.54 152.44H340.79V152.45Z" fill="black"/>
<path d="M340.5 337.22C340.44 337.22 341.04 342.77 341.04 342.77H357.31L357.94 337.82L340.5 337.22Z" fill="#263238"/>
<path d="M357.52 96.79C355.92 96.95 354.57 97.03 353.11 97.07C351.67 97.12 350.24 97.14 348.8 97.13C345.93 97.1 343.05 96.95 340.15 96.63C337.25 96.32 334.34 95.85 331.41 95.13C328.48 94.42 325.52 93.44 322.59 92L322.26 91.84C319.67 90.57 318.61 87.44 319.88 84.86C320.02 84.58 320.2 84.29 320.38 84.05C321.75 82.21 323.07 80.93 324.43 79.72C325.78 78.52 327.13 77.45 328.49 76.43C331.21 74.38 333.99 72.57 336.78 70.81C339.59 69.07 342.42 67.43 345.29 65.86C348.18 64.32 351.05 62.8 354.05 61.4C355.54 60.71 357.31 61.36 358.01 62.85C358.61 64.14 358.21 65.64 357.12 66.47L357.09 66.5C354.57 68.43 351.99 70.34 349.48 72.3C346.95 74.24 344.44 76.19 341.99 78.17C339.53 80.13 337.13 82.15 334.86 84.18C333.73 85.2 332.64 86.23 331.67 87.27C330.71 88.29 329.8 89.35 329.31 90.15L327.09 82.19C329.13 82.98 331.42 83.55 333.81 83.98C336.21 84.4 338.7 84.67 341.22 84.84C343.75 85 346.31 85.08 348.88 85.09C350.17 85.09 351.46 85.09 352.74 85.05C354 85 355.36 84.96 356.48 84.9H356.62C359.92 84.71 362.74 87.23 362.93 90.53C363.11 93.74 360.71 96.5 357.54 96.82L357.52 96.79Z" fill="#7F3E3B"/>
<path d="M363.12 59.7699L358.1 60.8799C358.1 60.8799 351.41 60.0499 349.88 65.0899L353.84 68.4699L359.96 69.4399C360.93 69.5899 361.92 69.4399 362.8 68.9799L364.36 68.1699C365.08 67.7999 365.56 67.0899 365.63 66.2799L366 62.3099C366.15 60.7099 364.69 59.4199 363.12 59.7699Z" fill="#7F3E3B"/>
<path d="M353.36 102.63C344.95 104.96 335.36 102.05 335.36 102.05L338.89 83.22C338.89 83.22 347.25 82.49 352.46 82.38C365.89 82.1 368.52 98.43 353.36 102.64V102.63Z" fill="#407BFF"/>
</g>
<path d="M136.463 53H132.615L126.404 42.1992H126.316C126.342 42.6484 126.365 43.1009 126.385 43.5566C126.404 44.0124 126.424 44.4681 126.443 44.9238C126.463 45.373 126.482 45.8255 126.502 46.2812V53H123.797V38.7227H127.615L133.816 49.416H133.885C133.872 48.9733 133.855 48.5339 133.836 48.0977C133.816 47.6615 133.797 47.2253 133.777 46.7891C133.764 46.3529 133.751 45.9167 133.738 45.4805V38.7227H136.463V53ZM149.954 47.5215C149.954 48.4329 149.83 49.2402 149.583 49.9434C149.342 50.6465 148.987 51.2422 148.518 51.7305C148.056 52.2122 147.496 52.5768 146.839 52.8242C146.188 53.0716 145.452 53.1953 144.632 53.1953C143.863 53.1953 143.157 53.0716 142.513 52.8242C141.874 52.5768 141.318 52.2122 140.843 51.7305C140.374 51.2422 140.009 50.6465 139.749 49.9434C139.495 49.2402 139.368 48.4329 139.368 47.5215C139.368 46.3105 139.583 45.2852 140.013 44.4453C140.442 43.6055 141.054 42.9674 141.848 42.5312C142.643 42.0951 143.59 41.877 144.69 41.877C145.712 41.877 146.617 42.0951 147.405 42.5312C148.199 42.9674 148.821 43.6055 149.27 44.4453C149.726 45.2852 149.954 46.3105 149.954 47.5215ZM142.405 47.5215C142.405 48.2376 142.483 48.8398 142.639 49.3281C142.796 49.8164 143.04 50.1842 143.372 50.4316C143.704 50.679 144.137 50.8027 144.671 50.8027C145.198 50.8027 145.624 50.679 145.95 50.4316C146.282 50.1842 146.523 49.8164 146.673 49.3281C146.829 48.8398 146.907 48.2376 146.907 47.5215C146.907 46.7988 146.829 46.1999 146.673 45.7246C146.523 45.2428 146.282 44.8815 145.95 44.6406C145.618 44.3997 145.185 44.2793 144.651 44.2793C143.863 44.2793 143.29 44.5495 142.932 45.0898C142.581 45.6302 142.405 46.4408 142.405 47.5215ZM170.09 45.7246C170.09 47.3327 169.781 48.6771 169.162 49.7578C168.551 50.832 167.662 51.6426 166.496 52.1895C165.331 52.7298 163.928 53 162.287 53H158.245V38.7227H162.727C164.224 38.7227 165.523 38.9896 166.623 39.5234C167.724 40.0508 168.577 40.8353 169.182 41.877C169.787 42.9121 170.09 44.1947 170.09 45.7246ZM166.946 45.8027C166.946 44.748 166.789 43.8822 166.477 43.2051C166.171 42.5215 165.715 42.0169 165.11 41.6914C164.511 41.3659 163.769 41.2031 162.883 41.2031H161.272V50.5H162.571C164.049 50.5 165.146 50.1061 165.862 49.3184C166.584 48.5306 166.946 47.3587 166.946 45.8027ZM177.487 41.8574C178.952 41.8574 180.075 42.1764 180.857 42.8145C181.638 43.4525 182.029 44.4225 182.029 45.7246V53H179.948L179.372 51.5156H179.294C178.982 51.9062 178.663 52.2253 178.337 52.4727C178.012 52.7201 177.637 52.9023 177.214 53.0195C176.791 53.1367 176.277 53.1953 175.671 53.1953C175.027 53.1953 174.447 53.0716 173.933 52.8242C173.425 52.5768 173.025 52.1992 172.732 51.6914C172.439 51.1771 172.292 50.526 172.292 49.7383C172.292 48.5794 172.699 47.7266 173.513 47.1797C174.327 46.6263 175.547 46.3203 177.175 46.2617L179.07 46.2031V45.7246C179.07 45.1517 178.92 44.7318 178.62 44.4648C178.321 44.1979 177.904 44.0645 177.37 44.0645C176.843 44.0645 176.325 44.1393 175.818 44.2891C175.31 44.4388 174.802 44.6276 174.294 44.8555L173.308 42.8438C173.887 42.5378 174.535 42.2969 175.251 42.1211C175.974 41.9453 176.719 41.8574 177.487 41.8574ZM179.07 47.9414L177.917 47.9805C176.954 48.0065 176.283 48.179 175.905 48.498C175.534 48.8171 175.349 49.237 175.349 49.7578C175.349 50.2135 175.482 50.5391 175.749 50.7344C176.016 50.9232 176.364 51.0176 176.794 51.0176C177.432 51.0176 177.969 50.8288 178.405 50.4512C178.848 50.0736 179.07 49.5365 179.07 48.8398V47.9414ZM189.904 50.8223C190.23 50.8223 190.546 50.7897 190.852 50.7246C191.164 50.6595 191.473 50.5781 191.779 50.4805V52.6973C191.46 52.8405 191.063 52.9577 190.588 53.0488C190.119 53.1465 189.605 53.1953 189.045 53.1953C188.394 53.1953 187.808 53.0911 187.287 52.8828C186.773 52.668 186.366 52.3001 186.066 51.7793C185.773 51.252 185.627 50.5195 185.627 49.582V44.3184H184.201V43.0586L185.842 42.0625L186.701 39.7578H188.605V42.082H191.662V44.3184H188.605V49.582C188.605 49.9987 188.723 50.3112 188.957 50.5195C189.198 50.7214 189.514 50.8223 189.904 50.8223ZM198.669 41.8574C200.134 41.8574 201.257 42.1764 202.038 42.8145C202.819 43.4525 203.21 44.4225 203.21 45.7246V53H201.13L200.554 51.5156H200.475C200.163 51.9062 199.844 52.2253 199.518 52.4727C199.193 52.7201 198.818 52.9023 198.395 53.0195C197.972 53.1367 197.458 53.1953 196.852 53.1953C196.208 53.1953 195.628 53.0716 195.114 52.8242C194.606 52.5768 194.206 52.1992 193.913 51.6914C193.62 51.1771 193.473 50.526 193.473 49.7383C193.473 48.5794 193.88 47.7266 194.694 47.1797C195.508 46.6263 196.729 46.3203 198.356 46.2617L200.251 46.2031V45.7246C200.251 45.1517 200.101 44.7318 199.802 44.4648C199.502 44.1979 199.085 44.0645 198.552 44.0645C198.024 44.0645 197.507 44.1393 196.999 44.2891C196.491 44.4388 195.983 44.6276 195.475 44.8555L194.489 42.8438C195.068 42.5378 195.716 42.2969 196.432 42.1211C197.155 41.9453 197.901 41.8574 198.669 41.8574ZM200.251 47.9414L199.098 47.9805C198.135 48.0065 197.464 48.179 197.087 48.498C196.716 48.8171 196.53 49.237 196.53 49.7578C196.53 50.2135 196.664 50.5391 196.93 50.7344C197.197 50.9232 197.546 51.0176 197.975 51.0176C198.613 51.0176 199.151 50.8288 199.587 50.4512C200.029 50.0736 200.251 49.5365 200.251 48.8398V47.9414ZM215.094 53H212.116V38.7227H220.299V41.2031H215.094V44.8848H219.938V47.3555H215.094V53ZM232.98 47.5215C232.98 48.4329 232.856 49.2402 232.609 49.9434C232.368 50.6465 232.013 51.2422 231.544 51.7305C231.082 52.2122 230.522 52.5768 229.864 52.8242C229.213 53.0716 228.478 53.1953 227.657 53.1953C226.889 53.1953 226.183 53.0716 225.538 52.8242C224.9 52.5768 224.344 52.2122 223.868 51.7305C223.4 51.2422 223.035 50.6465 222.775 49.9434C222.521 49.2402 222.394 48.4329 222.394 47.5215C222.394 46.3105 222.609 45.2852 223.038 44.4453C223.468 43.6055 224.08 42.9674 224.874 42.5312C225.668 42.0951 226.616 41.877 227.716 41.877C228.738 41.877 229.643 42.0951 230.431 42.5312C231.225 42.9674 231.847 43.6055 232.296 44.4453C232.752 45.2852 232.98 46.3105 232.98 47.5215ZM225.431 47.5215C225.431 48.2376 225.509 48.8398 225.665 49.3281C225.821 49.8164 226.066 50.1842 226.398 50.4316C226.73 50.679 227.163 50.8027 227.696 50.8027C228.224 50.8027 228.65 50.679 228.976 50.4316C229.308 50.1842 229.549 49.8164 229.698 49.3281C229.855 48.8398 229.933 48.2376 229.933 47.5215C229.933 46.7988 229.855 46.1999 229.698 45.7246C229.549 45.2428 229.308 44.8815 228.976 44.6406C228.644 44.3997 228.211 44.2793 227.677 44.2793C226.889 44.2793 226.316 44.5495 225.958 45.0898C225.607 45.6302 225.431 46.4408 225.431 47.5215ZM245.66 42.082V53H243.375L242.975 51.6035H242.818C242.584 51.9746 242.291 52.2773 241.939 52.5117C241.588 52.7461 241.201 52.9186 240.777 53.0293C240.354 53.14 239.915 53.1953 239.459 53.1953C238.678 53.1953 237.997 53.0586 237.418 52.7852C236.839 52.5052 236.386 52.0723 236.061 51.4863C235.742 50.9004 235.582 50.1387 235.582 49.2012V42.082H238.561V48.459C238.561 49.2402 238.701 49.8294 238.98 50.2266C239.26 50.6237 239.706 50.8223 240.318 50.8223C240.924 50.8223 241.399 50.6855 241.744 50.4121C242.089 50.1322 242.33 49.7253 242.467 49.1914C242.61 48.651 242.682 47.9935 242.682 47.2188V42.082H245.66ZM255.186 41.877C256.352 41.877 257.289 42.196 257.999 42.834C258.708 43.4655 259.063 44.4811 259.063 45.8809V53H256.085V46.623C256.085 45.8418 255.942 45.2526 255.655 44.8555C255.375 44.4583 254.932 44.2598 254.327 44.2598C253.415 44.2598 252.794 44.569 252.462 45.1875C252.13 45.806 251.964 46.6979 251.964 47.8633V53H248.985V42.082H251.261L251.661 43.4785H251.827C252.061 43.1009 252.351 42.7949 252.696 42.5605C253.048 42.3262 253.435 42.1536 253.858 42.043C254.288 41.9323 254.731 41.877 255.186 41.877ZM265.787 53.1953C264.569 53.1953 263.576 52.7201 262.808 51.7695C262.046 50.8125 261.666 49.4095 261.666 47.5605C261.666 45.6921 262.053 44.2793 262.828 43.3223C263.602 42.3587 264.615 41.877 265.865 41.877C266.386 41.877 266.845 41.9486 267.242 42.0918C267.639 42.235 267.981 42.4271 268.267 42.668C268.56 42.9089 268.808 43.179 269.009 43.4785H269.107C269.068 43.2702 269.019 42.9642 268.961 42.5605C268.908 42.1504 268.882 41.7305 268.882 41.3008V37.8047H271.871V53H269.586L269.009 51.584H268.882C268.694 51.8835 268.456 52.1569 268.17 52.4043C267.89 52.6452 267.554 52.8372 267.164 52.9805C266.773 53.1237 266.314 53.1953 265.787 53.1953ZM266.832 50.8223C267.645 50.8223 268.218 50.5814 268.55 50.0996C268.889 49.6113 269.068 48.8789 269.087 47.9023V47.5801C269.087 46.5189 268.925 45.7083 268.599 45.1484C268.274 44.582 267.668 44.2988 266.783 44.2988C266.125 44.2988 265.611 44.582 265.24 45.1484C264.869 45.7148 264.683 46.5319 264.683 47.5996C264.683 48.6673 264.869 49.4714 265.24 50.0117C265.617 50.5521 266.148 50.8223 266.832 50.8223Z" fill="#515151"/>
<defs>
<clipPath id="clip0_2605_13524">
<rect width="500" height="372.61" fill="white"/>
</clipPath>
</defs>
</svg>
