<svg width="12" height="13" viewBox="0 0 12 13" fill="none" xmlns="http://www.w3.org/2000/svg">
<path d="M6.96467 11.9367C7.07506 11.8825 7.1681 11.7986 7.23325 11.6943C7.29841 11.5901 7.33307 11.4696 7.33333 11.3467V7.80001C7.33333 7.62534 7.40333 7.45735 7.52867 7.33334L11.6093 3.29735C11.7329 3.17533 11.8311 3.03002 11.8982 2.86981C11.9652 2.7096 11.9998 2.53769 12 2.36401V0.660012C11.9997 0.572877 11.9821 0.486665 11.9484 0.406313C11.9147 0.325961 11.8655 0.253046 11.8036 0.191742C11.7416 0.130438 11.6682 0.0819478 11.5875 0.0490483C11.5069 0.0161487 11.4205 -0.000514567 11.3333 1.21057e-05H0.666667C0.298 1.21057e-05 0 0.294679 0 0.660012V2.36401C0 2.71401 0.140667 3.05001 0.390667 3.29735L4.47133 7.33334C4.53316 7.39433 4.58226 7.46698 4.6158 7.54709C4.64933 7.6272 4.66662 7.71317 4.66667 7.80001V12.0067C4.66667 12.4967 5.188 12.8153 5.63133 12.596L6.96467 11.9367Z" fill="#8C8B8E"/>
</svg>
