<svg width="16" height="17" viewBox="0 0 16 17" fill="none" xmlns="http://www.w3.org/2000/svg">
<path fill-rule="evenodd" clip-rule="evenodd" d="M11.913 11.2354L15.8177 15.1465C16.0607 15.3898 16.0607 15.7843 15.8178 16.0276C15.6963 16.1494 15.537 16.2102 15.3779 16.2102C15.2187 16.2102 15.0595 16.1494 14.938 16.0276L11.0332 12.1165C9.86602 13.0886 8.36716 13.6743 6.73419 13.6743C3.02093 13.6743 0 10.6485 0 6.92933C0 3.20989 3.02093 0.183899 6.73419 0.183899C10.4474 0.183899 13.4683 3.20989 13.4683 6.92933C13.4683 8.56507 12.8835 10.0663 11.913 11.2354ZM6.73419 1.43007C3.70695 1.43007 1.24414 3.89702 1.24414 6.92932C1.24414 9.96137 3.70695 12.4281 6.73419 12.4281C9.76134 12.4281 12.2241 9.96137 12.2241 6.92932C12.2241 3.89702 9.76134 1.43007 6.73419 1.43007Z" fill="#828282"/>
</svg>
